%TF.GenerationSoftware,KiCad,Pcbnew,(5.1.9)-1*%
%TF.CreationDate,2021-03-28T20:47:18-04:00*%
%TF.ProjectId,LongboardRemote,4c6f6e67-626f-4617-9264-52656d6f7465,rev?*%
%TF.SameCoordinates,Original*%
%TF.FileFunction,Copper,L1,Top*%
%TF.FilePolarity,Positive*%
%FSLAX46Y46*%
G04 Gerber Fmt 4.6, Leading zero omitted, Abs format (unit mm)*
G04 Created by KiCad (PCBNEW (5.1.9)-1) date 2021-03-28 20:47:18*
%MOMM*%
%LPD*%
G01*
G04 APERTURE LIST*
%TA.AperFunction,ComponentPad*%
%ADD10C,1.700000*%
%TD*%
%TA.AperFunction,ComponentPad*%
%ADD11C,3.500000*%
%TD*%
%TA.AperFunction,ComponentPad*%
%ADD12C,2.000000*%
%TD*%
%TA.AperFunction,SMDPad,CuDef*%
%ADD13R,0.900000X1.200000*%
%TD*%
%TA.AperFunction,ComponentPad*%
%ADD14O,0.900000X2.000000*%
%TD*%
%TA.AperFunction,ComponentPad*%
%ADD15O,0.900000X1.700000*%
%TD*%
%TA.AperFunction,SMDPad,CuDef*%
%ADD16R,0.300000X1.160000*%
%TD*%
%TA.AperFunction,SMDPad,CuDef*%
%ADD17R,0.600000X1.160000*%
%TD*%
%TA.AperFunction,ComponentPad*%
%ADD18R,1.700000X1.700000*%
%TD*%
%TA.AperFunction,ComponentPad*%
%ADD19O,1.700000X1.700000*%
%TD*%
%TA.AperFunction,SMDPad,CuDef*%
%ADD20R,1.500000X1.000000*%
%TD*%
%TA.AperFunction,SMDPad,CuDef*%
%ADD21R,0.900000X0.800000*%
%TD*%
%TA.AperFunction,ComponentPad*%
%ADD22C,2.200000*%
%TD*%
%TA.AperFunction,SMDPad,CuDef*%
%ADD23R,0.650000X1.060000*%
%TD*%
%TA.AperFunction,SMDPad,CuDef*%
%ADD24C,0.100000*%
%TD*%
%TA.AperFunction,SMDPad,CuDef*%
%ADD25R,1.500000X0.550000*%
%TD*%
%TA.AperFunction,SMDPad,CuDef*%
%ADD26R,0.550000X1.500000*%
%TD*%
%TA.AperFunction,SMDPad,CuDef*%
%ADD27R,4.500000X4.500000*%
%TD*%
%TA.AperFunction,ViaPad*%
%ADD28C,0.800000*%
%TD*%
%TA.AperFunction,Conductor*%
%ADD29C,0.250000*%
%TD*%
%TA.AperFunction,Conductor*%
%ADD30C,0.200000*%
%TD*%
%TA.AperFunction,Conductor*%
%ADD31C,0.254000*%
%TD*%
%TA.AperFunction,Conductor*%
%ADD32C,0.100000*%
%TD*%
G04 APERTURE END LIST*
%TO.P,C1,2*%
%TO.N,-BATT*%
%TA.AperFunction,SMDPad,CuDef*%
G36*
G01*
X125091000Y-82873000D02*
X124591000Y-82873000D01*
G75*
G02*
X124366000Y-82648000I0J225000D01*
G01*
X124366000Y-82198000D01*
G75*
G02*
X124591000Y-81973000I225000J0D01*
G01*
X125091000Y-81973000D01*
G75*
G02*
X125316000Y-82198000I0J-225000D01*
G01*
X125316000Y-82648000D01*
G75*
G02*
X125091000Y-82873000I-225000J0D01*
G01*
G37*
%TD.AperFunction*%
%TO.P,C1,1*%
%TO.N,VBUS*%
%TA.AperFunction,SMDPad,CuDef*%
G36*
G01*
X125091000Y-84423000D02*
X124591000Y-84423000D01*
G75*
G02*
X124366000Y-84198000I0J225000D01*
G01*
X124366000Y-83748000D01*
G75*
G02*
X124591000Y-83523000I225000J0D01*
G01*
X125091000Y-83523000D01*
G75*
G02*
X125316000Y-83748000I0J-225000D01*
G01*
X125316000Y-84198000D01*
G75*
G02*
X125091000Y-84423000I-225000J0D01*
G01*
G37*
%TD.AperFunction*%
%TD*%
D10*
%TO.P,U1,6*%
%TO.N,STATE*%
X162814000Y-109728000D03*
%TO.P,U1,5*%
%TO.N,Net-(R3-Pad1)*%
X162814000Y-112268000D03*
%TO.P,U1,4*%
%TO.N,RX*%
X162814000Y-114808000D03*
%TO.P,U1,3*%
%TO.N,-BATT*%
X162814000Y-117348000D03*
%TO.P,U1,2*%
%TO.N,+5V*%
X162814000Y-119888000D03*
%TO.P,U1,1*%
%TO.N,EN*%
X162814000Y-122428000D03*
%TD*%
D11*
%TO.P,J4,*%
%TO.N,*%
X157950000Y-130683000D03*
X134650000Y-130683000D03*
X157950000Y-106883000D03*
X134650000Y-106883000D03*
D10*
%TO.P,J4,4*%
%TO.N,SDA*%
X150110000Y-106383000D03*
%TO.P,J4,3*%
%TO.N,SCLK*%
X147570000Y-106383000D03*
%TO.P,J4,2*%
%TO.N,+5V*%
X145030000Y-106383000D03*
%TO.P,J4,1*%
%TO.N,-BATT*%
X142490000Y-106383000D03*
%TD*%
D12*
%TO.P,RV1,3*%
%TO.N,-BATT*%
X144300000Y-100175000D03*
%TO.P,RV1,1*%
%TO.N,+5V*%
X144300000Y-66675000D03*
%TO.P,RV1,2*%
%TO.N,A0*%
X148300000Y-66675000D03*
%TD*%
%TO.P,C2,2*%
%TO.N,-BATT*%
%TA.AperFunction,SMDPad,CuDef*%
G36*
G01*
X137291000Y-95054000D02*
X137791000Y-95054000D01*
G75*
G02*
X138016000Y-95279000I0J-225000D01*
G01*
X138016000Y-95729000D01*
G75*
G02*
X137791000Y-95954000I-225000J0D01*
G01*
X137291000Y-95954000D01*
G75*
G02*
X137066000Y-95729000I0J225000D01*
G01*
X137066000Y-95279000D01*
G75*
G02*
X137291000Y-95054000I225000J0D01*
G01*
G37*
%TD.AperFunction*%
%TO.P,C2,1*%
%TO.N,Net-(C2-Pad1)*%
%TA.AperFunction,SMDPad,CuDef*%
G36*
G01*
X137291000Y-93504000D02*
X137791000Y-93504000D01*
G75*
G02*
X138016000Y-93729000I0J-225000D01*
G01*
X138016000Y-94179000D01*
G75*
G02*
X137791000Y-94404000I-225000J0D01*
G01*
X137291000Y-94404000D01*
G75*
G02*
X137066000Y-94179000I0J225000D01*
G01*
X137066000Y-93729000D01*
G75*
G02*
X137291000Y-93504000I225000J0D01*
G01*
G37*
%TD.AperFunction*%
%TD*%
%TO.P,C3,1*%
%TO.N,-BATT*%
%TA.AperFunction,SMDPad,CuDef*%
G36*
G01*
X130425000Y-95954000D02*
X129925000Y-95954000D01*
G75*
G02*
X129700000Y-95729000I0J225000D01*
G01*
X129700000Y-95279000D01*
G75*
G02*
X129925000Y-95054000I225000J0D01*
G01*
X130425000Y-95054000D01*
G75*
G02*
X130650000Y-95279000I0J-225000D01*
G01*
X130650000Y-95729000D01*
G75*
G02*
X130425000Y-95954000I-225000J0D01*
G01*
G37*
%TD.AperFunction*%
%TO.P,C3,2*%
%TO.N,Net-(C3-Pad2)*%
%TA.AperFunction,SMDPad,CuDef*%
G36*
G01*
X130425000Y-94404000D02*
X129925000Y-94404000D01*
G75*
G02*
X129700000Y-94179000I0J225000D01*
G01*
X129700000Y-93729000D01*
G75*
G02*
X129925000Y-93504000I225000J0D01*
G01*
X130425000Y-93504000D01*
G75*
G02*
X130650000Y-93729000I0J-225000D01*
G01*
X130650000Y-94179000D01*
G75*
G02*
X130425000Y-94404000I-225000J0D01*
G01*
G37*
%TD.AperFunction*%
%TD*%
%TO.P,C4,1*%
%TO.N,-BATT*%
%TA.AperFunction,SMDPad,CuDef*%
G36*
G01*
X125091000Y-87699000D02*
X124591000Y-87699000D01*
G75*
G02*
X124366000Y-87474000I0J225000D01*
G01*
X124366000Y-87024000D01*
G75*
G02*
X124591000Y-86799000I225000J0D01*
G01*
X125091000Y-86799000D01*
G75*
G02*
X125316000Y-87024000I0J-225000D01*
G01*
X125316000Y-87474000D01*
G75*
G02*
X125091000Y-87699000I-225000J0D01*
G01*
G37*
%TD.AperFunction*%
%TO.P,C4,2*%
%TO.N,Net-(C4-Pad2)*%
%TA.AperFunction,SMDPad,CuDef*%
G36*
G01*
X125091000Y-86149000D02*
X124591000Y-86149000D01*
G75*
G02*
X124366000Y-85924000I0J225000D01*
G01*
X124366000Y-85474000D01*
G75*
G02*
X124591000Y-85249000I225000J0D01*
G01*
X125091000Y-85249000D01*
G75*
G02*
X125316000Y-85474000I0J-225000D01*
G01*
X125316000Y-85924000D01*
G75*
G02*
X125091000Y-86149000I-225000J0D01*
G01*
G37*
%TD.AperFunction*%
%TD*%
%TO.P,C5,1*%
%TO.N,-BATT*%
%TA.AperFunction,SMDPad,CuDef*%
G36*
G01*
X128175000Y-75307000D02*
X128175000Y-74807000D01*
G75*
G02*
X128400000Y-74582000I225000J0D01*
G01*
X128850000Y-74582000D01*
G75*
G02*
X129075000Y-74807000I0J-225000D01*
G01*
X129075000Y-75307000D01*
G75*
G02*
X128850000Y-75532000I-225000J0D01*
G01*
X128400000Y-75532000D01*
G75*
G02*
X128175000Y-75307000I0J225000D01*
G01*
G37*
%TD.AperFunction*%
%TO.P,C5,2*%
%TO.N,Net-(C5-Pad2)*%
%TA.AperFunction,SMDPad,CuDef*%
G36*
G01*
X129725000Y-75307000D02*
X129725000Y-74807000D01*
G75*
G02*
X129950000Y-74582000I225000J0D01*
G01*
X130400000Y-74582000D01*
G75*
G02*
X130625000Y-74807000I0J-225000D01*
G01*
X130625000Y-75307000D01*
G75*
G02*
X130400000Y-75532000I-225000J0D01*
G01*
X129950000Y-75532000D01*
G75*
G02*
X129725000Y-75307000I0J225000D01*
G01*
G37*
%TD.AperFunction*%
%TD*%
%TO.P,C6,2*%
%TO.N,+BATT*%
%TA.AperFunction,SMDPad,CuDef*%
G36*
G01*
X154563000Y-89974000D02*
X155063000Y-89974000D01*
G75*
G02*
X155288000Y-90199000I0J-225000D01*
G01*
X155288000Y-90649000D01*
G75*
G02*
X155063000Y-90874000I-225000J0D01*
G01*
X154563000Y-90874000D01*
G75*
G02*
X154338000Y-90649000I0J225000D01*
G01*
X154338000Y-90199000D01*
G75*
G02*
X154563000Y-89974000I225000J0D01*
G01*
G37*
%TD.AperFunction*%
%TO.P,C6,1*%
%TO.N,-BATT*%
%TA.AperFunction,SMDPad,CuDef*%
G36*
G01*
X154563000Y-88424000D02*
X155063000Y-88424000D01*
G75*
G02*
X155288000Y-88649000I0J-225000D01*
G01*
X155288000Y-89099000D01*
G75*
G02*
X155063000Y-89324000I-225000J0D01*
G01*
X154563000Y-89324000D01*
G75*
G02*
X154338000Y-89099000I0J225000D01*
G01*
X154338000Y-88649000D01*
G75*
G02*
X154563000Y-88424000I225000J0D01*
G01*
G37*
%TD.AperFunction*%
%TD*%
%TO.P,C7,1*%
%TO.N,-BATT*%
%TA.AperFunction,SMDPad,CuDef*%
G36*
G01*
X159417000Y-93468000D02*
X159417000Y-92968000D01*
G75*
G02*
X159642000Y-92743000I225000J0D01*
G01*
X160092000Y-92743000D01*
G75*
G02*
X160317000Y-92968000I0J-225000D01*
G01*
X160317000Y-93468000D01*
G75*
G02*
X160092000Y-93693000I-225000J0D01*
G01*
X159642000Y-93693000D01*
G75*
G02*
X159417000Y-93468000I0J225000D01*
G01*
G37*
%TD.AperFunction*%
%TO.P,C7,2*%
%TO.N,VBUS*%
%TA.AperFunction,SMDPad,CuDef*%
G36*
G01*
X160967000Y-93468000D02*
X160967000Y-92968000D01*
G75*
G02*
X161192000Y-92743000I225000J0D01*
G01*
X161642000Y-92743000D01*
G75*
G02*
X161867000Y-92968000I0J-225000D01*
G01*
X161867000Y-93468000D01*
G75*
G02*
X161642000Y-93693000I-225000J0D01*
G01*
X161192000Y-93693000D01*
G75*
G02*
X160967000Y-93468000I0J225000D01*
G01*
G37*
%TD.AperFunction*%
%TD*%
%TO.P,C9,2*%
%TO.N,Net-(C8-Pad2)*%
%TA.AperFunction,SMDPad,CuDef*%
G36*
G01*
X158298000Y-83189000D02*
X158298000Y-83689000D01*
G75*
G02*
X158073000Y-83914000I-225000J0D01*
G01*
X157623000Y-83914000D01*
G75*
G02*
X157398000Y-83689000I0J225000D01*
G01*
X157398000Y-83189000D01*
G75*
G02*
X157623000Y-82964000I225000J0D01*
G01*
X158073000Y-82964000D01*
G75*
G02*
X158298000Y-83189000I0J-225000D01*
G01*
G37*
%TD.AperFunction*%
%TO.P,C9,1*%
%TO.N,-BATT*%
%TA.AperFunction,SMDPad,CuDef*%
G36*
G01*
X159848000Y-83189000D02*
X159848000Y-83689000D01*
G75*
G02*
X159623000Y-83914000I-225000J0D01*
G01*
X159173000Y-83914000D01*
G75*
G02*
X158948000Y-83689000I0J225000D01*
G01*
X158948000Y-83189000D01*
G75*
G02*
X159173000Y-82964000I225000J0D01*
G01*
X159623000Y-82964000D01*
G75*
G02*
X159848000Y-83189000I0J-225000D01*
G01*
G37*
%TD.AperFunction*%
%TD*%
%TO.P,C10,1*%
%TO.N,-BATT*%
%TA.AperFunction,SMDPad,CuDef*%
G36*
G01*
X134551000Y-75434000D02*
X134551000Y-74934000D01*
G75*
G02*
X134776000Y-74709000I225000J0D01*
G01*
X135226000Y-74709000D01*
G75*
G02*
X135451000Y-74934000I0J-225000D01*
G01*
X135451000Y-75434000D01*
G75*
G02*
X135226000Y-75659000I-225000J0D01*
G01*
X134776000Y-75659000D01*
G75*
G02*
X134551000Y-75434000I0J225000D01*
G01*
G37*
%TD.AperFunction*%
%TO.P,C10,2*%
%TO.N,+5V*%
%TA.AperFunction,SMDPad,CuDef*%
G36*
G01*
X136101000Y-75434000D02*
X136101000Y-74934000D01*
G75*
G02*
X136326000Y-74709000I225000J0D01*
G01*
X136776000Y-74709000D01*
G75*
G02*
X137001000Y-74934000I0J-225000D01*
G01*
X137001000Y-75434000D01*
G75*
G02*
X136776000Y-75659000I-225000J0D01*
G01*
X136326000Y-75659000D01*
G75*
G02*
X136101000Y-75434000I0J225000D01*
G01*
G37*
%TD.AperFunction*%
%TD*%
%TO.P,C11,1*%
%TO.N,-BATT*%
%TA.AperFunction,SMDPad,CuDef*%
G36*
G01*
X140712000Y-88487000D02*
X140212000Y-88487000D01*
G75*
G02*
X139987000Y-88262000I0J225000D01*
G01*
X139987000Y-87812000D01*
G75*
G02*
X140212000Y-87587000I225000J0D01*
G01*
X140712000Y-87587000D01*
G75*
G02*
X140937000Y-87812000I0J-225000D01*
G01*
X140937000Y-88262000D01*
G75*
G02*
X140712000Y-88487000I-225000J0D01*
G01*
G37*
%TD.AperFunction*%
%TO.P,C11,2*%
%TO.N,+5V*%
%TA.AperFunction,SMDPad,CuDef*%
G36*
G01*
X140712000Y-86937000D02*
X140212000Y-86937000D01*
G75*
G02*
X139987000Y-86712000I0J225000D01*
G01*
X139987000Y-86262000D01*
G75*
G02*
X140212000Y-86037000I225000J0D01*
G01*
X140712000Y-86037000D01*
G75*
G02*
X140937000Y-86262000I0J-225000D01*
G01*
X140937000Y-86712000D01*
G75*
G02*
X140712000Y-86937000I-225000J0D01*
G01*
G37*
%TD.AperFunction*%
%TD*%
%TO.P,C12,2*%
%TO.N,+5V*%
%TA.AperFunction,SMDPad,CuDef*%
G36*
G01*
X124591000Y-79306000D02*
X125091000Y-79306000D01*
G75*
G02*
X125316000Y-79531000I0J-225000D01*
G01*
X125316000Y-79981000D01*
G75*
G02*
X125091000Y-80206000I-225000J0D01*
G01*
X124591000Y-80206000D01*
G75*
G02*
X124366000Y-79981000I0J225000D01*
G01*
X124366000Y-79531000D01*
G75*
G02*
X124591000Y-79306000I225000J0D01*
G01*
G37*
%TD.AperFunction*%
%TO.P,C12,1*%
%TO.N,-BATT*%
%TA.AperFunction,SMDPad,CuDef*%
G36*
G01*
X124591000Y-77756000D02*
X125091000Y-77756000D01*
G75*
G02*
X125316000Y-77981000I0J-225000D01*
G01*
X125316000Y-78431000D01*
G75*
G02*
X125091000Y-78656000I-225000J0D01*
G01*
X124591000Y-78656000D01*
G75*
G02*
X124366000Y-78431000I0J225000D01*
G01*
X124366000Y-77981000D01*
G75*
G02*
X124591000Y-77756000I225000J0D01*
G01*
G37*
%TD.AperFunction*%
%TD*%
%TO.P,D6,2*%
%TO.N,Net-(D6-Pad2)*%
%TA.AperFunction,SMDPad,CuDef*%
G36*
G01*
X164662500Y-97411250D02*
X164662500Y-96898750D01*
G75*
G02*
X164881250Y-96680000I218750J0D01*
G01*
X165318750Y-96680000D01*
G75*
G02*
X165537500Y-96898750I0J-218750D01*
G01*
X165537500Y-97411250D01*
G75*
G02*
X165318750Y-97630000I-218750J0D01*
G01*
X164881250Y-97630000D01*
G75*
G02*
X164662500Y-97411250I0J218750D01*
G01*
G37*
%TD.AperFunction*%
%TO.P,D6,1*%
%TO.N,/~CHRG*%
%TA.AperFunction,SMDPad,CuDef*%
G36*
G01*
X163087500Y-97411250D02*
X163087500Y-96898750D01*
G75*
G02*
X163306250Y-96680000I218750J0D01*
G01*
X163743750Y-96680000D01*
G75*
G02*
X163962500Y-96898750I0J-218750D01*
G01*
X163962500Y-97411250D01*
G75*
G02*
X163743750Y-97630000I-218750J0D01*
G01*
X163306250Y-97630000D01*
G75*
G02*
X163087500Y-97411250I0J218750D01*
G01*
G37*
%TD.AperFunction*%
%TD*%
%TO.P,D7,1*%
%TO.N,Net-(D7-Pad1)*%
%TA.AperFunction,SMDPad,CuDef*%
G36*
G01*
X163087500Y-99189250D02*
X163087500Y-98676750D01*
G75*
G02*
X163306250Y-98458000I218750J0D01*
G01*
X163743750Y-98458000D01*
G75*
G02*
X163962500Y-98676750I0J-218750D01*
G01*
X163962500Y-99189250D01*
G75*
G02*
X163743750Y-99408000I-218750J0D01*
G01*
X163306250Y-99408000D01*
G75*
G02*
X163087500Y-99189250I0J218750D01*
G01*
G37*
%TD.AperFunction*%
%TO.P,D7,2*%
%TO.N,Net-(D7-Pad2)*%
%TA.AperFunction,SMDPad,CuDef*%
G36*
G01*
X164662500Y-99189250D02*
X164662500Y-98676750D01*
G75*
G02*
X164881250Y-98458000I218750J0D01*
G01*
X165318750Y-98458000D01*
G75*
G02*
X165537500Y-98676750I0J-218750D01*
G01*
X165537500Y-99189250D01*
G75*
G02*
X165318750Y-99408000I-218750J0D01*
G01*
X164881250Y-99408000D01*
G75*
G02*
X164662500Y-99189250I0J218750D01*
G01*
G37*
%TD.AperFunction*%
%TD*%
D13*
%TO.P,D8,1*%
%TO.N,Net-(C8-Pad2)*%
X157863000Y-85725000D03*
%TO.P,D8,2*%
%TO.N,Net-(D8-Pad2)*%
X161163000Y-85725000D03*
%TD*%
D14*
%TO.P,J1,S1*%
%TO.N,Net-(J1-PadS1)*%
X141982000Y-141245000D03*
X150622000Y-141245000D03*
D15*
X141982000Y-145415000D03*
X150622000Y-145415000D03*
D16*
%TO.P,J1,B7*%
%TO.N,Net-(J1-PadA7)*%
X145552000Y-140665000D03*
%TO.P,J1,A6*%
%TO.N,Net-(J1-PadA6)*%
X146052000Y-140665000D03*
%TO.P,J1,A7*%
%TO.N,Net-(J1-PadA7)*%
X146552000Y-140665000D03*
%TO.P,J1,B8*%
%TO.N,Net-(J1-PadB8)*%
X144552000Y-140665000D03*
%TO.P,J1,A5*%
%TO.N,Net-(J1-PadA5)*%
X145052000Y-140665000D03*
%TO.P,J1,A8*%
%TO.N,Net-(J1-PadA8)*%
X147552000Y-140665000D03*
%TO.P,J1,B6*%
%TO.N,Net-(J1-PadA6)*%
X147052000Y-140665000D03*
%TO.P,J1,B5*%
%TO.N,Net-(J1-PadB5)*%
X148052000Y-140665000D03*
D17*
%TO.P,J1,A4*%
%TO.N,VBUS*%
X143902000Y-140665000D03*
%TO.P,J1,B9*%
X143902000Y-140665000D03*
%TO.P,J1,A1*%
%TO.N,-BATT*%
X143102000Y-140665000D03*
%TO.P,J1,B12*%
X143102000Y-140665000D03*
%TO.P,J1,B4*%
%TO.N,VBUS*%
X148702000Y-140665000D03*
%TO.P,J1,B1*%
%TO.N,-BATT*%
X149502000Y-140665000D03*
%TO.P,J1,A9*%
%TO.N,VBUS*%
X148702000Y-140665000D03*
%TO.P,J1,A12*%
%TO.N,-BATT*%
X149502000Y-140665000D03*
%TD*%
D18*
%TO.P,J2,1*%
%TO.N,+BATT*%
X129540000Y-105029000D03*
D19*
%TO.P,J2,2*%
%TO.N,-BATT*%
X127000000Y-105029000D03*
%TD*%
%TO.P,J3,4*%
%TO.N,-BATT*%
X136525000Y-69469000D03*
%TO.P,J3,3*%
%TO.N,D-*%
X133985000Y-69469000D03*
%TO.P,J3,2*%
%TO.N,D+*%
X131445000Y-69469000D03*
D18*
%TO.P,J3,1*%
%TO.N,VBUS*%
X128905000Y-69469000D03*
%TD*%
D20*
%TO.P,JP1,2*%
%TO.N,latch*%
X163576000Y-70485000D03*
%TO.P,JP1,1*%
%TO.N,latch_2*%
X163576000Y-69185000D03*
%TD*%
%TO.P,L1,1*%
%TO.N,+BATT*%
%TA.AperFunction,SMDPad,CuDef*%
G36*
G01*
X161417250Y-90827500D02*
X160654750Y-90827500D01*
G75*
G02*
X160436000Y-90608750I0J218750D01*
G01*
X160436000Y-90171250D01*
G75*
G02*
X160654750Y-89952500I218750J0D01*
G01*
X161417250Y-89952500D01*
G75*
G02*
X161636000Y-90171250I0J-218750D01*
G01*
X161636000Y-90608750D01*
G75*
G02*
X161417250Y-90827500I-218750J0D01*
G01*
G37*
%TD.AperFunction*%
%TO.P,L1,2*%
%TO.N,Net-(D8-Pad2)*%
%TA.AperFunction,SMDPad,CuDef*%
G36*
G01*
X161417250Y-88702500D02*
X160654750Y-88702500D01*
G75*
G02*
X160436000Y-88483750I0J218750D01*
G01*
X160436000Y-88046250D01*
G75*
G02*
X160654750Y-87827500I218750J0D01*
G01*
X161417250Y-87827500D01*
G75*
G02*
X161636000Y-88046250I0J-218750D01*
G01*
X161636000Y-88483750D01*
G75*
G02*
X161417250Y-88702500I-218750J0D01*
G01*
G37*
%TD.AperFunction*%
%TD*%
D21*
%TO.P,Q1,1*%
%TO.N,Net-(Q1-Pad1)*%
X159290000Y-68900000D03*
%TO.P,Q1,2*%
%TO.N,latch*%
X159290000Y-70800000D03*
%TO.P,Q1,3*%
%TO.N,-BATT*%
X161290000Y-69850000D03*
%TD*%
%TO.P,R1,2*%
%TO.N,-BATT*%
%TA.AperFunction,SMDPad,CuDef*%
G36*
G01*
X149373000Y-136290000D02*
X148823000Y-136290000D01*
G75*
G02*
X148623000Y-136090000I0J200000D01*
G01*
X148623000Y-135690000D01*
G75*
G02*
X148823000Y-135490000I200000J0D01*
G01*
X149373000Y-135490000D01*
G75*
G02*
X149573000Y-135690000I0J-200000D01*
G01*
X149573000Y-136090000D01*
G75*
G02*
X149373000Y-136290000I-200000J0D01*
G01*
G37*
%TD.AperFunction*%
%TO.P,R1,1*%
%TO.N,Net-(J1-PadB5)*%
%TA.AperFunction,SMDPad,CuDef*%
G36*
G01*
X149373000Y-137940000D02*
X148823000Y-137940000D01*
G75*
G02*
X148623000Y-137740000I0J200000D01*
G01*
X148623000Y-137340000D01*
G75*
G02*
X148823000Y-137140000I200000J0D01*
G01*
X149373000Y-137140000D01*
G75*
G02*
X149573000Y-137340000I0J-200000D01*
G01*
X149573000Y-137740000D01*
G75*
G02*
X149373000Y-137940000I-200000J0D01*
G01*
G37*
%TD.AperFunction*%
%TD*%
%TO.P,R2,1*%
%TO.N,Net-(J1-PadA5)*%
%TA.AperFunction,SMDPad,CuDef*%
G36*
G01*
X143785000Y-137940000D02*
X143235000Y-137940000D01*
G75*
G02*
X143035000Y-137740000I0J200000D01*
G01*
X143035000Y-137340000D01*
G75*
G02*
X143235000Y-137140000I200000J0D01*
G01*
X143785000Y-137140000D01*
G75*
G02*
X143985000Y-137340000I0J-200000D01*
G01*
X143985000Y-137740000D01*
G75*
G02*
X143785000Y-137940000I-200000J0D01*
G01*
G37*
%TD.AperFunction*%
%TO.P,R2,2*%
%TO.N,-BATT*%
%TA.AperFunction,SMDPad,CuDef*%
G36*
G01*
X143785000Y-136290000D02*
X143235000Y-136290000D01*
G75*
G02*
X143035000Y-136090000I0J200000D01*
G01*
X143035000Y-135690000D01*
G75*
G02*
X143235000Y-135490000I200000J0D01*
G01*
X143785000Y-135490000D01*
G75*
G02*
X143985000Y-135690000I0J-200000D01*
G01*
X143985000Y-136090000D01*
G75*
G02*
X143785000Y-136290000I-200000J0D01*
G01*
G37*
%TD.AperFunction*%
%TD*%
%TO.P,R3,2*%
%TO.N,TX*%
%TA.AperFunction,SMDPad,CuDef*%
G36*
G01*
X158897000Y-110215000D02*
X158897000Y-110765000D01*
G75*
G02*
X158697000Y-110965000I-200000J0D01*
G01*
X158297000Y-110965000D01*
G75*
G02*
X158097000Y-110765000I0J200000D01*
G01*
X158097000Y-110215000D01*
G75*
G02*
X158297000Y-110015000I200000J0D01*
G01*
X158697000Y-110015000D01*
G75*
G02*
X158897000Y-110215000I0J-200000D01*
G01*
G37*
%TD.AperFunction*%
%TO.P,R3,1*%
%TO.N,Net-(R3-Pad1)*%
%TA.AperFunction,SMDPad,CuDef*%
G36*
G01*
X160547000Y-110215000D02*
X160547000Y-110765000D01*
G75*
G02*
X160347000Y-110965000I-200000J0D01*
G01*
X159947000Y-110965000D01*
G75*
G02*
X159747000Y-110765000I0J200000D01*
G01*
X159747000Y-110215000D01*
G75*
G02*
X159947000Y-110015000I200000J0D01*
G01*
X160347000Y-110015000D01*
G75*
G02*
X160547000Y-110215000I0J-200000D01*
G01*
G37*
%TD.AperFunction*%
%TD*%
%TO.P,R4,1*%
%TO.N,-BATT*%
%TA.AperFunction,SMDPad,CuDef*%
G36*
G01*
X158097000Y-112670000D02*
X158097000Y-112120000D01*
G75*
G02*
X158297000Y-111920000I200000J0D01*
G01*
X158697000Y-111920000D01*
G75*
G02*
X158897000Y-112120000I0J-200000D01*
G01*
X158897000Y-112670000D01*
G75*
G02*
X158697000Y-112870000I-200000J0D01*
G01*
X158297000Y-112870000D01*
G75*
G02*
X158097000Y-112670000I0J200000D01*
G01*
G37*
%TD.AperFunction*%
%TO.P,R4,2*%
%TO.N,Net-(R3-Pad1)*%
%TA.AperFunction,SMDPad,CuDef*%
G36*
G01*
X159747000Y-112670000D02*
X159747000Y-112120000D01*
G75*
G02*
X159947000Y-111920000I200000J0D01*
G01*
X160347000Y-111920000D01*
G75*
G02*
X160547000Y-112120000I0J-200000D01*
G01*
X160547000Y-112670000D01*
G75*
G02*
X160347000Y-112870000I-200000J0D01*
G01*
X159947000Y-112870000D01*
G75*
G02*
X159747000Y-112670000I0J200000D01*
G01*
G37*
%TD.AperFunction*%
%TD*%
%TO.P,R5,2*%
%TO.N,D+*%
%TA.AperFunction,SMDPad,CuDef*%
G36*
G01*
X147510332Y-136290000D02*
X146960332Y-136290000D01*
G75*
G02*
X146760332Y-136090000I0J200000D01*
G01*
X146760332Y-135690000D01*
G75*
G02*
X146960332Y-135490000I200000J0D01*
G01*
X147510332Y-135490000D01*
G75*
G02*
X147710332Y-135690000I0J-200000D01*
G01*
X147710332Y-136090000D01*
G75*
G02*
X147510332Y-136290000I-200000J0D01*
G01*
G37*
%TD.AperFunction*%
%TO.P,R5,1*%
%TO.N,Net-(J1-PadA6)*%
%TA.AperFunction,SMDPad,CuDef*%
G36*
G01*
X147510332Y-137940000D02*
X146960332Y-137940000D01*
G75*
G02*
X146760332Y-137740000I0J200000D01*
G01*
X146760332Y-137340000D01*
G75*
G02*
X146960332Y-137140000I200000J0D01*
G01*
X147510332Y-137140000D01*
G75*
G02*
X147710332Y-137340000I0J-200000D01*
G01*
X147710332Y-137740000D01*
G75*
G02*
X147510332Y-137940000I-200000J0D01*
G01*
G37*
%TD.AperFunction*%
%TD*%
%TO.P,R6,1*%
%TO.N,D-*%
%TA.AperFunction,SMDPad,CuDef*%
G36*
G01*
X145097666Y-135490000D02*
X145647666Y-135490000D01*
G75*
G02*
X145847666Y-135690000I0J-200000D01*
G01*
X145847666Y-136090000D01*
G75*
G02*
X145647666Y-136290000I-200000J0D01*
G01*
X145097666Y-136290000D01*
G75*
G02*
X144897666Y-136090000I0J200000D01*
G01*
X144897666Y-135690000D01*
G75*
G02*
X145097666Y-135490000I200000J0D01*
G01*
G37*
%TD.AperFunction*%
%TO.P,R6,2*%
%TO.N,Net-(J1-PadA7)*%
%TA.AperFunction,SMDPad,CuDef*%
G36*
G01*
X145097666Y-137140000D02*
X145647666Y-137140000D01*
G75*
G02*
X145847666Y-137340000I0J-200000D01*
G01*
X145847666Y-137740000D01*
G75*
G02*
X145647666Y-137940000I-200000J0D01*
G01*
X145097666Y-137940000D01*
G75*
G02*
X144897666Y-137740000I0J200000D01*
G01*
X144897666Y-137340000D01*
G75*
G02*
X145097666Y-137140000I200000J0D01*
G01*
G37*
%TD.AperFunction*%
%TD*%
%TO.P,R7,1*%
%TO.N,~RESET*%
%TA.AperFunction,SMDPad,CuDef*%
G36*
G01*
X128252000Y-91715000D02*
X128252000Y-91165000D01*
G75*
G02*
X128452000Y-90965000I200000J0D01*
G01*
X128852000Y-90965000D01*
G75*
G02*
X129052000Y-91165000I0J-200000D01*
G01*
X129052000Y-91715000D01*
G75*
G02*
X128852000Y-91915000I-200000J0D01*
G01*
X128452000Y-91915000D01*
G75*
G02*
X128252000Y-91715000I0J200000D01*
G01*
G37*
%TD.AperFunction*%
%TO.P,R7,2*%
%TO.N,+5V*%
%TA.AperFunction,SMDPad,CuDef*%
G36*
G01*
X129902000Y-91715000D02*
X129902000Y-91165000D01*
G75*
G02*
X130102000Y-90965000I200000J0D01*
G01*
X130502000Y-90965000D01*
G75*
G02*
X130702000Y-91165000I0J-200000D01*
G01*
X130702000Y-91715000D01*
G75*
G02*
X130502000Y-91915000I-200000J0D01*
G01*
X130102000Y-91915000D01*
G75*
G02*
X129902000Y-91715000I0J200000D01*
G01*
G37*
%TD.AperFunction*%
%TD*%
%TO.P,R8,2*%
%TO.N,SW*%
%TA.AperFunction,SMDPad,CuDef*%
G36*
G01*
X153945000Y-63012000D02*
X153395000Y-63012000D01*
G75*
G02*
X153195000Y-62812000I0J200000D01*
G01*
X153195000Y-62412000D01*
G75*
G02*
X153395000Y-62212000I200000J0D01*
G01*
X153945000Y-62212000D01*
G75*
G02*
X154145000Y-62412000I0J-200000D01*
G01*
X154145000Y-62812000D01*
G75*
G02*
X153945000Y-63012000I-200000J0D01*
G01*
G37*
%TD.AperFunction*%
%TO.P,R8,1*%
%TO.N,+5V*%
%TA.AperFunction,SMDPad,CuDef*%
G36*
G01*
X153945000Y-64662000D02*
X153395000Y-64662000D01*
G75*
G02*
X153195000Y-64462000I0J200000D01*
G01*
X153195000Y-64062000D01*
G75*
G02*
X153395000Y-63862000I200000J0D01*
G01*
X153945000Y-63862000D01*
G75*
G02*
X154145000Y-64062000I0J-200000D01*
G01*
X154145000Y-64462000D01*
G75*
G02*
X153945000Y-64662000I-200000J0D01*
G01*
G37*
%TD.AperFunction*%
%TD*%
%TO.P,R9,2*%
%TO.N,latch*%
%TA.AperFunction,SMDPad,CuDef*%
G36*
G01*
X162835000Y-76600000D02*
X162285000Y-76600000D01*
G75*
G02*
X162085000Y-76400000I0J200000D01*
G01*
X162085000Y-76000000D01*
G75*
G02*
X162285000Y-75800000I200000J0D01*
G01*
X162835000Y-75800000D01*
G75*
G02*
X163035000Y-76000000I0J-200000D01*
G01*
X163035000Y-76400000D01*
G75*
G02*
X162835000Y-76600000I-200000J0D01*
G01*
G37*
%TD.AperFunction*%
%TO.P,R9,1*%
%TO.N,Net-(C8-Pad2)*%
%TA.AperFunction,SMDPad,CuDef*%
G36*
G01*
X162835000Y-78250000D02*
X162285000Y-78250000D01*
G75*
G02*
X162085000Y-78050000I0J200000D01*
G01*
X162085000Y-77650000D01*
G75*
G02*
X162285000Y-77450000I200000J0D01*
G01*
X162835000Y-77450000D01*
G75*
G02*
X163035000Y-77650000I0J-200000D01*
G01*
X163035000Y-78050000D01*
G75*
G02*
X162835000Y-78250000I-200000J0D01*
G01*
G37*
%TD.AperFunction*%
%TD*%
%TO.P,R10,1*%
%TO.N,Net-(Q1-Pad1)*%
%TA.AperFunction,SMDPad,CuDef*%
G36*
G01*
X157753000Y-68559000D02*
X157753000Y-69109000D01*
G75*
G02*
X157553000Y-69309000I-200000J0D01*
G01*
X157153000Y-69309000D01*
G75*
G02*
X156953000Y-69109000I0J200000D01*
G01*
X156953000Y-68559000D01*
G75*
G02*
X157153000Y-68359000I200000J0D01*
G01*
X157553000Y-68359000D01*
G75*
G02*
X157753000Y-68559000I0J-200000D01*
G01*
G37*
%TD.AperFunction*%
%TO.P,R10,2*%
%TO.N,latch_2*%
%TA.AperFunction,SMDPad,CuDef*%
G36*
G01*
X156103000Y-68559000D02*
X156103000Y-69109000D01*
G75*
G02*
X155903000Y-69309000I-200000J0D01*
G01*
X155503000Y-69309000D01*
G75*
G02*
X155303000Y-69109000I0J200000D01*
G01*
X155303000Y-68559000D01*
G75*
G02*
X155503000Y-68359000I200000J0D01*
G01*
X155903000Y-68359000D01*
G75*
G02*
X156103000Y-68559000I0J-200000D01*
G01*
G37*
%TD.AperFunction*%
%TD*%
%TO.P,R13,2*%
%TO.N,VBUS*%
%TA.AperFunction,SMDPad,CuDef*%
G36*
G01*
X163849000Y-93451000D02*
X163849000Y-94001000D01*
G75*
G02*
X163649000Y-94201000I-200000J0D01*
G01*
X163249000Y-94201000D01*
G75*
G02*
X163049000Y-94001000I0J200000D01*
G01*
X163049000Y-93451000D01*
G75*
G02*
X163249000Y-93251000I200000J0D01*
G01*
X163649000Y-93251000D01*
G75*
G02*
X163849000Y-93451000I0J-200000D01*
G01*
G37*
%TD.AperFunction*%
%TO.P,R13,1*%
%TO.N,Net-(D6-Pad2)*%
%TA.AperFunction,SMDPad,CuDef*%
G36*
G01*
X165499000Y-93451000D02*
X165499000Y-94001000D01*
G75*
G02*
X165299000Y-94201000I-200000J0D01*
G01*
X164899000Y-94201000D01*
G75*
G02*
X164699000Y-94001000I0J200000D01*
G01*
X164699000Y-93451000D01*
G75*
G02*
X164899000Y-93251000I200000J0D01*
G01*
X165299000Y-93251000D01*
G75*
G02*
X165499000Y-93451000I0J-200000D01*
G01*
G37*
%TD.AperFunction*%
%TD*%
%TO.P,R14,1*%
%TO.N,Net-(D7-Pad2)*%
%TA.AperFunction,SMDPad,CuDef*%
G36*
G01*
X165499000Y-95229000D02*
X165499000Y-95779000D01*
G75*
G02*
X165299000Y-95979000I-200000J0D01*
G01*
X164899000Y-95979000D01*
G75*
G02*
X164699000Y-95779000I0J200000D01*
G01*
X164699000Y-95229000D01*
G75*
G02*
X164899000Y-95029000I200000J0D01*
G01*
X165299000Y-95029000D01*
G75*
G02*
X165499000Y-95229000I0J-200000D01*
G01*
G37*
%TD.AperFunction*%
%TO.P,R14,2*%
%TO.N,VBUS*%
%TA.AperFunction,SMDPad,CuDef*%
G36*
G01*
X163849000Y-95229000D02*
X163849000Y-95779000D01*
G75*
G02*
X163649000Y-95979000I-200000J0D01*
G01*
X163249000Y-95979000D01*
G75*
G02*
X163049000Y-95779000I0J200000D01*
G01*
X163049000Y-95229000D01*
G75*
G02*
X163249000Y-95029000I200000J0D01*
G01*
X163649000Y-95029000D01*
G75*
G02*
X163849000Y-95229000I0J-200000D01*
G01*
G37*
%TD.AperFunction*%
%TD*%
%TO.P,R15,1*%
%TO.N,Net-(C8-Pad2)*%
%TA.AperFunction,SMDPad,CuDef*%
G36*
G01*
X156609000Y-84307000D02*
X156609000Y-84857000D01*
G75*
G02*
X156409000Y-85057000I-200000J0D01*
G01*
X156009000Y-85057000D01*
G75*
G02*
X155809000Y-84857000I0J200000D01*
G01*
X155809000Y-84307000D01*
G75*
G02*
X156009000Y-84107000I200000J0D01*
G01*
X156409000Y-84107000D01*
G75*
G02*
X156609000Y-84307000I0J-200000D01*
G01*
G37*
%TD.AperFunction*%
%TO.P,R15,2*%
%TO.N,Net-(C8-Pad1)*%
%TA.AperFunction,SMDPad,CuDef*%
G36*
G01*
X154959000Y-84307000D02*
X154959000Y-84857000D01*
G75*
G02*
X154759000Y-85057000I-200000J0D01*
G01*
X154359000Y-85057000D01*
G75*
G02*
X154159000Y-84857000I0J200000D01*
G01*
X154159000Y-84307000D01*
G75*
G02*
X154359000Y-84107000I200000J0D01*
G01*
X154759000Y-84107000D01*
G75*
G02*
X154959000Y-84307000I0J-200000D01*
G01*
G37*
%TD.AperFunction*%
%TD*%
%TO.P,R16,1*%
%TO.N,Net-(C8-Pad1)*%
%TA.AperFunction,SMDPad,CuDef*%
G36*
G01*
X154033000Y-83079000D02*
X154033000Y-82529000D01*
G75*
G02*
X154233000Y-82329000I200000J0D01*
G01*
X154633000Y-82329000D01*
G75*
G02*
X154833000Y-82529000I0J-200000D01*
G01*
X154833000Y-83079000D01*
G75*
G02*
X154633000Y-83279000I-200000J0D01*
G01*
X154233000Y-83279000D01*
G75*
G02*
X154033000Y-83079000I0J200000D01*
G01*
G37*
%TD.AperFunction*%
%TO.P,R16,2*%
%TO.N,-BATT*%
%TA.AperFunction,SMDPad,CuDef*%
G36*
G01*
X155683000Y-83079000D02*
X155683000Y-82529000D01*
G75*
G02*
X155883000Y-82329000I200000J0D01*
G01*
X156283000Y-82329000D01*
G75*
G02*
X156483000Y-82529000I0J-200000D01*
G01*
X156483000Y-83079000D01*
G75*
G02*
X156283000Y-83279000I-200000J0D01*
G01*
X155883000Y-83279000D01*
G75*
G02*
X155683000Y-83079000I0J200000D01*
G01*
G37*
%TD.AperFunction*%
%TD*%
%TO.P,R17,2*%
%TO.N,-BATT*%
%TA.AperFunction,SMDPad,CuDef*%
G36*
G01*
X152800000Y-96499000D02*
X152800000Y-97049000D01*
G75*
G02*
X152600000Y-97249000I-200000J0D01*
G01*
X152200000Y-97249000D01*
G75*
G02*
X152000000Y-97049000I0J200000D01*
G01*
X152000000Y-96499000D01*
G75*
G02*
X152200000Y-96299000I200000J0D01*
G01*
X152600000Y-96299000D01*
G75*
G02*
X152800000Y-96499000I0J-200000D01*
G01*
G37*
%TD.AperFunction*%
%TO.P,R17,1*%
%TO.N,Net-(R17-Pad1)*%
%TA.AperFunction,SMDPad,CuDef*%
G36*
G01*
X154450000Y-96499000D02*
X154450000Y-97049000D01*
G75*
G02*
X154250000Y-97249000I-200000J0D01*
G01*
X153850000Y-97249000D01*
G75*
G02*
X153650000Y-97049000I0J200000D01*
G01*
X153650000Y-96499000D01*
G75*
G02*
X153850000Y-96299000I200000J0D01*
G01*
X154250000Y-96299000D01*
G75*
G02*
X154450000Y-96499000I0J-200000D01*
G01*
G37*
%TD.AperFunction*%
%TD*%
D22*
%TO.P,SW1,1*%
%TO.N,SW*%
X151182000Y-62447000D03*
%TO.P,SW1,2*%
%TO.N,-BATT*%
X141022000Y-62447000D03*
%TO.P,SW1,3*%
%TO.N,latch*%
X146102000Y-62447000D03*
%TD*%
D23*
%TO.P,U3,1*%
%TO.N,Net-(D8-Pad2)*%
X158938000Y-88138000D03*
%TO.P,U3,2*%
%TO.N,-BATT*%
X157988000Y-88138000D03*
%TO.P,U3,3*%
%TO.N,Net-(C8-Pad1)*%
X157038000Y-88138000D03*
%TO.P,U3,4*%
%TO.N,+BATT*%
X157038000Y-90338000D03*
%TO.P,U3,5*%
X158938000Y-90338000D03*
%TD*%
%TO.P,U4,1*%
%TO.N,-BATT*%
%TA.AperFunction,SMDPad,CuDef*%
G36*
G01*
X155342000Y-95654000D02*
X155342000Y-95354000D01*
G75*
G02*
X155492000Y-95204000I150000J0D01*
G01*
X156842000Y-95204000D01*
G75*
G02*
X156992000Y-95354000I0J-150000D01*
G01*
X156992000Y-95654000D01*
G75*
G02*
X156842000Y-95804000I-150000J0D01*
G01*
X155492000Y-95804000D01*
G75*
G02*
X155342000Y-95654000I0J150000D01*
G01*
G37*
%TD.AperFunction*%
%TO.P,U4,2*%
%TO.N,Net-(R17-Pad1)*%
%TA.AperFunction,SMDPad,CuDef*%
G36*
G01*
X155342000Y-96924000D02*
X155342000Y-96624000D01*
G75*
G02*
X155492000Y-96474000I150000J0D01*
G01*
X156842000Y-96474000D01*
G75*
G02*
X156992000Y-96624000I0J-150000D01*
G01*
X156992000Y-96924000D01*
G75*
G02*
X156842000Y-97074000I-150000J0D01*
G01*
X155492000Y-97074000D01*
G75*
G02*
X155342000Y-96924000I0J150000D01*
G01*
G37*
%TD.AperFunction*%
%TO.P,U4,3*%
%TO.N,-BATT*%
%TA.AperFunction,SMDPad,CuDef*%
G36*
G01*
X155342000Y-98194000D02*
X155342000Y-97894000D01*
G75*
G02*
X155492000Y-97744000I150000J0D01*
G01*
X156842000Y-97744000D01*
G75*
G02*
X156992000Y-97894000I0J-150000D01*
G01*
X156992000Y-98194000D01*
G75*
G02*
X156842000Y-98344000I-150000J0D01*
G01*
X155492000Y-98344000D01*
G75*
G02*
X155342000Y-98194000I0J150000D01*
G01*
G37*
%TD.AperFunction*%
%TO.P,U4,4*%
%TO.N,VBUS*%
%TA.AperFunction,SMDPad,CuDef*%
G36*
G01*
X155342000Y-99464000D02*
X155342000Y-99164000D01*
G75*
G02*
X155492000Y-99014000I150000J0D01*
G01*
X156842000Y-99014000D01*
G75*
G02*
X156992000Y-99164000I0J-150000D01*
G01*
X156992000Y-99464000D01*
G75*
G02*
X156842000Y-99614000I-150000J0D01*
G01*
X155492000Y-99614000D01*
G75*
G02*
X155342000Y-99464000I0J150000D01*
G01*
G37*
%TD.AperFunction*%
%TO.P,U4,5*%
%TO.N,+BATT*%
%TA.AperFunction,SMDPad,CuDef*%
G36*
G01*
X160592000Y-99464000D02*
X160592000Y-99164000D01*
G75*
G02*
X160742000Y-99014000I150000J0D01*
G01*
X162092000Y-99014000D01*
G75*
G02*
X162242000Y-99164000I0J-150000D01*
G01*
X162242000Y-99464000D01*
G75*
G02*
X162092000Y-99614000I-150000J0D01*
G01*
X160742000Y-99614000D01*
G75*
G02*
X160592000Y-99464000I0J150000D01*
G01*
G37*
%TD.AperFunction*%
%TO.P,U4,6*%
%TO.N,Net-(D7-Pad1)*%
%TA.AperFunction,SMDPad,CuDef*%
G36*
G01*
X160592000Y-98194000D02*
X160592000Y-97894000D01*
G75*
G02*
X160742000Y-97744000I150000J0D01*
G01*
X162092000Y-97744000D01*
G75*
G02*
X162242000Y-97894000I0J-150000D01*
G01*
X162242000Y-98194000D01*
G75*
G02*
X162092000Y-98344000I-150000J0D01*
G01*
X160742000Y-98344000D01*
G75*
G02*
X160592000Y-98194000I0J150000D01*
G01*
G37*
%TD.AperFunction*%
%TO.P,U4,7*%
%TO.N,/~CHRG*%
%TA.AperFunction,SMDPad,CuDef*%
G36*
G01*
X160592000Y-96924000D02*
X160592000Y-96624000D01*
G75*
G02*
X160742000Y-96474000I150000J0D01*
G01*
X162092000Y-96474000D01*
G75*
G02*
X162242000Y-96624000I0J-150000D01*
G01*
X162242000Y-96924000D01*
G75*
G02*
X162092000Y-97074000I-150000J0D01*
G01*
X160742000Y-97074000D01*
G75*
G02*
X160592000Y-96924000I0J150000D01*
G01*
G37*
%TD.AperFunction*%
%TO.P,U4,8*%
%TO.N,VBUS*%
%TA.AperFunction,SMDPad,CuDef*%
G36*
G01*
X160592000Y-95654000D02*
X160592000Y-95354000D01*
G75*
G02*
X160742000Y-95204000I150000J0D01*
G01*
X162092000Y-95204000D01*
G75*
G02*
X162242000Y-95354000I0J-150000D01*
G01*
X162242000Y-95654000D01*
G75*
G02*
X162092000Y-95804000I-150000J0D01*
G01*
X160742000Y-95804000D01*
G75*
G02*
X160592000Y-95654000I0J150000D01*
G01*
G37*
%TD.AperFunction*%
%TD*%
%TO.P,U6,8*%
%TO.N,Net-(C8-Pad2)*%
%TA.AperFunction,SMDPad,CuDef*%
G36*
G01*
X160251000Y-78635000D02*
X160551000Y-78635000D01*
G75*
G02*
X160701000Y-78785000I0J-150000D01*
G01*
X160701000Y-80135000D01*
G75*
G02*
X160551000Y-80285000I-150000J0D01*
G01*
X160251000Y-80285000D01*
G75*
G02*
X160101000Y-80135000I0J150000D01*
G01*
X160101000Y-78785000D01*
G75*
G02*
X160251000Y-78635000I150000J0D01*
G01*
G37*
%TD.AperFunction*%
%TO.P,U6,7*%
%TA.AperFunction,SMDPad,CuDef*%
G36*
G01*
X158981000Y-78635000D02*
X159281000Y-78635000D01*
G75*
G02*
X159431000Y-78785000I0J-150000D01*
G01*
X159431000Y-80135000D01*
G75*
G02*
X159281000Y-80285000I-150000J0D01*
G01*
X158981000Y-80285000D01*
G75*
G02*
X158831000Y-80135000I0J150000D01*
G01*
X158831000Y-78785000D01*
G75*
G02*
X158981000Y-78635000I150000J0D01*
G01*
G37*
%TD.AperFunction*%
%TO.P,U6,6*%
%TO.N,N/C*%
%TA.AperFunction,SMDPad,CuDef*%
G36*
G01*
X157711000Y-78635000D02*
X158011000Y-78635000D01*
G75*
G02*
X158161000Y-78785000I0J-150000D01*
G01*
X158161000Y-80135000D01*
G75*
G02*
X158011000Y-80285000I-150000J0D01*
G01*
X157711000Y-80285000D01*
G75*
G02*
X157561000Y-80135000I0J150000D01*
G01*
X157561000Y-78785000D01*
G75*
G02*
X157711000Y-78635000I150000J0D01*
G01*
G37*
%TD.AperFunction*%
%TO.P,U6,5*%
%TA.AperFunction,SMDPad,CuDef*%
G36*
G01*
X156441000Y-78635000D02*
X156741000Y-78635000D01*
G75*
G02*
X156891000Y-78785000I0J-150000D01*
G01*
X156891000Y-80135000D01*
G75*
G02*
X156741000Y-80285000I-150000J0D01*
G01*
X156441000Y-80285000D01*
G75*
G02*
X156291000Y-80135000I0J150000D01*
G01*
X156291000Y-78785000D01*
G75*
G02*
X156441000Y-78635000I150000J0D01*
G01*
G37*
%TD.AperFunction*%
%TO.P,U6,4*%
%TA.AperFunction,SMDPad,CuDef*%
G36*
G01*
X156441000Y-73385000D02*
X156741000Y-73385000D01*
G75*
G02*
X156891000Y-73535000I0J-150000D01*
G01*
X156891000Y-74885000D01*
G75*
G02*
X156741000Y-75035000I-150000J0D01*
G01*
X156441000Y-75035000D01*
G75*
G02*
X156291000Y-74885000I0J150000D01*
G01*
X156291000Y-73535000D01*
G75*
G02*
X156441000Y-73385000I150000J0D01*
G01*
G37*
%TD.AperFunction*%
%TO.P,U6,3*%
%TA.AperFunction,SMDPad,CuDef*%
G36*
G01*
X157711000Y-73385000D02*
X158011000Y-73385000D01*
G75*
G02*
X158161000Y-73535000I0J-150000D01*
G01*
X158161000Y-74885000D01*
G75*
G02*
X158011000Y-75035000I-150000J0D01*
G01*
X157711000Y-75035000D01*
G75*
G02*
X157561000Y-74885000I0J150000D01*
G01*
X157561000Y-73535000D01*
G75*
G02*
X157711000Y-73385000I150000J0D01*
G01*
G37*
%TD.AperFunction*%
%TO.P,U6,2*%
%TO.N,latch*%
%TA.AperFunction,SMDPad,CuDef*%
G36*
G01*
X158981000Y-73385000D02*
X159281000Y-73385000D01*
G75*
G02*
X159431000Y-73535000I0J-150000D01*
G01*
X159431000Y-74885000D01*
G75*
G02*
X159281000Y-75035000I-150000J0D01*
G01*
X158981000Y-75035000D01*
G75*
G02*
X158831000Y-74885000I0J150000D01*
G01*
X158831000Y-73535000D01*
G75*
G02*
X158981000Y-73385000I150000J0D01*
G01*
G37*
%TD.AperFunction*%
%TO.P,U6,1*%
%TO.N,+5V*%
%TA.AperFunction,SMDPad,CuDef*%
G36*
G01*
X160251000Y-73385000D02*
X160551000Y-73385000D01*
G75*
G02*
X160701000Y-73535000I0J-150000D01*
G01*
X160701000Y-74885000D01*
G75*
G02*
X160551000Y-75035000I-150000J0D01*
G01*
X160251000Y-75035000D01*
G75*
G02*
X160101000Y-74885000I0J150000D01*
G01*
X160101000Y-73535000D01*
G75*
G02*
X160251000Y-73385000I150000J0D01*
G01*
G37*
%TD.AperFunction*%
%TD*%
%TA.AperFunction,SMDPad,CuDef*%
D24*
%TO.P,Y1,1*%
%TO.N,Net-(C2-Pad1)*%
G36*
X135863097Y-93381488D02*
G01*
X135014569Y-94230016D01*
X134024619Y-93240066D01*
X134873147Y-92391538D01*
X135863097Y-93381488D01*
G37*
%TD.AperFunction*%
%TA.AperFunction,SMDPad,CuDef*%
%TO.P,Y1,2*%
%TO.N,-BATT*%
G36*
X134307462Y-91825853D02*
G01*
X133458934Y-92674381D01*
X132468984Y-91684431D01*
X133317512Y-90835903D01*
X134307462Y-91825853D01*
G37*
%TD.AperFunction*%
%TA.AperFunction,SMDPad,CuDef*%
%TO.P,Y1,3*%
%TO.N,Net-(C3-Pad2)*%
G36*
X133105381Y-93027934D02*
G01*
X132256853Y-93876462D01*
X131266903Y-92886512D01*
X132115431Y-92037984D01*
X133105381Y-93027934D01*
G37*
%TD.AperFunction*%
%TA.AperFunction,SMDPad,CuDef*%
%TO.P,Y1,4*%
%TO.N,-BATT*%
G36*
X134661016Y-94583569D02*
G01*
X133812488Y-95432097D01*
X132822538Y-94442147D01*
X133671066Y-93593619D01*
X134661016Y-94583569D01*
G37*
%TD.AperFunction*%
%TD*%
%TO.P,U5,1*%
%TO.N,A1*%
%TA.AperFunction,SMDPad,CuDef*%
G36*
G01*
X132629000Y-97686000D02*
X132629000Y-97386000D01*
G75*
G02*
X132779000Y-97236000I150000J0D01*
G01*
X134429000Y-97236000D01*
G75*
G02*
X134579000Y-97386000I0J-150000D01*
G01*
X134579000Y-97686000D01*
G75*
G02*
X134429000Y-97836000I-150000J0D01*
G01*
X132779000Y-97836000D01*
G75*
G02*
X132629000Y-97686000I0J150000D01*
G01*
G37*
%TD.AperFunction*%
%TO.P,U5,2*%
%TA.AperFunction,SMDPad,CuDef*%
G36*
G01*
X132629000Y-98956000D02*
X132629000Y-98656000D01*
G75*
G02*
X132779000Y-98506000I150000J0D01*
G01*
X134429000Y-98506000D01*
G75*
G02*
X134579000Y-98656000I0J-150000D01*
G01*
X134579000Y-98956000D01*
G75*
G02*
X134429000Y-99106000I-150000J0D01*
G01*
X132779000Y-99106000D01*
G75*
G02*
X132629000Y-98956000I0J150000D01*
G01*
G37*
%TD.AperFunction*%
%TO.P,U5,3*%
%TO.N,+BATT*%
%TA.AperFunction,SMDPad,CuDef*%
G36*
G01*
X132629000Y-100226000D02*
X132629000Y-99926000D01*
G75*
G02*
X132779000Y-99776000I150000J0D01*
G01*
X134429000Y-99776000D01*
G75*
G02*
X134579000Y-99926000I0J-150000D01*
G01*
X134579000Y-100226000D01*
G75*
G02*
X134429000Y-100376000I-150000J0D01*
G01*
X132779000Y-100376000D01*
G75*
G02*
X132629000Y-100226000I0J150000D01*
G01*
G37*
%TD.AperFunction*%
%TO.P,U5,4*%
%TO.N,-BATT*%
%TA.AperFunction,SMDPad,CuDef*%
G36*
G01*
X132629000Y-101496000D02*
X132629000Y-101196000D01*
G75*
G02*
X132779000Y-101046000I150000J0D01*
G01*
X134429000Y-101046000D01*
G75*
G02*
X134579000Y-101196000I0J-150000D01*
G01*
X134579000Y-101496000D01*
G75*
G02*
X134429000Y-101646000I-150000J0D01*
G01*
X132779000Y-101646000D01*
G75*
G02*
X132629000Y-101496000I0J150000D01*
G01*
G37*
%TD.AperFunction*%
%TO.P,U5,5*%
%TO.N,N/C*%
%TA.AperFunction,SMDPad,CuDef*%
G36*
G01*
X137579000Y-101496000D02*
X137579000Y-101196000D01*
G75*
G02*
X137729000Y-101046000I150000J0D01*
G01*
X139379000Y-101046000D01*
G75*
G02*
X139529000Y-101196000I0J-150000D01*
G01*
X139529000Y-101496000D01*
G75*
G02*
X139379000Y-101646000I-150000J0D01*
G01*
X137729000Y-101646000D01*
G75*
G02*
X137579000Y-101496000I0J150000D01*
G01*
G37*
%TD.AperFunction*%
%TO.P,U5,6*%
%TA.AperFunction,SMDPad,CuDef*%
G36*
G01*
X137579000Y-100226000D02*
X137579000Y-99926000D01*
G75*
G02*
X137729000Y-99776000I150000J0D01*
G01*
X139379000Y-99776000D01*
G75*
G02*
X139529000Y-99926000I0J-150000D01*
G01*
X139529000Y-100226000D01*
G75*
G02*
X139379000Y-100376000I-150000J0D01*
G01*
X137729000Y-100376000D01*
G75*
G02*
X137579000Y-100226000I0J150000D01*
G01*
G37*
%TD.AperFunction*%
%TO.P,U5,7*%
%TA.AperFunction,SMDPad,CuDef*%
G36*
G01*
X137579000Y-98956000D02*
X137579000Y-98656000D01*
G75*
G02*
X137729000Y-98506000I150000J0D01*
G01*
X139379000Y-98506000D01*
G75*
G02*
X139529000Y-98656000I0J-150000D01*
G01*
X139529000Y-98956000D01*
G75*
G02*
X139379000Y-99106000I-150000J0D01*
G01*
X137729000Y-99106000D01*
G75*
G02*
X137579000Y-98956000I0J150000D01*
G01*
G37*
%TD.AperFunction*%
%TO.P,U5,8*%
%TO.N,+5V*%
%TA.AperFunction,SMDPad,CuDef*%
G36*
G01*
X137579000Y-97686000D02*
X137579000Y-97386000D01*
G75*
G02*
X137729000Y-97236000I150000J0D01*
G01*
X139379000Y-97236000D01*
G75*
G02*
X139529000Y-97386000I0J-150000D01*
G01*
X139529000Y-97686000D01*
G75*
G02*
X139379000Y-97836000I-150000J0D01*
G01*
X137729000Y-97836000D01*
G75*
G02*
X137579000Y-97686000I0J150000D01*
G01*
G37*
%TD.AperFunction*%
%TD*%
D25*
%TO.P,U2,1*%
%TO.N,Net-(U2-Pad1)*%
X127015000Y-79058000D03*
%TO.P,U2,2*%
%TO.N,+5V*%
X127015000Y-79858000D03*
%TO.P,U2,3*%
%TO.N,D-*%
X127015000Y-80658000D03*
%TO.P,U2,4*%
%TO.N,D+*%
X127015000Y-81458000D03*
%TO.P,U2,5*%
%TO.N,-BATT*%
X127015000Y-82258000D03*
%TO.P,U2,6*%
%TO.N,Net-(C4-Pad2)*%
X127015000Y-83058000D03*
%TO.P,U2,7*%
%TO.N,VBUS*%
X127015000Y-83858000D03*
%TO.P,U2,8*%
%TO.N,Net-(U2-Pad8)*%
X127015000Y-84658000D03*
%TO.P,U2,9*%
%TO.N,Net-(U2-Pad9)*%
X127015000Y-85458000D03*
%TO.P,U2,10*%
%TO.N,Net-(U2-Pad10)*%
X127015000Y-86258000D03*
%TO.P,U2,11*%
%TO.N,Net-(U2-Pad11)*%
X127015000Y-87058000D03*
D26*
%TO.P,U2,12*%
%TO.N,Net-(U2-Pad12)*%
X128715000Y-88758000D03*
%TO.P,U2,13*%
%TO.N,~RESET*%
X129515000Y-88758000D03*
%TO.P,U2,14*%
%TO.N,+5V*%
X130315000Y-88758000D03*
%TO.P,U2,15*%
%TO.N,-BATT*%
X131115000Y-88758000D03*
%TO.P,U2,16*%
%TO.N,Net-(C3-Pad2)*%
X131915000Y-88758000D03*
%TO.P,U2,17*%
%TO.N,Net-(C2-Pad1)*%
X132715000Y-88758000D03*
%TO.P,U2,18*%
%TO.N,Net-(U2-Pad18)*%
X133515000Y-88758000D03*
%TO.P,U2,19*%
%TO.N,Net-(U2-Pad19)*%
X134315000Y-88758000D03*
%TO.P,U2,20*%
%TO.N,RX*%
X135115000Y-88758000D03*
%TO.P,U2,21*%
%TO.N,TX*%
X135915000Y-88758000D03*
%TO.P,U2,22*%
%TO.N,latch*%
X136715000Y-88758000D03*
D25*
%TO.P,U2,23*%
%TO.N,-BATT*%
X138415000Y-87058000D03*
%TO.P,U2,24*%
%TO.N,+5V*%
X138415000Y-86258000D03*
%TO.P,U2,25*%
%TO.N,SW*%
X138415000Y-85458000D03*
%TO.P,U2,26*%
%TO.N,latch_2*%
X138415000Y-84658000D03*
%TO.P,U2,27*%
%TO.N,Net-(U2-Pad27)*%
X138415000Y-83858000D03*
%TO.P,U2,28*%
%TO.N,Net-(U2-Pad28)*%
X138415000Y-83058000D03*
%TO.P,U2,29*%
%TO.N,Net-(U2-Pad29)*%
X138415000Y-82258000D03*
%TO.P,U2,30*%
%TO.N,Net-(U2-Pad30)*%
X138415000Y-81458000D03*
%TO.P,U2,31*%
%TO.N,Net-(U2-Pad31)*%
X138415000Y-80658000D03*
%TO.P,U2,32*%
%TO.N,Net-(U2-Pad32)*%
X138415000Y-79858000D03*
%TO.P,U2,33*%
%TO.N,Net-(U2-Pad33)*%
X138415000Y-79058000D03*
D26*
%TO.P,U2,34*%
%TO.N,+5V*%
X136715000Y-77358000D03*
%TO.P,U2,35*%
%TO.N,-BATT*%
X135915000Y-77358000D03*
%TO.P,U2,36*%
%TO.N,A0*%
X135115000Y-77358000D03*
%TO.P,U2,37*%
%TO.N,A1*%
X134315000Y-77358000D03*
%TO.P,U2,38*%
%TO.N,Net-(U2-Pad38)*%
X133515000Y-77358000D03*
%TO.P,U2,39*%
%TO.N,Net-(U2-Pad39)*%
X132715000Y-77358000D03*
%TO.P,U2,40*%
%TO.N,SDA*%
X131915000Y-77358000D03*
%TO.P,U2,41*%
%TO.N,SCLK*%
X131115000Y-77358000D03*
%TO.P,U2,42*%
%TO.N,Net-(C5-Pad2)*%
X130315000Y-77358000D03*
%TO.P,U2,43*%
%TO.N,-BATT*%
X129515000Y-77358000D03*
%TO.P,U2,44*%
%TO.N,+5V*%
X128715000Y-77358000D03*
D27*
%TO.P,U2,45*%
%TO.N,-BATT*%
X132715000Y-83058000D03*
%TD*%
%TO.P,C8,1*%
%TO.N,Net-(C8-Pad1)*%
%TA.AperFunction,SMDPad,CuDef*%
G36*
G01*
X154574000Y-86403000D02*
X154574000Y-86063000D01*
G75*
G02*
X154714000Y-85923000I140000J0D01*
G01*
X154994000Y-85923000D01*
G75*
G02*
X155134000Y-86063000I0J-140000D01*
G01*
X155134000Y-86403000D01*
G75*
G02*
X154994000Y-86543000I-140000J0D01*
G01*
X154714000Y-86543000D01*
G75*
G02*
X154574000Y-86403000I0J140000D01*
G01*
G37*
%TD.AperFunction*%
%TO.P,C8,2*%
%TO.N,Net-(C8-Pad2)*%
%TA.AperFunction,SMDPad,CuDef*%
G36*
G01*
X155534000Y-86403000D02*
X155534000Y-86063000D01*
G75*
G02*
X155674000Y-85923000I140000J0D01*
G01*
X155954000Y-85923000D01*
G75*
G02*
X156094000Y-86063000I0J-140000D01*
G01*
X156094000Y-86403000D01*
G75*
G02*
X155954000Y-86543000I-140000J0D01*
G01*
X155674000Y-86543000D01*
G75*
G02*
X155534000Y-86403000I0J140000D01*
G01*
G37*
%TD.AperFunction*%
%TD*%
D28*
%TO.N,-BATT*%
X130556000Y-96647000D03*
X132969000Y-95504000D03*
X134747000Y-95504000D03*
X132461000Y-90678000D03*
X136525000Y-96012000D03*
X157734000Y-113411000D03*
X149860000Y-134874000D03*
X150241000Y-139573000D03*
X142748000Y-139446000D03*
X127635000Y-75946000D03*
X133858000Y-75565000D03*
X135763000Y-81788000D03*
X134493000Y-85979000D03*
X131318000Y-86106000D03*
X135636000Y-84328000D03*
X140462000Y-89154000D03*
X161671000Y-70866000D03*
X125476000Y-77216000D03*
X125222000Y-81153000D03*
X124460000Y-88392000D03*
X131064000Y-90297000D03*
X142748000Y-135001000D03*
X158750000Y-93599000D03*
X155575000Y-94361000D03*
X154559000Y-98425000D03*
X152019000Y-97917000D03*
X153670000Y-89027000D03*
X157988000Y-89408000D03*
X160528000Y-83439000D03*
X156464000Y-81788000D03*
X138684000Y-88138000D03*
X132270500Y-102108000D03*
%TO.N,+5V*%
X138049000Y-75057000D03*
X126244223Y-77856186D03*
X127748151Y-76975848D03*
X133350000Y-78994000D03*
X136969500Y-78650000D03*
X138938000Y-96329500D03*
X142938500Y-96329500D03*
%TO.N,D-*%
X126628768Y-109654732D03*
X128562163Y-80503275D03*
X129459500Y-72771000D03*
%TO.N,D+*%
X127371232Y-108912268D03*
X129304627Y-81245739D03*
X130509500Y-72771000D03*
%TO.N,latch*%
X138239500Y-90170000D03*
X143002000Y-90043000D03*
%TO.N,latch_2*%
X140652500Y-84328000D03*
X144081500Y-84137500D03*
X152527000Y-70294500D03*
X154608153Y-69927847D03*
%TO.N,SW*%
X140589000Y-85407500D03*
X143446500Y-85661500D03*
%TO.N,A0*%
X143827500Y-79375000D03*
X135572500Y-79438500D03*
%TO.N,+BATT*%
X149606000Y-102997000D03*
%TD*%
D29*
%TO.N,-BATT*%
X132461000Y-90827919D02*
X133388223Y-91755142D01*
X132461000Y-90678000D02*
X132461000Y-90827919D01*
X133741777Y-94731223D02*
X132969000Y-95504000D01*
X133741777Y-94512858D02*
X133741777Y-94731223D01*
X133755858Y-94512858D02*
X134747000Y-95504000D01*
X133741777Y-94512858D02*
X133755858Y-94512858D01*
X130556000Y-95885000D02*
X130175000Y-95504000D01*
X130556000Y-96647000D02*
X130556000Y-95885000D01*
X161671000Y-70231000D02*
X161290000Y-69850000D01*
X161671000Y-70866000D02*
X161671000Y-70231000D01*
X134620000Y-75565000D02*
X135001000Y-75184000D01*
X133858000Y-75565000D02*
X134620000Y-75565000D01*
X135915000Y-76098000D02*
X135915000Y-77358000D01*
X135001000Y-75184000D02*
X135915000Y-76098000D01*
X128524000Y-75057000D02*
X127635000Y-75946000D01*
X128625000Y-75057000D02*
X128524000Y-75057000D01*
X128625000Y-75468000D02*
X128625000Y-75057000D01*
X129515000Y-76358000D02*
X128625000Y-75468000D01*
X129515000Y-77358000D02*
X129515000Y-76358000D01*
X124841000Y-77851000D02*
X125476000Y-77216000D01*
X125006000Y-82258000D02*
X124841000Y-82423000D01*
X127015000Y-82258000D02*
X125006000Y-82258000D01*
X124841000Y-81534000D02*
X125222000Y-81153000D01*
X124841000Y-82423000D02*
X124841000Y-81534000D01*
X124841000Y-88011000D02*
X124460000Y-88392000D01*
X124841000Y-87249000D02*
X124841000Y-88011000D01*
X124040990Y-80537675D02*
X124040990Y-79006010D01*
X124040990Y-79006010D02*
X124841000Y-78206000D01*
X124656315Y-81153000D02*
X124040990Y-80537675D01*
X125222000Y-81153000D02*
X124656315Y-81153000D01*
X131115000Y-90246000D02*
X131064000Y-90297000D01*
X131115000Y-88758000D02*
X131115000Y-90246000D01*
X137033000Y-95504000D02*
X136525000Y-96012000D01*
X137541000Y-95504000D02*
X137033000Y-95504000D01*
X157734000Y-113158000D02*
X158497000Y-112395000D01*
X157734000Y-113411000D02*
X157734000Y-113158000D01*
X143102000Y-139800000D02*
X142748000Y-139446000D01*
X143102000Y-140665000D02*
X143102000Y-139800000D01*
X149502000Y-140312000D02*
X150241000Y-139573000D01*
X149502000Y-140665000D02*
X149502000Y-140312000D01*
X142748000Y-135128000D02*
X143510000Y-135890000D01*
X142748000Y-135001000D02*
X142748000Y-135128000D01*
X149098000Y-135636000D02*
X149860000Y-134874000D01*
X149098000Y-135890000D02*
X149098000Y-135636000D01*
X156167000Y-94953000D02*
X155575000Y-94361000D01*
X156167000Y-95504000D02*
X156167000Y-94953000D01*
X159486000Y-93599000D02*
X159867000Y-93218000D01*
X158750000Y-93599000D02*
X159486000Y-93599000D01*
X155786000Y-98425000D02*
X156167000Y-98044000D01*
X154559000Y-98425000D02*
X155786000Y-98425000D01*
X152019000Y-97155000D02*
X152400000Y-96774000D01*
X152019000Y-97917000D02*
X152019000Y-97155000D01*
X157988000Y-88138000D02*
X157988000Y-89408000D01*
X153823000Y-88874000D02*
X153670000Y-89027000D01*
X154813000Y-88874000D02*
X153823000Y-88874000D01*
X159398000Y-83439000D02*
X160528000Y-83439000D01*
X156083000Y-82169000D02*
X156464000Y-81788000D01*
X156083000Y-82804000D02*
X156083000Y-82169000D01*
X140462000Y-89154000D02*
X140462000Y-88037000D01*
X138415000Y-87869000D02*
X138684000Y-88138000D01*
X138415000Y-87058000D02*
X138415000Y-87869000D01*
X131318000Y-84455000D02*
X132715000Y-83058000D01*
X131318000Y-86106000D02*
X131318000Y-84455000D01*
X132715000Y-84201000D02*
X134493000Y-85979000D01*
X132715000Y-83058000D02*
X132715000Y-84201000D01*
X133985000Y-84328000D02*
X132715000Y-83058000D01*
X135636000Y-84328000D02*
X133985000Y-84328000D01*
X133985000Y-81788000D02*
X132715000Y-83058000D01*
X135763000Y-81788000D02*
X133985000Y-81788000D01*
X133032500Y-101346000D02*
X132270500Y-102108000D01*
X133604000Y-101346000D02*
X133032500Y-101346000D01*
%TO.N,VBUS*%
X126900000Y-83973000D02*
X127015000Y-83858000D01*
X124841000Y-83973000D02*
X126900000Y-83973000D01*
X143902000Y-141330002D02*
X143902000Y-140665000D01*
X144592009Y-142020011D02*
X143902000Y-141330002D01*
X148011991Y-142020011D02*
X144592009Y-142020011D01*
X148702000Y-141330002D02*
X148011991Y-142020011D01*
X148702000Y-140665000D02*
X148702000Y-141330002D01*
X161417000Y-95504000D02*
X163449000Y-95504000D01*
X163449000Y-95504000D02*
X163449000Y-93726000D01*
X161925000Y-93726000D02*
X161417000Y-93218000D01*
X163449000Y-93726000D02*
X161925000Y-93726000D01*
X157380232Y-99314000D02*
X156167000Y-99314000D01*
X161190232Y-95504000D02*
X157380232Y-99314000D01*
X161417000Y-95504000D02*
X161190232Y-95504000D01*
X164439010Y-127264992D02*
X164439010Y-107586010D01*
X158946001Y-132758001D02*
X164439010Y-127264992D01*
X155982997Y-132758001D02*
X158946001Y-132758001D01*
X148702000Y-140038998D02*
X155982997Y-132758001D01*
X164439010Y-107586010D02*
X156167000Y-99314000D01*
X148702000Y-140665000D02*
X148702000Y-140038998D01*
X125641010Y-84773010D02*
X124841000Y-83973000D01*
X125641010Y-87294012D02*
X125641010Y-84773010D01*
X125978001Y-89756001D02*
X125978001Y-87631003D01*
X125978001Y-87631003D02*
X125641010Y-87294012D01*
X125824999Y-89909003D02*
X125978001Y-89756001D01*
X125824999Y-105593001D02*
X125824999Y-89909003D01*
X152989999Y-132758001D02*
X125824999Y-105593001D01*
X155982997Y-132758001D02*
X152989999Y-132758001D01*
X126909999Y-71464001D02*
X128905000Y-69469000D01*
X126909999Y-77210698D02*
X126909999Y-71464001D01*
X130029628Y-80330327D02*
X126909999Y-77210698D01*
X128015000Y-83858000D02*
X130029628Y-81843372D01*
X130029628Y-81843372D02*
X130029628Y-80330327D01*
X127015000Y-83858000D02*
X128015000Y-83858000D01*
%TO.N,Net-(C2-Pad1)*%
X134943858Y-91986858D02*
X134943858Y-93310777D01*
X132715000Y-89758000D02*
X134943858Y-91986858D01*
X132715000Y-88758000D02*
X132715000Y-89758000D01*
X136897777Y-93310777D02*
X137541000Y-93954000D01*
X134943858Y-93310777D02*
X136897777Y-93310777D01*
%TO.N,Net-(C3-Pad2)*%
X131171777Y-92957223D02*
X130175000Y-93954000D01*
X132186142Y-92957223D02*
X131171777Y-92957223D01*
X131915000Y-89758000D02*
X131915000Y-88758000D01*
X131691167Y-89981833D02*
X131915000Y-89758000D01*
X131691167Y-92462248D02*
X131691167Y-89981833D01*
X132186142Y-92957223D02*
X131691167Y-92462248D01*
%TO.N,Net-(C4-Pad2)*%
X124363166Y-83198000D02*
X126875000Y-83198000D01*
X124841000Y-85699000D02*
X124040990Y-84898990D01*
X124040990Y-83520176D02*
X124363166Y-83198000D01*
X124040990Y-84898990D02*
X124040990Y-83520176D01*
X126875000Y-83198000D02*
X127015000Y-83058000D01*
%TO.N,Net-(C5-Pad2)*%
X130175000Y-77218000D02*
X130315000Y-77358000D01*
X130175000Y-75057000D02*
X130175000Y-77218000D01*
%TO.N,A1*%
X133604000Y-98806000D02*
X133604000Y-97536000D01*
X128640736Y-87132264D02*
X129402736Y-87132264D01*
X127925990Y-87847010D02*
X128640736Y-87132264D01*
X127925990Y-92957824D02*
X127925990Y-87847010D01*
X129697166Y-94729000D02*
X127925990Y-92957824D01*
X130797000Y-94729000D02*
X129697166Y-94729000D01*
X133604000Y-97536000D02*
X130797000Y-94729000D01*
X134315000Y-79254002D02*
X134315000Y-77358000D01*
X135224499Y-80163501D02*
X134315000Y-79254002D01*
X135726001Y-80163501D02*
X135224499Y-80163501D01*
X136488001Y-80925501D02*
X135726001Y-80163501D01*
X136488001Y-85057001D02*
X136488001Y-80925501D01*
X134412738Y-87132264D02*
X136488001Y-85057001D01*
X129402736Y-87132264D02*
X134412738Y-87132264D01*
%TO.N,Net-(C8-Pad2)*%
X156209000Y-86133000D02*
X156109000Y-86233000D01*
X156209000Y-84582000D02*
X156209000Y-86133000D01*
X157355000Y-86233000D02*
X157863000Y-85725000D01*
X156109000Y-86233000D02*
X157355000Y-86233000D01*
X156705000Y-84582000D02*
X157848000Y-83439000D01*
X156209000Y-84582000D02*
X156705000Y-84582000D01*
X159131000Y-79460000D02*
X160401000Y-79460000D01*
X160950000Y-79460000D02*
X162560000Y-77850000D01*
X160401000Y-79460000D02*
X160950000Y-79460000D01*
X159131000Y-82156000D02*
X157848000Y-83439000D01*
X159131000Y-79460000D02*
X159131000Y-82156000D01*
%TO.N,Net-(C8-Pad1)*%
X156464000Y-88138000D02*
X154559000Y-86233000D01*
X157038000Y-88138000D02*
X156464000Y-88138000D01*
X154559000Y-86233000D02*
X154559000Y-84582000D01*
X154559000Y-82930000D02*
X154433000Y-82804000D01*
X154559000Y-84582000D02*
X154559000Y-82930000D01*
%TO.N,+5V*%
X130315000Y-91172000D02*
X130301000Y-91186000D01*
X130315000Y-88758000D02*
X130315000Y-91172000D01*
X140233000Y-86258000D02*
X140462000Y-86487000D01*
X138415000Y-86258000D02*
X140233000Y-86258000D01*
X136715000Y-75348000D02*
X136551000Y-75184000D01*
X136715000Y-77358000D02*
X136715000Y-75348000D01*
X159216523Y-108552999D02*
X158168522Y-109601000D01*
X163378001Y-108552999D02*
X159216523Y-108552999D01*
X163989001Y-109163999D02*
X163378001Y-108552999D01*
X163989001Y-118712999D02*
X163989001Y-109163999D01*
X162814000Y-119888000D02*
X163989001Y-118712999D01*
X148248000Y-109601000D02*
X145030000Y-106383000D01*
X158168522Y-109601000D02*
X148248000Y-109601000D01*
X150887998Y-64262000D02*
X153670000Y-64262000D01*
X147647997Y-61021999D02*
X150887998Y-64262000D01*
X144300000Y-62139998D02*
X145417999Y-61021999D01*
X145417999Y-61021999D02*
X147647997Y-61021999D01*
X144300000Y-66675000D02*
X144300000Y-62139998D01*
X137922000Y-75184000D02*
X138049000Y-75057000D01*
X136551000Y-75184000D02*
X137922000Y-75184000D01*
X124943000Y-79858000D02*
X124841000Y-79756000D01*
X127015000Y-79858000D02*
X124943000Y-79858000D01*
X145030000Y-106383000D02*
X141986000Y-103339000D01*
X139661990Y-91784400D02*
X139661990Y-87287010D01*
X139661990Y-87287010D02*
X140462000Y-86487000D01*
X141986000Y-94108410D02*
X139661990Y-91784400D01*
X141986000Y-103339000D02*
X141986000Y-94108410D01*
X125641010Y-78459399D02*
X126244223Y-77856186D01*
X125641010Y-78955990D02*
X125641010Y-78459399D01*
X124841000Y-79756000D02*
X125641010Y-78955990D01*
X128332848Y-76975848D02*
X128715000Y-77358000D01*
X127748151Y-76975848D02*
X128332848Y-76975848D01*
X129351000Y-78994000D02*
X133350000Y-78994000D01*
X128715000Y-78358000D02*
X129351000Y-78994000D01*
X128715000Y-77358000D02*
X128715000Y-78358000D01*
X136969500Y-77612500D02*
X136715000Y-77358000D01*
X136969500Y-78650000D02*
X136969500Y-77612500D01*
X136969500Y-85622502D02*
X137604998Y-86258000D01*
X136969500Y-78650000D02*
X136969500Y-85622502D01*
X137604998Y-86258000D02*
X138415000Y-86258000D01*
X130680724Y-87582274D02*
X136280724Y-87582274D01*
X136280724Y-87582274D02*
X137604998Y-86258000D01*
X130315000Y-87947998D02*
X130680724Y-87582274D01*
X130315000Y-88758000D02*
X130315000Y-87947998D01*
X138554000Y-96713500D02*
X138938000Y-96329500D01*
X138554000Y-97536000D02*
X138554000Y-96713500D01*
X142938500Y-95060910D02*
X141986000Y-94108410D01*
X142938500Y-96329500D02*
X142938500Y-95060910D01*
X164651001Y-68424999D02*
X160488002Y-64262000D01*
X164651001Y-71245001D02*
X164651001Y-68424999D01*
X161686002Y-74210000D02*
X164651001Y-71245001D01*
X160488002Y-64262000D02*
X153670000Y-64262000D01*
X160401000Y-74210000D02*
X161686002Y-74210000D01*
%TO.N,Net-(D6-Pad2)*%
X165824010Y-96430990D02*
X165100000Y-97155000D01*
X165824010Y-94451010D02*
X165824010Y-96430990D01*
X165099000Y-93726000D02*
X165824010Y-94451010D01*
%TO.N,/~CHRG*%
X161798000Y-97155000D02*
X161417000Y-96774000D01*
X163525000Y-97155000D02*
X161798000Y-97155000D01*
%TO.N,Net-(D7-Pad1)*%
X162636000Y-98044000D02*
X163525000Y-98933000D01*
X161417000Y-98044000D02*
X162636000Y-98044000D01*
%TO.N,Net-(D7-Pad2)*%
X164337490Y-98170490D02*
X165100000Y-98933000D01*
X164337490Y-96265510D02*
X164337490Y-98170490D01*
X165099000Y-95504000D02*
X164337490Y-96265510D01*
%TO.N,Net-(D8-Pad2)*%
X160909000Y-88138000D02*
X161036000Y-88265000D01*
X158938000Y-88138000D02*
X160909000Y-88138000D01*
X161163000Y-88138000D02*
X161036000Y-88265000D01*
X161163000Y-85725000D02*
X161163000Y-88138000D01*
%TO.N,Net-(J1-PadS1)*%
X141982000Y-141245000D02*
X141982000Y-145415000D01*
X141982000Y-145415000D02*
X150622000Y-145415000D01*
X150622000Y-145415000D02*
X150622000Y-141245000D01*
%TO.N,Net-(J1-PadA7)*%
X145552000Y-137719334D02*
X145372666Y-137540000D01*
X145552000Y-140665000D02*
X145552000Y-137719334D01*
X146490999Y-139759999D02*
X146552000Y-139821000D01*
X145641999Y-139759999D02*
X146490999Y-139759999D01*
X145552000Y-139849998D02*
X145641999Y-139759999D01*
X146552000Y-139821000D02*
X146552000Y-140665000D01*
X145552000Y-140665000D02*
X145552000Y-139849998D01*
%TO.N,Net-(J1-PadA6)*%
X147052000Y-137723332D02*
X147235332Y-137540000D01*
X147052000Y-140665000D02*
X147052000Y-137723332D01*
X147052000Y-141480002D02*
X147052000Y-140665000D01*
X146962001Y-141570001D02*
X147052000Y-141480002D01*
X146141999Y-141570001D02*
X146962001Y-141570001D01*
X146052000Y-141480002D02*
X146141999Y-141570001D01*
X146052000Y-140665000D02*
X146052000Y-141480002D01*
%TO.N,Net-(J1-PadA5)*%
X145052000Y-139082000D02*
X145052000Y-140665000D01*
X143510000Y-137540000D02*
X145052000Y-139082000D01*
%TO.N,Net-(J1-PadB5)*%
X148052000Y-138586000D02*
X149098000Y-137540000D01*
X148052000Y-140665000D02*
X148052000Y-138586000D01*
D30*
%TO.N,D-*%
X146078999Y-128680698D02*
X127053033Y-109654732D01*
X146078999Y-135183667D02*
X146078999Y-128680698D01*
X127053033Y-109654732D02*
X126628768Y-109654732D01*
X145372666Y-135890000D02*
X146078999Y-135183667D01*
X128005001Y-80882999D02*
X127239999Y-80882999D01*
X128065001Y-80942999D02*
X128005001Y-80882999D01*
X128562163Y-80927540D02*
X128481703Y-81008000D01*
X127239999Y-80882999D02*
X127015000Y-80658000D01*
X128562163Y-80503275D02*
X128562163Y-80927540D01*
X128065001Y-81008000D02*
X128065001Y-80942999D01*
X128481703Y-81008000D02*
X128065001Y-81008000D01*
%TO.N,D+*%
X127371232Y-109336533D02*
X127371232Y-108912268D01*
X146528999Y-128494300D02*
X127371232Y-109336533D01*
X146528999Y-135183667D02*
X146528999Y-128494300D01*
X147235332Y-135890000D02*
X146528999Y-135183667D01*
X127365000Y-81458000D02*
X127015000Y-81458000D01*
X128668101Y-81458000D02*
X127365000Y-81458000D01*
X128880362Y-81245739D02*
X128668101Y-81458000D01*
X129304627Y-81245739D02*
X128880362Y-81245739D01*
D29*
X130509500Y-70404500D02*
X131445000Y-69469000D01*
X130509500Y-72771000D02*
X130509500Y-70404500D01*
%TO.N,SCLK*%
X147570000Y-98002998D02*
X142113000Y-92545998D01*
X147570000Y-106383000D02*
X147570000Y-98002998D01*
X142113000Y-92545998D02*
X142113000Y-76327000D01*
X142113000Y-76327000D02*
X139446000Y-73660000D01*
X131115000Y-75895000D02*
X131115000Y-77358000D01*
X133350000Y-73660000D02*
X131115000Y-75895000D01*
X139446000Y-73660000D02*
X133350000Y-73660000D01*
%TO.N,SDA*%
X141605000Y-76455410D02*
X139317590Y-74168000D01*
X134105000Y-74168000D02*
X131915000Y-76358000D01*
X131915000Y-76358000D02*
X131915000Y-77358000D01*
X139317590Y-74168000D02*
X134105000Y-74168000D01*
X146205001Y-97691001D02*
X141605000Y-93091000D01*
X148266793Y-108818795D02*
X146205001Y-106757003D01*
X148876286Y-108818795D02*
X148266793Y-108818795D01*
X146205001Y-106757003D02*
X146205001Y-97691001D01*
X150110000Y-107585081D02*
X148876286Y-108818795D01*
X150110000Y-106383000D02*
X150110000Y-107585081D01*
X141605000Y-93091000D02*
X141605000Y-76455410D01*
%TO.N,latch*%
X160296000Y-76200000D02*
X162560000Y-76200000D01*
X159131000Y-75035000D02*
X160296000Y-76200000D01*
X159131000Y-74210000D02*
X159131000Y-75035000D01*
X159131000Y-70959000D02*
X159290000Y-70800000D01*
X159131000Y-74210000D02*
X159131000Y-70959000D01*
X154455000Y-70800000D02*
X159290000Y-70800000D01*
X146102000Y-62447000D02*
X154455000Y-70800000D01*
X160081001Y-71591001D02*
X159290000Y-70800000D01*
X162469999Y-71591001D02*
X160081001Y-71591001D01*
X163576000Y-70485000D02*
X162469999Y-71591001D01*
X136827500Y-88758000D02*
X138239500Y-90170000D01*
X136715000Y-88758000D02*
X136827500Y-88758000D01*
X159131000Y-74479685D02*
X159131000Y-74210000D01*
X143567685Y-90043000D02*
X159131000Y-74479685D01*
X143002000Y-90043000D02*
X143567685Y-90043000D01*
%TO.N,latch_2*%
X156503010Y-69634010D02*
X155703000Y-68834000D01*
X160070988Y-69634010D02*
X156503010Y-69634010D01*
X160579999Y-69124999D02*
X160070988Y-69634010D01*
X163515999Y-69124999D02*
X160579999Y-69124999D01*
X163576000Y-69185000D02*
X163515999Y-69124999D01*
X140322500Y-84658000D02*
X140652500Y-84328000D01*
X138415000Y-84658000D02*
X140322500Y-84658000D01*
X152527000Y-75692000D02*
X152527000Y-70294500D01*
X144081500Y-84137500D02*
X152527000Y-75692000D01*
X154609153Y-69927847D02*
X155703000Y-68834000D01*
X154608153Y-69927847D02*
X154609153Y-69927847D01*
%TO.N,Net-(Q1-Pad1)*%
X157419000Y-68900000D02*
X157353000Y-68834000D01*
X159290000Y-68900000D02*
X157419000Y-68900000D01*
%TO.N,TX*%
X144857998Y-110490000D02*
X141097000Y-106729002D01*
X158497000Y-110490000D02*
X144857998Y-110490000D01*
X135915000Y-89568002D02*
X135915000Y-88758000D01*
X141097000Y-94750002D02*
X135915000Y-89568002D01*
X141097000Y-106729002D02*
X141097000Y-94750002D01*
%TO.N,Net-(R3-Pad1)*%
X162687000Y-112395000D02*
X162814000Y-112268000D01*
X160147000Y-112395000D02*
X162687000Y-112395000D01*
X160147000Y-110490000D02*
X160147000Y-112395000D01*
%TO.N,~RESET*%
X129515000Y-90322000D02*
X128651000Y-91186000D01*
X129515000Y-88758000D02*
X129515000Y-90322000D01*
%TO.N,SW*%
X151347000Y-62612000D02*
X151182000Y-62447000D01*
X153670000Y-62612000D02*
X151347000Y-62612000D01*
X140538500Y-85458000D02*
X140589000Y-85407500D01*
X138415000Y-85458000D02*
X140538500Y-85458000D01*
X149306989Y-60571989D02*
X151182000Y-62447000D01*
X145231599Y-60571989D02*
X149306989Y-60571989D01*
X142974999Y-62828589D02*
X145231599Y-60571989D01*
X142974999Y-85189999D02*
X142974999Y-62828589D01*
X143446500Y-85661500D02*
X142974999Y-85189999D01*
%TO.N,Net-(R17-Pad1)*%
X154050000Y-96774000D02*
X156167000Y-96774000D01*
%TO.N,A0*%
X148300000Y-74902500D02*
X143827500Y-79375000D01*
X148300000Y-66675000D02*
X148300000Y-74902500D01*
X135115000Y-78981000D02*
X135115000Y-77358000D01*
X135572500Y-79438500D02*
X135115000Y-78981000D01*
%TO.N,RX*%
X135115000Y-89758000D02*
X135115000Y-88758000D01*
X140335000Y-106603412D02*
X140335000Y-94978000D01*
X148539588Y-114808000D02*
X140335000Y-106603412D01*
X140335000Y-94978000D02*
X135115000Y-89758000D01*
X162814000Y-114808000D02*
X148539588Y-114808000D01*
%TO.N,+BATT*%
X133227232Y-100076000D02*
X133604000Y-100076000D01*
X129540000Y-103763232D02*
X133227232Y-100076000D01*
X129540000Y-105029000D02*
X129540000Y-103763232D01*
X162980478Y-90390000D02*
X161036000Y-90390000D01*
X166274020Y-93683542D02*
X162980478Y-90390000D01*
X166274020Y-99002974D02*
X166274020Y-93683542D01*
X165543984Y-99733010D02*
X166274020Y-99002974D01*
X161836010Y-99733010D02*
X165543984Y-99733010D01*
X161417000Y-99314000D02*
X161836010Y-99733010D01*
X158990000Y-90390000D02*
X158938000Y-90338000D01*
X161036000Y-90390000D02*
X158990000Y-90390000D01*
X158938000Y-90338000D02*
X157038000Y-90338000D01*
X154899000Y-90338000D02*
X154813000Y-90424000D01*
X157038000Y-90338000D02*
X154899000Y-90338000D01*
X149606000Y-98350522D02*
X154813000Y-93143522D01*
X154813000Y-93143522D02*
X154813000Y-90424000D01*
X149606000Y-102997000D02*
X149606000Y-98350522D01*
%TD*%
D31*
%TO.N,-BATT*%
X124881010Y-87256689D02*
X124877334Y-87294012D01*
X124881010Y-87331334D01*
X124881010Y-87331344D01*
X124892007Y-87442997D01*
X124935464Y-87586258D01*
X124968000Y-87647128D01*
X124968000Y-88175250D01*
X125126750Y-88334000D01*
X125218002Y-88335481D01*
X125218001Y-89450638D01*
X125190025Y-89484727D01*
X125119453Y-89616757D01*
X125097361Y-89689587D01*
X125075997Y-89760017D01*
X125066167Y-89859818D01*
X125061323Y-89909003D01*
X125065000Y-89946336D01*
X125064999Y-105555679D01*
X125061323Y-105593001D01*
X125064999Y-105630323D01*
X125064999Y-105630333D01*
X125075996Y-105741986D01*
X125110099Y-105854410D01*
X125119453Y-105885247D01*
X125190025Y-106017277D01*
X125196348Y-106024981D01*
X125284998Y-106133002D01*
X125314002Y-106156805D01*
X127073425Y-107916228D01*
X127069334Y-107917042D01*
X126880976Y-107995063D01*
X126711458Y-108108331D01*
X126567295Y-108252494D01*
X126454027Y-108422012D01*
X126376006Y-108610370D01*
X126367854Y-108651354D01*
X126326870Y-108659506D01*
X126138512Y-108737527D01*
X125968994Y-108850795D01*
X125824831Y-108994958D01*
X125711563Y-109164476D01*
X125633542Y-109352834D01*
X125593768Y-109552793D01*
X125593768Y-109756671D01*
X125633542Y-109956630D01*
X125711563Y-110144988D01*
X125824831Y-110314506D01*
X125968994Y-110458669D01*
X126138512Y-110571937D01*
X126326870Y-110649958D01*
X126526829Y-110689732D01*
X126730707Y-110689732D01*
X126930666Y-110649958D01*
X126985924Y-110627069D01*
X145344000Y-128985146D01*
X145343999Y-134851928D01*
X145097666Y-134851928D01*
X144934166Y-134868031D01*
X144776950Y-134915722D01*
X144632058Y-134993169D01*
X144505060Y-135097394D01*
X144494660Y-135110067D01*
X144436185Y-135038815D01*
X144339494Y-134959463D01*
X144229180Y-134900498D01*
X144109482Y-134864188D01*
X143985000Y-134851928D01*
X143795750Y-134855000D01*
X143637000Y-135013750D01*
X143637000Y-135763000D01*
X143657000Y-135763000D01*
X143657000Y-136017000D01*
X143637000Y-136017000D01*
X143637000Y-136037000D01*
X143383000Y-136037000D01*
X143383000Y-136017000D01*
X142558750Y-136017000D01*
X142400000Y-136175750D01*
X142396928Y-136290000D01*
X142409188Y-136414482D01*
X142445498Y-136534180D01*
X142504463Y-136644494D01*
X142583815Y-136741185D01*
X142621863Y-136772410D01*
X142538169Y-136874392D01*
X142460722Y-137019284D01*
X142413031Y-137176500D01*
X142396928Y-137340000D01*
X142396928Y-137740000D01*
X142413031Y-137903500D01*
X142460722Y-138060716D01*
X142538169Y-138205608D01*
X142642394Y-138332606D01*
X142769392Y-138436831D01*
X142914284Y-138514278D01*
X143071500Y-138561969D01*
X143235000Y-138578072D01*
X143473271Y-138578072D01*
X144292000Y-139396802D01*
X144292000Y-139455792D01*
X144202000Y-139446928D01*
X143602000Y-139446928D01*
X143502000Y-139456777D01*
X143402000Y-139446928D01*
X143387750Y-139450000D01*
X143324375Y-139513375D01*
X143247506Y-139554463D01*
X143150815Y-139633815D01*
X143071463Y-139730506D01*
X143012498Y-139840820D01*
X142976188Y-139960518D01*
X142975000Y-139972580D01*
X142975000Y-139608750D01*
X142816250Y-139450000D01*
X142802000Y-139446928D01*
X142677518Y-139459188D01*
X142557820Y-139495498D01*
X142447506Y-139554463D01*
X142350815Y-139633815D01*
X142325029Y-139665236D01*
X142194696Y-139625700D01*
X141982000Y-139604751D01*
X141769303Y-139625700D01*
X141564780Y-139687741D01*
X141376290Y-139788491D01*
X141211078Y-139924078D01*
X141075491Y-140089290D01*
X140974741Y-140277781D01*
X140912700Y-140482304D01*
X140897000Y-140641707D01*
X140897000Y-141848294D01*
X140912700Y-142007697D01*
X140974742Y-142212220D01*
X141075492Y-142400710D01*
X141211079Y-142565922D01*
X141222000Y-142574885D01*
X141222001Y-144235114D01*
X141211078Y-144244078D01*
X141075491Y-144409290D01*
X140974741Y-144597781D01*
X140912700Y-144802304D01*
X140897000Y-144961707D01*
X140897000Y-145868294D01*
X140901937Y-145918417D01*
X139425346Y-145848783D01*
X137861712Y-145626245D01*
X136325940Y-145257538D01*
X134831686Y-144745941D01*
X133392221Y-144095998D01*
X132020303Y-143313469D01*
X130728109Y-142405299D01*
X129527132Y-141379568D01*
X128428000Y-140245352D01*
X127440494Y-139012743D01*
X126573364Y-137692665D01*
X125834315Y-136296844D01*
X125500109Y-135490000D01*
X142396928Y-135490000D01*
X142400000Y-135604250D01*
X142558750Y-135763000D01*
X143383000Y-135763000D01*
X143383000Y-135013750D01*
X143224250Y-134855000D01*
X143035000Y-134851928D01*
X142910518Y-134864188D01*
X142790820Y-134900498D01*
X142680506Y-134959463D01*
X142583815Y-135038815D01*
X142504463Y-135135506D01*
X142445498Y-135245820D01*
X142409188Y-135365518D01*
X142396928Y-135490000D01*
X125500109Y-135490000D01*
X125229905Y-134837672D01*
X124765494Y-133328080D01*
X124445211Y-131781491D01*
X124298003Y-130448098D01*
X132265000Y-130448098D01*
X132265000Y-130917902D01*
X132356654Y-131378679D01*
X132536440Y-131812721D01*
X132797450Y-132203349D01*
X133129651Y-132535550D01*
X133520279Y-132796560D01*
X133954321Y-132976346D01*
X134415098Y-133068000D01*
X134884902Y-133068000D01*
X135345679Y-132976346D01*
X135779721Y-132796560D01*
X136170349Y-132535550D01*
X136502550Y-132203349D01*
X136763560Y-131812721D01*
X136943346Y-131378679D01*
X137035000Y-130917902D01*
X137035000Y-130448098D01*
X136943346Y-129987321D01*
X136763560Y-129553279D01*
X136502550Y-129162651D01*
X136170349Y-128830450D01*
X135779721Y-128569440D01*
X135345679Y-128389654D01*
X134884902Y-128298000D01*
X134415098Y-128298000D01*
X133954321Y-128389654D01*
X133520279Y-128569440D01*
X133129651Y-128830450D01*
X132797450Y-129162651D01*
X132536440Y-129553279D01*
X132356654Y-129987321D01*
X132265000Y-130448098D01*
X124298003Y-130448098D01*
X124271262Y-130205882D01*
X124238000Y-129147463D01*
X124238000Y-88323745D01*
X124241518Y-88324812D01*
X124366000Y-88337072D01*
X124555250Y-88334000D01*
X124714000Y-88175250D01*
X124714000Y-87376000D01*
X124694000Y-87376000D01*
X124694000Y-87122000D01*
X124714000Y-87122000D01*
X124714000Y-87102000D01*
X124881010Y-87102000D01*
X124881010Y-87256689D01*
%TA.AperFunction,Conductor*%
D32*
G36*
X124881010Y-87256689D02*
G01*
X124877334Y-87294012D01*
X124881010Y-87331334D01*
X124881010Y-87331344D01*
X124892007Y-87442997D01*
X124935464Y-87586258D01*
X124968000Y-87647128D01*
X124968000Y-88175250D01*
X125126750Y-88334000D01*
X125218002Y-88335481D01*
X125218001Y-89450638D01*
X125190025Y-89484727D01*
X125119453Y-89616757D01*
X125097361Y-89689587D01*
X125075997Y-89760017D01*
X125066167Y-89859818D01*
X125061323Y-89909003D01*
X125065000Y-89946336D01*
X125064999Y-105555679D01*
X125061323Y-105593001D01*
X125064999Y-105630323D01*
X125064999Y-105630333D01*
X125075996Y-105741986D01*
X125110099Y-105854410D01*
X125119453Y-105885247D01*
X125190025Y-106017277D01*
X125196348Y-106024981D01*
X125284998Y-106133002D01*
X125314002Y-106156805D01*
X127073425Y-107916228D01*
X127069334Y-107917042D01*
X126880976Y-107995063D01*
X126711458Y-108108331D01*
X126567295Y-108252494D01*
X126454027Y-108422012D01*
X126376006Y-108610370D01*
X126367854Y-108651354D01*
X126326870Y-108659506D01*
X126138512Y-108737527D01*
X125968994Y-108850795D01*
X125824831Y-108994958D01*
X125711563Y-109164476D01*
X125633542Y-109352834D01*
X125593768Y-109552793D01*
X125593768Y-109756671D01*
X125633542Y-109956630D01*
X125711563Y-110144988D01*
X125824831Y-110314506D01*
X125968994Y-110458669D01*
X126138512Y-110571937D01*
X126326870Y-110649958D01*
X126526829Y-110689732D01*
X126730707Y-110689732D01*
X126930666Y-110649958D01*
X126985924Y-110627069D01*
X145344000Y-128985146D01*
X145343999Y-134851928D01*
X145097666Y-134851928D01*
X144934166Y-134868031D01*
X144776950Y-134915722D01*
X144632058Y-134993169D01*
X144505060Y-135097394D01*
X144494660Y-135110067D01*
X144436185Y-135038815D01*
X144339494Y-134959463D01*
X144229180Y-134900498D01*
X144109482Y-134864188D01*
X143985000Y-134851928D01*
X143795750Y-134855000D01*
X143637000Y-135013750D01*
X143637000Y-135763000D01*
X143657000Y-135763000D01*
X143657000Y-136017000D01*
X143637000Y-136017000D01*
X143637000Y-136037000D01*
X143383000Y-136037000D01*
X143383000Y-136017000D01*
X142558750Y-136017000D01*
X142400000Y-136175750D01*
X142396928Y-136290000D01*
X142409188Y-136414482D01*
X142445498Y-136534180D01*
X142504463Y-136644494D01*
X142583815Y-136741185D01*
X142621863Y-136772410D01*
X142538169Y-136874392D01*
X142460722Y-137019284D01*
X142413031Y-137176500D01*
X142396928Y-137340000D01*
X142396928Y-137740000D01*
X142413031Y-137903500D01*
X142460722Y-138060716D01*
X142538169Y-138205608D01*
X142642394Y-138332606D01*
X142769392Y-138436831D01*
X142914284Y-138514278D01*
X143071500Y-138561969D01*
X143235000Y-138578072D01*
X143473271Y-138578072D01*
X144292000Y-139396802D01*
X144292000Y-139455792D01*
X144202000Y-139446928D01*
X143602000Y-139446928D01*
X143502000Y-139456777D01*
X143402000Y-139446928D01*
X143387750Y-139450000D01*
X143324375Y-139513375D01*
X143247506Y-139554463D01*
X143150815Y-139633815D01*
X143071463Y-139730506D01*
X143012498Y-139840820D01*
X142976188Y-139960518D01*
X142975000Y-139972580D01*
X142975000Y-139608750D01*
X142816250Y-139450000D01*
X142802000Y-139446928D01*
X142677518Y-139459188D01*
X142557820Y-139495498D01*
X142447506Y-139554463D01*
X142350815Y-139633815D01*
X142325029Y-139665236D01*
X142194696Y-139625700D01*
X141982000Y-139604751D01*
X141769303Y-139625700D01*
X141564780Y-139687741D01*
X141376290Y-139788491D01*
X141211078Y-139924078D01*
X141075491Y-140089290D01*
X140974741Y-140277781D01*
X140912700Y-140482304D01*
X140897000Y-140641707D01*
X140897000Y-141848294D01*
X140912700Y-142007697D01*
X140974742Y-142212220D01*
X141075492Y-142400710D01*
X141211079Y-142565922D01*
X141222000Y-142574885D01*
X141222001Y-144235114D01*
X141211078Y-144244078D01*
X141075491Y-144409290D01*
X140974741Y-144597781D01*
X140912700Y-144802304D01*
X140897000Y-144961707D01*
X140897000Y-145868294D01*
X140901937Y-145918417D01*
X139425346Y-145848783D01*
X137861712Y-145626245D01*
X136325940Y-145257538D01*
X134831686Y-144745941D01*
X133392221Y-144095998D01*
X132020303Y-143313469D01*
X130728109Y-142405299D01*
X129527132Y-141379568D01*
X128428000Y-140245352D01*
X127440494Y-139012743D01*
X126573364Y-137692665D01*
X125834315Y-136296844D01*
X125500109Y-135490000D01*
X142396928Y-135490000D01*
X142400000Y-135604250D01*
X142558750Y-135763000D01*
X143383000Y-135763000D01*
X143383000Y-135013750D01*
X143224250Y-134855000D01*
X143035000Y-134851928D01*
X142910518Y-134864188D01*
X142790820Y-134900498D01*
X142680506Y-134959463D01*
X142583815Y-135038815D01*
X142504463Y-135135506D01*
X142445498Y-135245820D01*
X142409188Y-135365518D01*
X142396928Y-135490000D01*
X125500109Y-135490000D01*
X125229905Y-134837672D01*
X124765494Y-133328080D01*
X124445211Y-131781491D01*
X124298003Y-130448098D01*
X132265000Y-130448098D01*
X132265000Y-130917902D01*
X132356654Y-131378679D01*
X132536440Y-131812721D01*
X132797450Y-132203349D01*
X133129651Y-132535550D01*
X133520279Y-132796560D01*
X133954321Y-132976346D01*
X134415098Y-133068000D01*
X134884902Y-133068000D01*
X135345679Y-132976346D01*
X135779721Y-132796560D01*
X136170349Y-132535550D01*
X136502550Y-132203349D01*
X136763560Y-131812721D01*
X136943346Y-131378679D01*
X137035000Y-130917902D01*
X137035000Y-130448098D01*
X136943346Y-129987321D01*
X136763560Y-129553279D01*
X136502550Y-129162651D01*
X136170349Y-128830450D01*
X135779721Y-128569440D01*
X135345679Y-128389654D01*
X134884902Y-128298000D01*
X134415098Y-128298000D01*
X133954321Y-128389654D01*
X133520279Y-128569440D01*
X133129651Y-128830450D01*
X132797450Y-129162651D01*
X132536440Y-129553279D01*
X132356654Y-129987321D01*
X132265000Y-130448098D01*
X124298003Y-130448098D01*
X124271262Y-130205882D01*
X124238000Y-129147463D01*
X124238000Y-88323745D01*
X124241518Y-88324812D01*
X124366000Y-88337072D01*
X124555250Y-88334000D01*
X124714000Y-88175250D01*
X124714000Y-87376000D01*
X124694000Y-87376000D01*
X124694000Y-87122000D01*
X124714000Y-87122000D01*
X124714000Y-87102000D01*
X124881010Y-87102000D01*
X124881010Y-87256689D01*
G37*
%TD.AperFunction*%
D31*
X152580653Y-52469217D02*
X154144287Y-52691755D01*
X155680057Y-53060461D01*
X157174313Y-53572058D01*
X158613778Y-54222002D01*
X159985696Y-55004530D01*
X161277890Y-55912700D01*
X162478868Y-56938431D01*
X163577999Y-58072646D01*
X164565507Y-59305258D01*
X165432635Y-60625334D01*
X166171691Y-62021168D01*
X166776096Y-63480331D01*
X167240504Y-64989914D01*
X167560789Y-66536510D01*
X167734738Y-68112117D01*
X167768001Y-69170567D01*
X167768000Y-129141680D01*
X167692783Y-130736653D01*
X167470245Y-132300287D01*
X167101538Y-133836059D01*
X166589942Y-135330313D01*
X165939998Y-136769778D01*
X165157470Y-138141696D01*
X164249300Y-139433890D01*
X163223569Y-140634868D01*
X162089354Y-141733999D01*
X160856738Y-142721510D01*
X159536666Y-143588635D01*
X158140845Y-144327684D01*
X156681673Y-144932094D01*
X155172083Y-145396505D01*
X153625490Y-145716789D01*
X152049883Y-145890738D01*
X151703718Y-145901617D01*
X151707000Y-145868293D01*
X151707000Y-144961706D01*
X151691300Y-144802303D01*
X151629259Y-144597780D01*
X151528509Y-144409290D01*
X151392922Y-144244078D01*
X151382000Y-144235114D01*
X151382000Y-142574886D01*
X151392922Y-142565922D01*
X151528509Y-142400710D01*
X151629259Y-142212220D01*
X151691300Y-142007697D01*
X151707000Y-141848294D01*
X151707000Y-140641706D01*
X151691300Y-140482303D01*
X151629259Y-140277780D01*
X151528509Y-140089290D01*
X151392922Y-139924078D01*
X151227710Y-139788491D01*
X151039219Y-139687741D01*
X150834696Y-139625700D01*
X150622000Y-139604751D01*
X150409303Y-139625700D01*
X150278971Y-139665236D01*
X150253185Y-139633815D01*
X150214078Y-139601721D01*
X156297799Y-133518001D01*
X158908679Y-133518001D01*
X158946001Y-133521677D01*
X158983323Y-133518001D01*
X158983334Y-133518001D01*
X159094987Y-133507004D01*
X159238248Y-133463547D01*
X159370277Y-133392975D01*
X159486002Y-133298002D01*
X159509805Y-133268998D01*
X164950014Y-127828790D01*
X164979011Y-127804993D01*
X165073984Y-127689268D01*
X165144556Y-127557239D01*
X165188013Y-127413978D01*
X165199010Y-127302325D01*
X165199010Y-127302315D01*
X165202686Y-127264992D01*
X165199010Y-127227669D01*
X165199010Y-107623335D01*
X165202686Y-107586010D01*
X165199010Y-107548685D01*
X165199010Y-107548677D01*
X165188013Y-107437024D01*
X165144556Y-107293763D01*
X165073984Y-107161734D01*
X164979011Y-107046009D01*
X164950013Y-107022211D01*
X157844200Y-99916399D01*
X157920233Y-99854001D01*
X157944036Y-99824997D01*
X159962548Y-97806486D01*
X159953928Y-97894000D01*
X159953928Y-98194000D01*
X159969071Y-98347745D01*
X160013916Y-98495582D01*
X160086742Y-98631829D01*
X160125454Y-98679000D01*
X160086742Y-98726171D01*
X160013916Y-98862418D01*
X159969071Y-99010255D01*
X159953928Y-99164000D01*
X159953928Y-99464000D01*
X159969071Y-99617745D01*
X160013916Y-99765582D01*
X160086742Y-99901829D01*
X160184749Y-100021251D01*
X160304171Y-100119258D01*
X160440418Y-100192084D01*
X160588255Y-100236929D01*
X160742000Y-100252072D01*
X161278825Y-100252072D01*
X161296009Y-100273011D01*
X161411734Y-100367984D01*
X161514793Y-100423071D01*
X161543763Y-100438556D01*
X161687024Y-100482013D01*
X161836010Y-100496687D01*
X161873343Y-100493010D01*
X165506662Y-100493010D01*
X165543984Y-100496686D01*
X165581306Y-100493010D01*
X165581317Y-100493010D01*
X165692970Y-100482013D01*
X165836231Y-100438556D01*
X165968260Y-100367984D01*
X166083985Y-100273011D01*
X166107787Y-100244008D01*
X166785024Y-99566772D01*
X166814021Y-99542975D01*
X166908994Y-99427250D01*
X166979566Y-99295221D01*
X167023023Y-99151960D01*
X167034020Y-99040307D01*
X167034020Y-99040297D01*
X167037696Y-99002974D01*
X167034020Y-98965651D01*
X167034020Y-93720867D01*
X167037696Y-93683542D01*
X167034020Y-93646217D01*
X167034020Y-93646209D01*
X167023023Y-93534556D01*
X166979566Y-93391295D01*
X166908994Y-93259266D01*
X166814021Y-93143541D01*
X166785023Y-93119743D01*
X163544282Y-89879003D01*
X163520479Y-89849999D01*
X163404754Y-89755026D01*
X163272725Y-89684454D01*
X163129464Y-89640997D01*
X163017811Y-89630000D01*
X163017800Y-89630000D01*
X162980478Y-89626324D01*
X162943156Y-89630000D01*
X162076143Y-89630000D01*
X162023115Y-89565385D01*
X161893275Y-89458829D01*
X161745142Y-89379650D01*
X161584408Y-89330892D01*
X161549969Y-89327500D01*
X161584408Y-89324108D01*
X161745142Y-89275350D01*
X161893275Y-89196171D01*
X162023115Y-89089615D01*
X162129671Y-88959775D01*
X162208850Y-88811642D01*
X162257608Y-88650908D01*
X162274072Y-88483750D01*
X162274072Y-88046250D01*
X162257608Y-87879092D01*
X162208850Y-87718358D01*
X162129671Y-87570225D01*
X162023115Y-87440385D01*
X161923000Y-87358223D01*
X161923000Y-86879320D01*
X161967494Y-86855537D01*
X162064185Y-86776185D01*
X162143537Y-86679494D01*
X162202502Y-86569180D01*
X162238812Y-86449482D01*
X162251072Y-86325000D01*
X162251072Y-85125000D01*
X162238812Y-85000518D01*
X162202502Y-84880820D01*
X162143537Y-84770506D01*
X162064185Y-84673815D01*
X161967494Y-84594463D01*
X161857180Y-84535498D01*
X161737482Y-84499188D01*
X161613000Y-84486928D01*
X160713000Y-84486928D01*
X160588518Y-84499188D01*
X160468820Y-84535498D01*
X160358506Y-84594463D01*
X160261815Y-84673815D01*
X160182463Y-84770506D01*
X160123498Y-84880820D01*
X160087188Y-85000518D01*
X160074928Y-85125000D01*
X160074928Y-86325000D01*
X160087188Y-86449482D01*
X160123498Y-86569180D01*
X160182463Y-86679494D01*
X160261815Y-86776185D01*
X160358506Y-86855537D01*
X160403000Y-86879320D01*
X160403001Y-87231552D01*
X160326858Y-87254650D01*
X160178725Y-87333829D01*
X160124902Y-87378000D01*
X159856803Y-87378000D01*
X159852502Y-87363820D01*
X159793537Y-87253506D01*
X159714185Y-87156815D01*
X159617494Y-87077463D01*
X159507180Y-87018498D01*
X159387482Y-86982188D01*
X159263000Y-86969928D01*
X158613000Y-86969928D01*
X158488518Y-86982188D01*
X158463000Y-86989929D01*
X158437482Y-86982188D01*
X158313000Y-86969928D01*
X158273750Y-86973000D01*
X158115000Y-87131750D01*
X158115000Y-87213859D01*
X158082463Y-87253506D01*
X158023498Y-87363820D01*
X157988000Y-87480841D01*
X157952502Y-87363820D01*
X157893537Y-87253506D01*
X157861000Y-87213859D01*
X157861000Y-87131750D01*
X157702250Y-86973000D01*
X157663000Y-86969928D01*
X157538518Y-86982188D01*
X157513000Y-86989929D01*
X157491067Y-86983275D01*
X157503986Y-86982003D01*
X157566394Y-86963072D01*
X158313000Y-86963072D01*
X158437482Y-86950812D01*
X158557180Y-86914502D01*
X158667494Y-86855537D01*
X158764185Y-86776185D01*
X158843537Y-86679494D01*
X158902502Y-86569180D01*
X158938812Y-86449482D01*
X158951072Y-86325000D01*
X158951072Y-85125000D01*
X158938812Y-85000518D01*
X158902502Y-84880820D01*
X158843537Y-84770506D01*
X158764185Y-84673815D01*
X158667494Y-84594463D01*
X158557180Y-84535498D01*
X158437482Y-84499188D01*
X158379779Y-84493505D01*
X158403283Y-84486375D01*
X158549351Y-84408300D01*
X158593506Y-84444537D01*
X158703820Y-84503502D01*
X158823518Y-84539812D01*
X158948000Y-84552072D01*
X159112250Y-84549000D01*
X159271000Y-84390250D01*
X159271000Y-83566000D01*
X159525000Y-83566000D01*
X159525000Y-84390250D01*
X159683750Y-84549000D01*
X159848000Y-84552072D01*
X159972482Y-84539812D01*
X160092180Y-84503502D01*
X160202494Y-84444537D01*
X160299185Y-84365185D01*
X160378537Y-84268494D01*
X160437502Y-84158180D01*
X160473812Y-84038482D01*
X160486072Y-83914000D01*
X160483000Y-83724750D01*
X160324250Y-83566000D01*
X159525000Y-83566000D01*
X159271000Y-83566000D01*
X159251000Y-83566000D01*
X159251000Y-83312000D01*
X159271000Y-83312000D01*
X159271000Y-83292000D01*
X159525000Y-83292000D01*
X159525000Y-83312000D01*
X160324250Y-83312000D01*
X160483000Y-83153250D01*
X160486072Y-82964000D01*
X160473812Y-82839518D01*
X160437502Y-82719820D01*
X160378537Y-82609506D01*
X160299185Y-82512815D01*
X160202494Y-82433463D01*
X160092180Y-82374498D01*
X159972482Y-82338188D01*
X159872906Y-82328381D01*
X159880003Y-82304986D01*
X159891000Y-82193333D01*
X159891000Y-82193323D01*
X159894676Y-82156001D01*
X159891000Y-82118678D01*
X159891000Y-80831859D01*
X159949418Y-80863084D01*
X160097255Y-80907929D01*
X160251000Y-80923072D01*
X160551000Y-80923072D01*
X160704745Y-80907929D01*
X160852582Y-80863084D01*
X160988829Y-80790258D01*
X161108251Y-80692251D01*
X161206258Y-80572829D01*
X161279084Y-80436582D01*
X161323929Y-80288745D01*
X161339072Y-80135000D01*
X161339072Y-80113791D01*
X161374276Y-80094974D01*
X161490001Y-80000001D01*
X161513804Y-79970997D01*
X162596730Y-78888072D01*
X162835000Y-78888072D01*
X162998500Y-78871969D01*
X163155716Y-78824278D01*
X163300608Y-78746831D01*
X163427606Y-78642606D01*
X163531831Y-78515608D01*
X163609278Y-78370716D01*
X163656969Y-78213500D01*
X163673072Y-78050000D01*
X163673072Y-77650000D01*
X163656969Y-77486500D01*
X163609278Y-77329284D01*
X163531831Y-77184392D01*
X163427606Y-77057394D01*
X163388134Y-77025000D01*
X163427606Y-76992606D01*
X163531831Y-76865608D01*
X163609278Y-76720716D01*
X163656969Y-76563500D01*
X163673072Y-76400000D01*
X163673072Y-76000000D01*
X163656969Y-75836500D01*
X163609278Y-75679284D01*
X163531831Y-75534392D01*
X163427606Y-75407394D01*
X163300608Y-75303169D01*
X163155716Y-75225722D01*
X162998500Y-75178031D01*
X162835000Y-75161928D01*
X162285000Y-75161928D01*
X162121500Y-75178031D01*
X161964284Y-75225722D01*
X161819392Y-75303169D01*
X161692394Y-75407394D01*
X161665635Y-75440000D01*
X161110098Y-75440000D01*
X161206258Y-75322829D01*
X161279084Y-75186582D01*
X161323929Y-75038745D01*
X161330700Y-74970000D01*
X161648680Y-74970000D01*
X161686002Y-74973676D01*
X161723324Y-74970000D01*
X161723335Y-74970000D01*
X161834988Y-74959003D01*
X161978249Y-74915546D01*
X162110278Y-74844974D01*
X162226003Y-74750001D01*
X162249806Y-74720997D01*
X165162005Y-71808799D01*
X165191002Y-71785002D01*
X165285975Y-71669277D01*
X165356547Y-71537248D01*
X165400004Y-71393987D01*
X165411001Y-71282334D01*
X165411001Y-71282326D01*
X165414677Y-71245001D01*
X165411001Y-71207676D01*
X165411001Y-68462324D01*
X165414677Y-68424999D01*
X165411001Y-68387674D01*
X165411001Y-68387666D01*
X165400004Y-68276013D01*
X165356547Y-68132752D01*
X165285975Y-68000723D01*
X165191002Y-67884998D01*
X165162004Y-67861200D01*
X161051806Y-63751003D01*
X161028003Y-63721999D01*
X160912278Y-63627026D01*
X160780249Y-63556454D01*
X160636988Y-63512997D01*
X160525335Y-63502000D01*
X160525324Y-63502000D01*
X160488002Y-63498324D01*
X160450680Y-63502000D01*
X154564365Y-63502000D01*
X154537606Y-63469394D01*
X154498134Y-63437000D01*
X154537606Y-63404606D01*
X154641831Y-63277608D01*
X154719278Y-63132716D01*
X154766969Y-62975500D01*
X154783072Y-62812000D01*
X154783072Y-62412000D01*
X154766969Y-62248500D01*
X154719278Y-62091284D01*
X154641831Y-61946392D01*
X154537606Y-61819394D01*
X154410608Y-61715169D01*
X154265716Y-61637722D01*
X154108500Y-61590031D01*
X153945000Y-61573928D01*
X153395000Y-61573928D01*
X153231500Y-61590031D01*
X153074284Y-61637722D01*
X152929392Y-61715169D01*
X152802394Y-61819394D01*
X152800795Y-61821343D01*
X152719537Y-61625169D01*
X152529663Y-61341002D01*
X152287998Y-61099337D01*
X152003831Y-60909463D01*
X151688081Y-60778675D01*
X151352883Y-60712000D01*
X151011117Y-60712000D01*
X150675919Y-60778675D01*
X150614088Y-60804286D01*
X149976200Y-60166399D01*
X150173831Y-60084537D01*
X150457998Y-59894663D01*
X150699663Y-59652998D01*
X150889537Y-59368831D01*
X151020325Y-59053081D01*
X151087000Y-58717883D01*
X151087000Y-58376117D01*
X151020325Y-58040919D01*
X150889537Y-57725169D01*
X150699663Y-57441002D01*
X150457998Y-57199337D01*
X150173831Y-57009463D01*
X149858081Y-56878675D01*
X149522883Y-56812000D01*
X149181117Y-56812000D01*
X148845919Y-56878675D01*
X148530169Y-57009463D01*
X148246002Y-57199337D01*
X148004337Y-57441002D01*
X147814463Y-57725169D01*
X147683675Y-58040919D01*
X147617000Y-58376117D01*
X147617000Y-58717883D01*
X147683675Y-59053081D01*
X147814463Y-59368831D01*
X148004337Y-59652998D01*
X148163328Y-59811989D01*
X145268921Y-59811989D01*
X145231598Y-59808313D01*
X145194275Y-59811989D01*
X145194266Y-59811989D01*
X145082613Y-59822986D01*
X144939352Y-59866443D01*
X144807323Y-59937015D01*
X144691598Y-60031988D01*
X144667800Y-60060986D01*
X142709262Y-62019525D01*
X142609336Y-61726034D01*
X142503338Y-61527726D01*
X142228712Y-61419893D01*
X141201605Y-62447000D01*
X141215748Y-62461143D01*
X141036143Y-62640748D01*
X141022000Y-62626605D01*
X139994893Y-63653712D01*
X140102726Y-63928338D01*
X140409384Y-64079216D01*
X140739585Y-64167369D01*
X141080639Y-64189409D01*
X141419439Y-64144489D01*
X141742966Y-64034336D01*
X141941274Y-63928338D01*
X142049106Y-63653714D01*
X142164528Y-63769136D01*
X142215000Y-63718664D01*
X142214999Y-75354198D01*
X140009804Y-73149003D01*
X139986001Y-73119999D01*
X139870276Y-73025026D01*
X139738247Y-72954454D01*
X139594986Y-72910997D01*
X139483333Y-72900000D01*
X139483322Y-72900000D01*
X139446000Y-72896324D01*
X139408678Y-72900000D01*
X133387322Y-72900000D01*
X133349999Y-72896324D01*
X133312676Y-72900000D01*
X133312667Y-72900000D01*
X133201014Y-72910997D01*
X133057753Y-72954454D01*
X132925724Y-73025026D01*
X132809999Y-73119999D01*
X132786201Y-73148997D01*
X131250979Y-74684220D01*
X131246488Y-74638623D01*
X131197375Y-74476717D01*
X131117618Y-74327503D01*
X131010284Y-74196716D01*
X130879497Y-74089382D01*
X130730283Y-74009625D01*
X130568377Y-73960512D01*
X130400000Y-73943928D01*
X129950000Y-73943928D01*
X129781623Y-73960512D01*
X129619717Y-74009625D01*
X129473649Y-74087700D01*
X129429494Y-74051463D01*
X129319180Y-73992498D01*
X129199482Y-73956188D01*
X129075000Y-73943928D01*
X128910750Y-73947000D01*
X128752000Y-74105750D01*
X128752000Y-74930000D01*
X128772000Y-74930000D01*
X128772000Y-75184000D01*
X128752000Y-75184000D01*
X128752000Y-75204000D01*
X128498000Y-75204000D01*
X128498000Y-75184000D01*
X128478000Y-75184000D01*
X128478000Y-74930000D01*
X128498000Y-74930000D01*
X128498000Y-74105750D01*
X128339250Y-73947000D01*
X128175000Y-73943928D01*
X128050518Y-73956188D01*
X127930820Y-73992498D01*
X127820506Y-74051463D01*
X127723815Y-74130815D01*
X127669999Y-74196390D01*
X127669999Y-71778802D01*
X128491730Y-70957072D01*
X129749501Y-70957072D01*
X129749500Y-71773407D01*
X129561439Y-71736000D01*
X129357561Y-71736000D01*
X129157602Y-71775774D01*
X128969244Y-71853795D01*
X128799726Y-71967063D01*
X128655563Y-72111226D01*
X128542295Y-72280744D01*
X128464274Y-72469102D01*
X128424500Y-72669061D01*
X128424500Y-72872939D01*
X128464274Y-73072898D01*
X128542295Y-73261256D01*
X128655563Y-73430774D01*
X128799726Y-73574937D01*
X128969244Y-73688205D01*
X129157602Y-73766226D01*
X129357561Y-73806000D01*
X129561439Y-73806000D01*
X129761398Y-73766226D01*
X129949756Y-73688205D01*
X129984500Y-73664990D01*
X130019244Y-73688205D01*
X130207602Y-73766226D01*
X130407561Y-73806000D01*
X130611439Y-73806000D01*
X130811398Y-73766226D01*
X130999756Y-73688205D01*
X131169274Y-73574937D01*
X131313437Y-73430774D01*
X131426705Y-73261256D01*
X131504726Y-73072898D01*
X131544500Y-72872939D01*
X131544500Y-72669061D01*
X131504726Y-72469102D01*
X131426705Y-72280744D01*
X131313437Y-72111226D01*
X131269500Y-72067289D01*
X131269500Y-70948184D01*
X131298740Y-70954000D01*
X131591260Y-70954000D01*
X131878158Y-70896932D01*
X132148411Y-70784990D01*
X132391632Y-70622475D01*
X132598475Y-70415632D01*
X132715000Y-70241240D01*
X132831525Y-70415632D01*
X133038368Y-70622475D01*
X133281589Y-70784990D01*
X133551842Y-70896932D01*
X133838740Y-70954000D01*
X134131260Y-70954000D01*
X134418158Y-70896932D01*
X134688411Y-70784990D01*
X134931632Y-70622475D01*
X135138475Y-70415632D01*
X135260195Y-70233466D01*
X135329822Y-70350355D01*
X135524731Y-70566588D01*
X135758080Y-70740641D01*
X136020901Y-70865825D01*
X136168110Y-70910476D01*
X136398000Y-70789155D01*
X136398000Y-69596000D01*
X136652000Y-69596000D01*
X136652000Y-70789155D01*
X136881890Y-70910476D01*
X137029099Y-70865825D01*
X137291920Y-70740641D01*
X137525269Y-70566588D01*
X137720178Y-70350355D01*
X137869157Y-70100252D01*
X137966481Y-69825891D01*
X137845814Y-69596000D01*
X136652000Y-69596000D01*
X136398000Y-69596000D01*
X136378000Y-69596000D01*
X136378000Y-69342000D01*
X136398000Y-69342000D01*
X136398000Y-68148845D01*
X136652000Y-68148845D01*
X136652000Y-69342000D01*
X137845814Y-69342000D01*
X137966481Y-69112109D01*
X137869157Y-68837748D01*
X137720178Y-68587645D01*
X137525269Y-68371412D01*
X137291920Y-68197359D01*
X137029099Y-68072175D01*
X136881890Y-68027524D01*
X136652000Y-68148845D01*
X136398000Y-68148845D01*
X136168110Y-68027524D01*
X136020901Y-68072175D01*
X135758080Y-68197359D01*
X135524731Y-68371412D01*
X135329822Y-68587645D01*
X135260195Y-68704534D01*
X135138475Y-68522368D01*
X134931632Y-68315525D01*
X134688411Y-68153010D01*
X134418158Y-68041068D01*
X134131260Y-67984000D01*
X133838740Y-67984000D01*
X133551842Y-68041068D01*
X133281589Y-68153010D01*
X133038368Y-68315525D01*
X132831525Y-68522368D01*
X132715000Y-68696760D01*
X132598475Y-68522368D01*
X132391632Y-68315525D01*
X132148411Y-68153010D01*
X131878158Y-68041068D01*
X131591260Y-67984000D01*
X131298740Y-67984000D01*
X131011842Y-68041068D01*
X130741589Y-68153010D01*
X130498368Y-68315525D01*
X130366513Y-68447380D01*
X130344502Y-68374820D01*
X130285537Y-68264506D01*
X130206185Y-68167815D01*
X130109494Y-68088463D01*
X129999180Y-68029498D01*
X129879482Y-67993188D01*
X129755000Y-67980928D01*
X128055000Y-67980928D01*
X127930518Y-67993188D01*
X127810820Y-68029498D01*
X127700506Y-68088463D01*
X127603815Y-68167815D01*
X127524463Y-68264506D01*
X127465498Y-68374820D01*
X127429188Y-68494518D01*
X127416928Y-68619000D01*
X127416928Y-69882270D01*
X126398997Y-70900202D01*
X126369999Y-70924000D01*
X126346201Y-70952998D01*
X126346200Y-70952999D01*
X126275025Y-71039725D01*
X126204453Y-71171755D01*
X126192335Y-71211705D01*
X126162215Y-71311002D01*
X126160997Y-71315016D01*
X126146323Y-71464001D01*
X126150000Y-71501333D01*
X126149999Y-76821186D01*
X126142284Y-76821186D01*
X125942325Y-76860960D01*
X125753967Y-76938981D01*
X125584449Y-77052249D01*
X125491142Y-77145556D01*
X125440482Y-77130188D01*
X125316000Y-77117928D01*
X125126750Y-77121000D01*
X124968000Y-77279750D01*
X124968000Y-78079000D01*
X124982583Y-78079000D01*
X124935464Y-78167152D01*
X124892007Y-78310413D01*
X124887812Y-78353000D01*
X124714000Y-78353000D01*
X124714000Y-78333000D01*
X124694000Y-78333000D01*
X124694000Y-78079000D01*
X124714000Y-78079000D01*
X124714000Y-77279750D01*
X124555250Y-77121000D01*
X124366000Y-77117928D01*
X124241518Y-77130188D01*
X124238000Y-77131255D01*
X124238000Y-69176320D01*
X124313217Y-67581347D01*
X124535755Y-66017713D01*
X124904461Y-64481943D01*
X125416058Y-62987687D01*
X125633711Y-62505639D01*
X139279591Y-62505639D01*
X139324511Y-62844439D01*
X139434664Y-63167966D01*
X139540662Y-63366274D01*
X139815288Y-63474107D01*
X140842395Y-62447000D01*
X139815288Y-61419893D01*
X139540662Y-61527726D01*
X139389784Y-61834384D01*
X139301631Y-62164585D01*
X139279591Y-62505639D01*
X125633711Y-62505639D01*
X126066002Y-61548222D01*
X126241644Y-61240288D01*
X139994893Y-61240288D01*
X141022000Y-62267395D01*
X142049107Y-61240288D01*
X141941274Y-60965662D01*
X141634616Y-60814784D01*
X141304415Y-60726631D01*
X140963361Y-60704591D01*
X140624561Y-60749511D01*
X140301034Y-60859664D01*
X140102726Y-60965662D01*
X139994893Y-61240288D01*
X126241644Y-61240288D01*
X126848530Y-60176304D01*
X127756700Y-58884110D01*
X128190566Y-58376117D01*
X141117000Y-58376117D01*
X141117000Y-58717883D01*
X141183675Y-59053081D01*
X141314463Y-59368831D01*
X141504337Y-59652998D01*
X141746002Y-59894663D01*
X142030169Y-60084537D01*
X142345919Y-60215325D01*
X142681117Y-60282000D01*
X143022883Y-60282000D01*
X143358081Y-60215325D01*
X143673831Y-60084537D01*
X143957998Y-59894663D01*
X144199663Y-59652998D01*
X144389537Y-59368831D01*
X144520325Y-59053081D01*
X144587000Y-58717883D01*
X144587000Y-58376117D01*
X144520325Y-58040919D01*
X144389537Y-57725169D01*
X144199663Y-57441002D01*
X143957998Y-57199337D01*
X143673831Y-57009463D01*
X143358081Y-56878675D01*
X143022883Y-56812000D01*
X142681117Y-56812000D01*
X142345919Y-56878675D01*
X142030169Y-57009463D01*
X141746002Y-57199337D01*
X141504337Y-57441002D01*
X141314463Y-57725169D01*
X141183675Y-58040919D01*
X141117000Y-58376117D01*
X128190566Y-58376117D01*
X128782431Y-57683132D01*
X129916646Y-56584001D01*
X131149258Y-55596493D01*
X132469334Y-54729365D01*
X133865168Y-53990309D01*
X135324331Y-53385904D01*
X136833914Y-52921496D01*
X138380510Y-52601211D01*
X139956117Y-52427262D01*
X141014536Y-52394000D01*
X150985680Y-52394000D01*
X152580653Y-52469217D01*
%TA.AperFunction,Conductor*%
D32*
G36*
X152580653Y-52469217D02*
G01*
X154144287Y-52691755D01*
X155680057Y-53060461D01*
X157174313Y-53572058D01*
X158613778Y-54222002D01*
X159985696Y-55004530D01*
X161277890Y-55912700D01*
X162478868Y-56938431D01*
X163577999Y-58072646D01*
X164565507Y-59305258D01*
X165432635Y-60625334D01*
X166171691Y-62021168D01*
X166776096Y-63480331D01*
X167240504Y-64989914D01*
X167560789Y-66536510D01*
X167734738Y-68112117D01*
X167768001Y-69170567D01*
X167768000Y-129141680D01*
X167692783Y-130736653D01*
X167470245Y-132300287D01*
X167101538Y-133836059D01*
X166589942Y-135330313D01*
X165939998Y-136769778D01*
X165157470Y-138141696D01*
X164249300Y-139433890D01*
X163223569Y-140634868D01*
X162089354Y-141733999D01*
X160856738Y-142721510D01*
X159536666Y-143588635D01*
X158140845Y-144327684D01*
X156681673Y-144932094D01*
X155172083Y-145396505D01*
X153625490Y-145716789D01*
X152049883Y-145890738D01*
X151703718Y-145901617D01*
X151707000Y-145868293D01*
X151707000Y-144961706D01*
X151691300Y-144802303D01*
X151629259Y-144597780D01*
X151528509Y-144409290D01*
X151392922Y-144244078D01*
X151382000Y-144235114D01*
X151382000Y-142574886D01*
X151392922Y-142565922D01*
X151528509Y-142400710D01*
X151629259Y-142212220D01*
X151691300Y-142007697D01*
X151707000Y-141848294D01*
X151707000Y-140641706D01*
X151691300Y-140482303D01*
X151629259Y-140277780D01*
X151528509Y-140089290D01*
X151392922Y-139924078D01*
X151227710Y-139788491D01*
X151039219Y-139687741D01*
X150834696Y-139625700D01*
X150622000Y-139604751D01*
X150409303Y-139625700D01*
X150278971Y-139665236D01*
X150253185Y-139633815D01*
X150214078Y-139601721D01*
X156297799Y-133518001D01*
X158908679Y-133518001D01*
X158946001Y-133521677D01*
X158983323Y-133518001D01*
X158983334Y-133518001D01*
X159094987Y-133507004D01*
X159238248Y-133463547D01*
X159370277Y-133392975D01*
X159486002Y-133298002D01*
X159509805Y-133268998D01*
X164950014Y-127828790D01*
X164979011Y-127804993D01*
X165073984Y-127689268D01*
X165144556Y-127557239D01*
X165188013Y-127413978D01*
X165199010Y-127302325D01*
X165199010Y-127302315D01*
X165202686Y-127264992D01*
X165199010Y-127227669D01*
X165199010Y-107623335D01*
X165202686Y-107586010D01*
X165199010Y-107548685D01*
X165199010Y-107548677D01*
X165188013Y-107437024D01*
X165144556Y-107293763D01*
X165073984Y-107161734D01*
X164979011Y-107046009D01*
X164950013Y-107022211D01*
X157844200Y-99916399D01*
X157920233Y-99854001D01*
X157944036Y-99824997D01*
X159962548Y-97806486D01*
X159953928Y-97894000D01*
X159953928Y-98194000D01*
X159969071Y-98347745D01*
X160013916Y-98495582D01*
X160086742Y-98631829D01*
X160125454Y-98679000D01*
X160086742Y-98726171D01*
X160013916Y-98862418D01*
X159969071Y-99010255D01*
X159953928Y-99164000D01*
X159953928Y-99464000D01*
X159969071Y-99617745D01*
X160013916Y-99765582D01*
X160086742Y-99901829D01*
X160184749Y-100021251D01*
X160304171Y-100119258D01*
X160440418Y-100192084D01*
X160588255Y-100236929D01*
X160742000Y-100252072D01*
X161278825Y-100252072D01*
X161296009Y-100273011D01*
X161411734Y-100367984D01*
X161514793Y-100423071D01*
X161543763Y-100438556D01*
X161687024Y-100482013D01*
X161836010Y-100496687D01*
X161873343Y-100493010D01*
X165506662Y-100493010D01*
X165543984Y-100496686D01*
X165581306Y-100493010D01*
X165581317Y-100493010D01*
X165692970Y-100482013D01*
X165836231Y-100438556D01*
X165968260Y-100367984D01*
X166083985Y-100273011D01*
X166107787Y-100244008D01*
X166785024Y-99566772D01*
X166814021Y-99542975D01*
X166908994Y-99427250D01*
X166979566Y-99295221D01*
X167023023Y-99151960D01*
X167034020Y-99040307D01*
X167034020Y-99040297D01*
X167037696Y-99002974D01*
X167034020Y-98965651D01*
X167034020Y-93720867D01*
X167037696Y-93683542D01*
X167034020Y-93646217D01*
X167034020Y-93646209D01*
X167023023Y-93534556D01*
X166979566Y-93391295D01*
X166908994Y-93259266D01*
X166814021Y-93143541D01*
X166785023Y-93119743D01*
X163544282Y-89879003D01*
X163520479Y-89849999D01*
X163404754Y-89755026D01*
X163272725Y-89684454D01*
X163129464Y-89640997D01*
X163017811Y-89630000D01*
X163017800Y-89630000D01*
X162980478Y-89626324D01*
X162943156Y-89630000D01*
X162076143Y-89630000D01*
X162023115Y-89565385D01*
X161893275Y-89458829D01*
X161745142Y-89379650D01*
X161584408Y-89330892D01*
X161549969Y-89327500D01*
X161584408Y-89324108D01*
X161745142Y-89275350D01*
X161893275Y-89196171D01*
X162023115Y-89089615D01*
X162129671Y-88959775D01*
X162208850Y-88811642D01*
X162257608Y-88650908D01*
X162274072Y-88483750D01*
X162274072Y-88046250D01*
X162257608Y-87879092D01*
X162208850Y-87718358D01*
X162129671Y-87570225D01*
X162023115Y-87440385D01*
X161923000Y-87358223D01*
X161923000Y-86879320D01*
X161967494Y-86855537D01*
X162064185Y-86776185D01*
X162143537Y-86679494D01*
X162202502Y-86569180D01*
X162238812Y-86449482D01*
X162251072Y-86325000D01*
X162251072Y-85125000D01*
X162238812Y-85000518D01*
X162202502Y-84880820D01*
X162143537Y-84770506D01*
X162064185Y-84673815D01*
X161967494Y-84594463D01*
X161857180Y-84535498D01*
X161737482Y-84499188D01*
X161613000Y-84486928D01*
X160713000Y-84486928D01*
X160588518Y-84499188D01*
X160468820Y-84535498D01*
X160358506Y-84594463D01*
X160261815Y-84673815D01*
X160182463Y-84770506D01*
X160123498Y-84880820D01*
X160087188Y-85000518D01*
X160074928Y-85125000D01*
X160074928Y-86325000D01*
X160087188Y-86449482D01*
X160123498Y-86569180D01*
X160182463Y-86679494D01*
X160261815Y-86776185D01*
X160358506Y-86855537D01*
X160403000Y-86879320D01*
X160403001Y-87231552D01*
X160326858Y-87254650D01*
X160178725Y-87333829D01*
X160124902Y-87378000D01*
X159856803Y-87378000D01*
X159852502Y-87363820D01*
X159793537Y-87253506D01*
X159714185Y-87156815D01*
X159617494Y-87077463D01*
X159507180Y-87018498D01*
X159387482Y-86982188D01*
X159263000Y-86969928D01*
X158613000Y-86969928D01*
X158488518Y-86982188D01*
X158463000Y-86989929D01*
X158437482Y-86982188D01*
X158313000Y-86969928D01*
X158273750Y-86973000D01*
X158115000Y-87131750D01*
X158115000Y-87213859D01*
X158082463Y-87253506D01*
X158023498Y-87363820D01*
X157988000Y-87480841D01*
X157952502Y-87363820D01*
X157893537Y-87253506D01*
X157861000Y-87213859D01*
X157861000Y-87131750D01*
X157702250Y-86973000D01*
X157663000Y-86969928D01*
X157538518Y-86982188D01*
X157513000Y-86989929D01*
X157491067Y-86983275D01*
X157503986Y-86982003D01*
X157566394Y-86963072D01*
X158313000Y-86963072D01*
X158437482Y-86950812D01*
X158557180Y-86914502D01*
X158667494Y-86855537D01*
X158764185Y-86776185D01*
X158843537Y-86679494D01*
X158902502Y-86569180D01*
X158938812Y-86449482D01*
X158951072Y-86325000D01*
X158951072Y-85125000D01*
X158938812Y-85000518D01*
X158902502Y-84880820D01*
X158843537Y-84770506D01*
X158764185Y-84673815D01*
X158667494Y-84594463D01*
X158557180Y-84535498D01*
X158437482Y-84499188D01*
X158379779Y-84493505D01*
X158403283Y-84486375D01*
X158549351Y-84408300D01*
X158593506Y-84444537D01*
X158703820Y-84503502D01*
X158823518Y-84539812D01*
X158948000Y-84552072D01*
X159112250Y-84549000D01*
X159271000Y-84390250D01*
X159271000Y-83566000D01*
X159525000Y-83566000D01*
X159525000Y-84390250D01*
X159683750Y-84549000D01*
X159848000Y-84552072D01*
X159972482Y-84539812D01*
X160092180Y-84503502D01*
X160202494Y-84444537D01*
X160299185Y-84365185D01*
X160378537Y-84268494D01*
X160437502Y-84158180D01*
X160473812Y-84038482D01*
X160486072Y-83914000D01*
X160483000Y-83724750D01*
X160324250Y-83566000D01*
X159525000Y-83566000D01*
X159271000Y-83566000D01*
X159251000Y-83566000D01*
X159251000Y-83312000D01*
X159271000Y-83312000D01*
X159271000Y-83292000D01*
X159525000Y-83292000D01*
X159525000Y-83312000D01*
X160324250Y-83312000D01*
X160483000Y-83153250D01*
X160486072Y-82964000D01*
X160473812Y-82839518D01*
X160437502Y-82719820D01*
X160378537Y-82609506D01*
X160299185Y-82512815D01*
X160202494Y-82433463D01*
X160092180Y-82374498D01*
X159972482Y-82338188D01*
X159872906Y-82328381D01*
X159880003Y-82304986D01*
X159891000Y-82193333D01*
X159891000Y-82193323D01*
X159894676Y-82156001D01*
X159891000Y-82118678D01*
X159891000Y-80831859D01*
X159949418Y-80863084D01*
X160097255Y-80907929D01*
X160251000Y-80923072D01*
X160551000Y-80923072D01*
X160704745Y-80907929D01*
X160852582Y-80863084D01*
X160988829Y-80790258D01*
X161108251Y-80692251D01*
X161206258Y-80572829D01*
X161279084Y-80436582D01*
X161323929Y-80288745D01*
X161339072Y-80135000D01*
X161339072Y-80113791D01*
X161374276Y-80094974D01*
X161490001Y-80000001D01*
X161513804Y-79970997D01*
X162596730Y-78888072D01*
X162835000Y-78888072D01*
X162998500Y-78871969D01*
X163155716Y-78824278D01*
X163300608Y-78746831D01*
X163427606Y-78642606D01*
X163531831Y-78515608D01*
X163609278Y-78370716D01*
X163656969Y-78213500D01*
X163673072Y-78050000D01*
X163673072Y-77650000D01*
X163656969Y-77486500D01*
X163609278Y-77329284D01*
X163531831Y-77184392D01*
X163427606Y-77057394D01*
X163388134Y-77025000D01*
X163427606Y-76992606D01*
X163531831Y-76865608D01*
X163609278Y-76720716D01*
X163656969Y-76563500D01*
X163673072Y-76400000D01*
X163673072Y-76000000D01*
X163656969Y-75836500D01*
X163609278Y-75679284D01*
X163531831Y-75534392D01*
X163427606Y-75407394D01*
X163300608Y-75303169D01*
X163155716Y-75225722D01*
X162998500Y-75178031D01*
X162835000Y-75161928D01*
X162285000Y-75161928D01*
X162121500Y-75178031D01*
X161964284Y-75225722D01*
X161819392Y-75303169D01*
X161692394Y-75407394D01*
X161665635Y-75440000D01*
X161110098Y-75440000D01*
X161206258Y-75322829D01*
X161279084Y-75186582D01*
X161323929Y-75038745D01*
X161330700Y-74970000D01*
X161648680Y-74970000D01*
X161686002Y-74973676D01*
X161723324Y-74970000D01*
X161723335Y-74970000D01*
X161834988Y-74959003D01*
X161978249Y-74915546D01*
X162110278Y-74844974D01*
X162226003Y-74750001D01*
X162249806Y-74720997D01*
X165162005Y-71808799D01*
X165191002Y-71785002D01*
X165285975Y-71669277D01*
X165356547Y-71537248D01*
X165400004Y-71393987D01*
X165411001Y-71282334D01*
X165411001Y-71282326D01*
X165414677Y-71245001D01*
X165411001Y-71207676D01*
X165411001Y-68462324D01*
X165414677Y-68424999D01*
X165411001Y-68387674D01*
X165411001Y-68387666D01*
X165400004Y-68276013D01*
X165356547Y-68132752D01*
X165285975Y-68000723D01*
X165191002Y-67884998D01*
X165162004Y-67861200D01*
X161051806Y-63751003D01*
X161028003Y-63721999D01*
X160912278Y-63627026D01*
X160780249Y-63556454D01*
X160636988Y-63512997D01*
X160525335Y-63502000D01*
X160525324Y-63502000D01*
X160488002Y-63498324D01*
X160450680Y-63502000D01*
X154564365Y-63502000D01*
X154537606Y-63469394D01*
X154498134Y-63437000D01*
X154537606Y-63404606D01*
X154641831Y-63277608D01*
X154719278Y-63132716D01*
X154766969Y-62975500D01*
X154783072Y-62812000D01*
X154783072Y-62412000D01*
X154766969Y-62248500D01*
X154719278Y-62091284D01*
X154641831Y-61946392D01*
X154537606Y-61819394D01*
X154410608Y-61715169D01*
X154265716Y-61637722D01*
X154108500Y-61590031D01*
X153945000Y-61573928D01*
X153395000Y-61573928D01*
X153231500Y-61590031D01*
X153074284Y-61637722D01*
X152929392Y-61715169D01*
X152802394Y-61819394D01*
X152800795Y-61821343D01*
X152719537Y-61625169D01*
X152529663Y-61341002D01*
X152287998Y-61099337D01*
X152003831Y-60909463D01*
X151688081Y-60778675D01*
X151352883Y-60712000D01*
X151011117Y-60712000D01*
X150675919Y-60778675D01*
X150614088Y-60804286D01*
X149976200Y-60166399D01*
X150173831Y-60084537D01*
X150457998Y-59894663D01*
X150699663Y-59652998D01*
X150889537Y-59368831D01*
X151020325Y-59053081D01*
X151087000Y-58717883D01*
X151087000Y-58376117D01*
X151020325Y-58040919D01*
X150889537Y-57725169D01*
X150699663Y-57441002D01*
X150457998Y-57199337D01*
X150173831Y-57009463D01*
X149858081Y-56878675D01*
X149522883Y-56812000D01*
X149181117Y-56812000D01*
X148845919Y-56878675D01*
X148530169Y-57009463D01*
X148246002Y-57199337D01*
X148004337Y-57441002D01*
X147814463Y-57725169D01*
X147683675Y-58040919D01*
X147617000Y-58376117D01*
X147617000Y-58717883D01*
X147683675Y-59053081D01*
X147814463Y-59368831D01*
X148004337Y-59652998D01*
X148163328Y-59811989D01*
X145268921Y-59811989D01*
X145231598Y-59808313D01*
X145194275Y-59811989D01*
X145194266Y-59811989D01*
X145082613Y-59822986D01*
X144939352Y-59866443D01*
X144807323Y-59937015D01*
X144691598Y-60031988D01*
X144667800Y-60060986D01*
X142709262Y-62019525D01*
X142609336Y-61726034D01*
X142503338Y-61527726D01*
X142228712Y-61419893D01*
X141201605Y-62447000D01*
X141215748Y-62461143D01*
X141036143Y-62640748D01*
X141022000Y-62626605D01*
X139994893Y-63653712D01*
X140102726Y-63928338D01*
X140409384Y-64079216D01*
X140739585Y-64167369D01*
X141080639Y-64189409D01*
X141419439Y-64144489D01*
X141742966Y-64034336D01*
X141941274Y-63928338D01*
X142049106Y-63653714D01*
X142164528Y-63769136D01*
X142215000Y-63718664D01*
X142214999Y-75354198D01*
X140009804Y-73149003D01*
X139986001Y-73119999D01*
X139870276Y-73025026D01*
X139738247Y-72954454D01*
X139594986Y-72910997D01*
X139483333Y-72900000D01*
X139483322Y-72900000D01*
X139446000Y-72896324D01*
X139408678Y-72900000D01*
X133387322Y-72900000D01*
X133349999Y-72896324D01*
X133312676Y-72900000D01*
X133312667Y-72900000D01*
X133201014Y-72910997D01*
X133057753Y-72954454D01*
X132925724Y-73025026D01*
X132809999Y-73119999D01*
X132786201Y-73148997D01*
X131250979Y-74684220D01*
X131246488Y-74638623D01*
X131197375Y-74476717D01*
X131117618Y-74327503D01*
X131010284Y-74196716D01*
X130879497Y-74089382D01*
X130730283Y-74009625D01*
X130568377Y-73960512D01*
X130400000Y-73943928D01*
X129950000Y-73943928D01*
X129781623Y-73960512D01*
X129619717Y-74009625D01*
X129473649Y-74087700D01*
X129429494Y-74051463D01*
X129319180Y-73992498D01*
X129199482Y-73956188D01*
X129075000Y-73943928D01*
X128910750Y-73947000D01*
X128752000Y-74105750D01*
X128752000Y-74930000D01*
X128772000Y-74930000D01*
X128772000Y-75184000D01*
X128752000Y-75184000D01*
X128752000Y-75204000D01*
X128498000Y-75204000D01*
X128498000Y-75184000D01*
X128478000Y-75184000D01*
X128478000Y-74930000D01*
X128498000Y-74930000D01*
X128498000Y-74105750D01*
X128339250Y-73947000D01*
X128175000Y-73943928D01*
X128050518Y-73956188D01*
X127930820Y-73992498D01*
X127820506Y-74051463D01*
X127723815Y-74130815D01*
X127669999Y-74196390D01*
X127669999Y-71778802D01*
X128491730Y-70957072D01*
X129749501Y-70957072D01*
X129749500Y-71773407D01*
X129561439Y-71736000D01*
X129357561Y-71736000D01*
X129157602Y-71775774D01*
X128969244Y-71853795D01*
X128799726Y-71967063D01*
X128655563Y-72111226D01*
X128542295Y-72280744D01*
X128464274Y-72469102D01*
X128424500Y-72669061D01*
X128424500Y-72872939D01*
X128464274Y-73072898D01*
X128542295Y-73261256D01*
X128655563Y-73430774D01*
X128799726Y-73574937D01*
X128969244Y-73688205D01*
X129157602Y-73766226D01*
X129357561Y-73806000D01*
X129561439Y-73806000D01*
X129761398Y-73766226D01*
X129949756Y-73688205D01*
X129984500Y-73664990D01*
X130019244Y-73688205D01*
X130207602Y-73766226D01*
X130407561Y-73806000D01*
X130611439Y-73806000D01*
X130811398Y-73766226D01*
X130999756Y-73688205D01*
X131169274Y-73574937D01*
X131313437Y-73430774D01*
X131426705Y-73261256D01*
X131504726Y-73072898D01*
X131544500Y-72872939D01*
X131544500Y-72669061D01*
X131504726Y-72469102D01*
X131426705Y-72280744D01*
X131313437Y-72111226D01*
X131269500Y-72067289D01*
X131269500Y-70948184D01*
X131298740Y-70954000D01*
X131591260Y-70954000D01*
X131878158Y-70896932D01*
X132148411Y-70784990D01*
X132391632Y-70622475D01*
X132598475Y-70415632D01*
X132715000Y-70241240D01*
X132831525Y-70415632D01*
X133038368Y-70622475D01*
X133281589Y-70784990D01*
X133551842Y-70896932D01*
X133838740Y-70954000D01*
X134131260Y-70954000D01*
X134418158Y-70896932D01*
X134688411Y-70784990D01*
X134931632Y-70622475D01*
X135138475Y-70415632D01*
X135260195Y-70233466D01*
X135329822Y-70350355D01*
X135524731Y-70566588D01*
X135758080Y-70740641D01*
X136020901Y-70865825D01*
X136168110Y-70910476D01*
X136398000Y-70789155D01*
X136398000Y-69596000D01*
X136652000Y-69596000D01*
X136652000Y-70789155D01*
X136881890Y-70910476D01*
X137029099Y-70865825D01*
X137291920Y-70740641D01*
X137525269Y-70566588D01*
X137720178Y-70350355D01*
X137869157Y-70100252D01*
X137966481Y-69825891D01*
X137845814Y-69596000D01*
X136652000Y-69596000D01*
X136398000Y-69596000D01*
X136378000Y-69596000D01*
X136378000Y-69342000D01*
X136398000Y-69342000D01*
X136398000Y-68148845D01*
X136652000Y-68148845D01*
X136652000Y-69342000D01*
X137845814Y-69342000D01*
X137966481Y-69112109D01*
X137869157Y-68837748D01*
X137720178Y-68587645D01*
X137525269Y-68371412D01*
X137291920Y-68197359D01*
X137029099Y-68072175D01*
X136881890Y-68027524D01*
X136652000Y-68148845D01*
X136398000Y-68148845D01*
X136168110Y-68027524D01*
X136020901Y-68072175D01*
X135758080Y-68197359D01*
X135524731Y-68371412D01*
X135329822Y-68587645D01*
X135260195Y-68704534D01*
X135138475Y-68522368D01*
X134931632Y-68315525D01*
X134688411Y-68153010D01*
X134418158Y-68041068D01*
X134131260Y-67984000D01*
X133838740Y-67984000D01*
X133551842Y-68041068D01*
X133281589Y-68153010D01*
X133038368Y-68315525D01*
X132831525Y-68522368D01*
X132715000Y-68696760D01*
X132598475Y-68522368D01*
X132391632Y-68315525D01*
X132148411Y-68153010D01*
X131878158Y-68041068D01*
X131591260Y-67984000D01*
X131298740Y-67984000D01*
X131011842Y-68041068D01*
X130741589Y-68153010D01*
X130498368Y-68315525D01*
X130366513Y-68447380D01*
X130344502Y-68374820D01*
X130285537Y-68264506D01*
X130206185Y-68167815D01*
X130109494Y-68088463D01*
X129999180Y-68029498D01*
X129879482Y-67993188D01*
X129755000Y-67980928D01*
X128055000Y-67980928D01*
X127930518Y-67993188D01*
X127810820Y-68029498D01*
X127700506Y-68088463D01*
X127603815Y-68167815D01*
X127524463Y-68264506D01*
X127465498Y-68374820D01*
X127429188Y-68494518D01*
X127416928Y-68619000D01*
X127416928Y-69882270D01*
X126398997Y-70900202D01*
X126369999Y-70924000D01*
X126346201Y-70952998D01*
X126346200Y-70952999D01*
X126275025Y-71039725D01*
X126204453Y-71171755D01*
X126192335Y-71211705D01*
X126162215Y-71311002D01*
X126160997Y-71315016D01*
X126146323Y-71464001D01*
X126150000Y-71501333D01*
X126149999Y-76821186D01*
X126142284Y-76821186D01*
X125942325Y-76860960D01*
X125753967Y-76938981D01*
X125584449Y-77052249D01*
X125491142Y-77145556D01*
X125440482Y-77130188D01*
X125316000Y-77117928D01*
X125126750Y-77121000D01*
X124968000Y-77279750D01*
X124968000Y-78079000D01*
X124982583Y-78079000D01*
X124935464Y-78167152D01*
X124892007Y-78310413D01*
X124887812Y-78353000D01*
X124714000Y-78353000D01*
X124714000Y-78333000D01*
X124694000Y-78333000D01*
X124694000Y-78079000D01*
X124714000Y-78079000D01*
X124714000Y-77279750D01*
X124555250Y-77121000D01*
X124366000Y-77117928D01*
X124241518Y-77130188D01*
X124238000Y-77131255D01*
X124238000Y-69176320D01*
X124313217Y-67581347D01*
X124535755Y-66017713D01*
X124904461Y-64481943D01*
X125416058Y-62987687D01*
X125633711Y-62505639D01*
X139279591Y-62505639D01*
X139324511Y-62844439D01*
X139434664Y-63167966D01*
X139540662Y-63366274D01*
X139815288Y-63474107D01*
X140842395Y-62447000D01*
X139815288Y-61419893D01*
X139540662Y-61527726D01*
X139389784Y-61834384D01*
X139301631Y-62164585D01*
X139279591Y-62505639D01*
X125633711Y-62505639D01*
X126066002Y-61548222D01*
X126241644Y-61240288D01*
X139994893Y-61240288D01*
X141022000Y-62267395D01*
X142049107Y-61240288D01*
X141941274Y-60965662D01*
X141634616Y-60814784D01*
X141304415Y-60726631D01*
X140963361Y-60704591D01*
X140624561Y-60749511D01*
X140301034Y-60859664D01*
X140102726Y-60965662D01*
X139994893Y-61240288D01*
X126241644Y-61240288D01*
X126848530Y-60176304D01*
X127756700Y-58884110D01*
X128190566Y-58376117D01*
X141117000Y-58376117D01*
X141117000Y-58717883D01*
X141183675Y-59053081D01*
X141314463Y-59368831D01*
X141504337Y-59652998D01*
X141746002Y-59894663D01*
X142030169Y-60084537D01*
X142345919Y-60215325D01*
X142681117Y-60282000D01*
X143022883Y-60282000D01*
X143358081Y-60215325D01*
X143673831Y-60084537D01*
X143957998Y-59894663D01*
X144199663Y-59652998D01*
X144389537Y-59368831D01*
X144520325Y-59053081D01*
X144587000Y-58717883D01*
X144587000Y-58376117D01*
X144520325Y-58040919D01*
X144389537Y-57725169D01*
X144199663Y-57441002D01*
X143957998Y-57199337D01*
X143673831Y-57009463D01*
X143358081Y-56878675D01*
X143022883Y-56812000D01*
X142681117Y-56812000D01*
X142345919Y-56878675D01*
X142030169Y-57009463D01*
X141746002Y-57199337D01*
X141504337Y-57441002D01*
X141314463Y-57725169D01*
X141183675Y-58040919D01*
X141117000Y-58376117D01*
X128190566Y-58376117D01*
X128782431Y-57683132D01*
X129916646Y-56584001D01*
X131149258Y-55596493D01*
X132469334Y-54729365D01*
X133865168Y-53990309D01*
X135324331Y-53385904D01*
X136833914Y-52921496D01*
X138380510Y-52601211D01*
X139956117Y-52427262D01*
X141014536Y-52394000D01*
X150985680Y-52394000D01*
X152580653Y-52469217D01*
G37*
%TD.AperFunction*%
D31*
X152426204Y-133269009D02*
X152449998Y-133298002D01*
X152478991Y-133321796D01*
X152478995Y-133321800D01*
X152549684Y-133379812D01*
X152565723Y-133392975D01*
X152697752Y-133463547D01*
X152841013Y-133507004D01*
X152952666Y-133518001D01*
X152952675Y-133518001D01*
X152989998Y-133521677D01*
X153027321Y-133518001D01*
X154148195Y-133518001D01*
X150211072Y-137455125D01*
X150211072Y-137340000D01*
X150194969Y-137176500D01*
X150147278Y-137019284D01*
X150069831Y-136874392D01*
X149986137Y-136772410D01*
X150024185Y-136741185D01*
X150103537Y-136644494D01*
X150162502Y-136534180D01*
X150198812Y-136414482D01*
X150211072Y-136290000D01*
X150208000Y-136175750D01*
X150049250Y-136017000D01*
X149225000Y-136017000D01*
X149225000Y-136037000D01*
X148971000Y-136037000D01*
X148971000Y-136017000D01*
X148951000Y-136017000D01*
X148951000Y-135763000D01*
X148971000Y-135763000D01*
X148971000Y-135013750D01*
X149225000Y-135013750D01*
X149225000Y-135763000D01*
X150049250Y-135763000D01*
X150208000Y-135604250D01*
X150211072Y-135490000D01*
X150198812Y-135365518D01*
X150162502Y-135245820D01*
X150103537Y-135135506D01*
X150024185Y-135038815D01*
X149927494Y-134959463D01*
X149817180Y-134900498D01*
X149697482Y-134864188D01*
X149573000Y-134851928D01*
X149383750Y-134855000D01*
X149225000Y-135013750D01*
X148971000Y-135013750D01*
X148812250Y-134855000D01*
X148623000Y-134851928D01*
X148498518Y-134864188D01*
X148378820Y-134900498D01*
X148268506Y-134959463D01*
X148171815Y-135038815D01*
X148113339Y-135110068D01*
X148102938Y-135097394D01*
X147975940Y-134993169D01*
X147831048Y-134915722D01*
X147673832Y-134868031D01*
X147510332Y-134851928D01*
X147263999Y-134851928D01*
X147263999Y-128530405D01*
X147267555Y-128494300D01*
X147253364Y-128350215D01*
X147237525Y-128298000D01*
X147211336Y-128211667D01*
X147143086Y-128083980D01*
X147051237Y-127972062D01*
X147023192Y-127949046D01*
X128343569Y-109269424D01*
X128366458Y-109214166D01*
X128367272Y-109210075D01*
X152426204Y-133269009D01*
%TA.AperFunction,Conductor*%
D32*
G36*
X152426204Y-133269009D02*
G01*
X152449998Y-133298002D01*
X152478991Y-133321796D01*
X152478995Y-133321800D01*
X152549684Y-133379812D01*
X152565723Y-133392975D01*
X152697752Y-133463547D01*
X152841013Y-133507004D01*
X152952666Y-133518001D01*
X152952675Y-133518001D01*
X152989998Y-133521677D01*
X153027321Y-133518001D01*
X154148195Y-133518001D01*
X150211072Y-137455125D01*
X150211072Y-137340000D01*
X150194969Y-137176500D01*
X150147278Y-137019284D01*
X150069831Y-136874392D01*
X149986137Y-136772410D01*
X150024185Y-136741185D01*
X150103537Y-136644494D01*
X150162502Y-136534180D01*
X150198812Y-136414482D01*
X150211072Y-136290000D01*
X150208000Y-136175750D01*
X150049250Y-136017000D01*
X149225000Y-136017000D01*
X149225000Y-136037000D01*
X148971000Y-136037000D01*
X148971000Y-136017000D01*
X148951000Y-136017000D01*
X148951000Y-135763000D01*
X148971000Y-135763000D01*
X148971000Y-135013750D01*
X149225000Y-135013750D01*
X149225000Y-135763000D01*
X150049250Y-135763000D01*
X150208000Y-135604250D01*
X150211072Y-135490000D01*
X150198812Y-135365518D01*
X150162502Y-135245820D01*
X150103537Y-135135506D01*
X150024185Y-135038815D01*
X149927494Y-134959463D01*
X149817180Y-134900498D01*
X149697482Y-134864188D01*
X149573000Y-134851928D01*
X149383750Y-134855000D01*
X149225000Y-135013750D01*
X148971000Y-135013750D01*
X148812250Y-134855000D01*
X148623000Y-134851928D01*
X148498518Y-134864188D01*
X148378820Y-134900498D01*
X148268506Y-134959463D01*
X148171815Y-135038815D01*
X148113339Y-135110068D01*
X148102938Y-135097394D01*
X147975940Y-134993169D01*
X147831048Y-134915722D01*
X147673832Y-134868031D01*
X147510332Y-134851928D01*
X147263999Y-134851928D01*
X147263999Y-128530405D01*
X147267555Y-128494300D01*
X147253364Y-128350215D01*
X147237525Y-128298000D01*
X147211336Y-128211667D01*
X147143086Y-128083980D01*
X147051237Y-127972062D01*
X147023192Y-127949046D01*
X128343569Y-109269424D01*
X128366458Y-109214166D01*
X128367272Y-109210075D01*
X152426204Y-133269009D01*
G37*
%TD.AperFunction*%
D31*
X131805668Y-94327647D02*
X131902359Y-94406999D01*
X132012673Y-94465964D01*
X132132371Y-94502274D01*
X132190957Y-94508044D01*
X132196727Y-94566629D01*
X132233036Y-94686327D01*
X132292000Y-94796641D01*
X132371353Y-94893332D01*
X132666444Y-95184079D01*
X132890951Y-95184079D01*
X133562172Y-94512858D01*
X133548030Y-94498716D01*
X133727635Y-94319111D01*
X133741777Y-94333253D01*
X133755920Y-94319111D01*
X133935525Y-94498716D01*
X133921382Y-94512858D01*
X134663314Y-95254790D01*
X134887820Y-95254790D01*
X135112201Y-95034754D01*
X135191554Y-94938063D01*
X135250518Y-94827748D01*
X135252433Y-94821434D01*
X135258749Y-94819518D01*
X135369063Y-94760553D01*
X135465754Y-94681201D01*
X136076178Y-94070777D01*
X136427928Y-94070777D01*
X136427928Y-94179000D01*
X136444512Y-94347377D01*
X136493625Y-94509283D01*
X136571700Y-94655351D01*
X136535463Y-94699506D01*
X136476498Y-94809820D01*
X136440188Y-94929518D01*
X136427928Y-95054000D01*
X136431000Y-95218250D01*
X136589750Y-95377000D01*
X137414000Y-95377000D01*
X137414000Y-95357000D01*
X137668000Y-95357000D01*
X137668000Y-95377000D01*
X137688000Y-95377000D01*
X137688000Y-95631000D01*
X137668000Y-95631000D01*
X137668000Y-96430250D01*
X137804753Y-96567003D01*
X137801707Y-96597928D01*
X137729000Y-96597928D01*
X137575255Y-96613071D01*
X137427418Y-96657916D01*
X137291171Y-96730742D01*
X137171749Y-96828749D01*
X137073742Y-96948171D01*
X137000916Y-97084418D01*
X136956071Y-97232255D01*
X136940928Y-97386000D01*
X136940928Y-97686000D01*
X136956071Y-97839745D01*
X137000916Y-97987582D01*
X137073742Y-98123829D01*
X137112454Y-98171000D01*
X137073742Y-98218171D01*
X137000916Y-98354418D01*
X136956071Y-98502255D01*
X136940928Y-98656000D01*
X136940928Y-98956000D01*
X136956071Y-99109745D01*
X137000916Y-99257582D01*
X137073742Y-99393829D01*
X137112454Y-99441000D01*
X137073742Y-99488171D01*
X137000916Y-99624418D01*
X136956071Y-99772255D01*
X136940928Y-99926000D01*
X136940928Y-100226000D01*
X136956071Y-100379745D01*
X137000916Y-100527582D01*
X137073742Y-100663829D01*
X137112454Y-100711000D01*
X137073742Y-100758171D01*
X137000916Y-100894418D01*
X136956071Y-101042255D01*
X136940928Y-101196000D01*
X136940928Y-101496000D01*
X136956071Y-101649745D01*
X137000916Y-101797582D01*
X137073742Y-101933829D01*
X137171749Y-102053251D01*
X137291171Y-102151258D01*
X137427418Y-102224084D01*
X137575255Y-102268929D01*
X137729000Y-102284072D01*
X139379000Y-102284072D01*
X139532745Y-102268929D01*
X139575000Y-102256111D01*
X139575000Y-106566090D01*
X139571324Y-106603412D01*
X139575000Y-106640734D01*
X139575000Y-106640744D01*
X139585997Y-106752397D01*
X139611663Y-106837007D01*
X139629454Y-106895658D01*
X139700026Y-107027688D01*
X139715062Y-107046009D01*
X139794999Y-107143413D01*
X139824003Y-107167216D01*
X147975789Y-115319003D01*
X147999587Y-115348001D01*
X148028585Y-115371799D01*
X148115312Y-115442974D01*
X148247341Y-115513546D01*
X148390602Y-115557003D01*
X148539588Y-115571677D01*
X148576921Y-115568000D01*
X161535822Y-115568000D01*
X161660525Y-115754632D01*
X161867368Y-115961475D01*
X162040729Y-116077311D01*
X161965208Y-116319603D01*
X162814000Y-117168395D01*
X162828143Y-117154253D01*
X163007748Y-117333858D01*
X162993605Y-117348000D01*
X163007748Y-117362143D01*
X162828143Y-117541748D01*
X162814000Y-117527605D01*
X161965208Y-118376397D01*
X162040729Y-118618689D01*
X161867368Y-118734525D01*
X161660525Y-118941368D01*
X161498010Y-119184589D01*
X161386068Y-119454842D01*
X161329000Y-119741740D01*
X161329000Y-120034260D01*
X161386068Y-120321158D01*
X161498010Y-120591411D01*
X161660525Y-120834632D01*
X161867368Y-121041475D01*
X162041760Y-121158000D01*
X161867368Y-121274525D01*
X161660525Y-121481368D01*
X161498010Y-121724589D01*
X161386068Y-121994842D01*
X161329000Y-122281740D01*
X161329000Y-122574260D01*
X161386068Y-122861158D01*
X161498010Y-123131411D01*
X161660525Y-123374632D01*
X161867368Y-123581475D01*
X162110589Y-123743990D01*
X162380842Y-123855932D01*
X162667740Y-123913000D01*
X162960260Y-123913000D01*
X163247158Y-123855932D01*
X163517411Y-123743990D01*
X163679010Y-123636013D01*
X163679010Y-126950190D01*
X160309467Y-130319734D01*
X160243346Y-129987321D01*
X160063560Y-129553279D01*
X159802550Y-129162651D01*
X159470349Y-128830450D01*
X159079721Y-128569440D01*
X158645679Y-128389654D01*
X158184902Y-128298000D01*
X157715098Y-128298000D01*
X157254321Y-128389654D01*
X156820279Y-128569440D01*
X156429651Y-128830450D01*
X156097450Y-129162651D01*
X155836440Y-129553279D01*
X155656654Y-129987321D01*
X155565000Y-130448098D01*
X155565000Y-130917902D01*
X155656654Y-131378679D01*
X155836440Y-131812721D01*
X155959341Y-131996655D01*
X155945672Y-131998001D01*
X153304802Y-131998001D01*
X138723332Y-117416531D01*
X161323389Y-117416531D01*
X161365401Y-117706019D01*
X161463081Y-117981747D01*
X161536528Y-118119157D01*
X161785603Y-118196792D01*
X162634395Y-117348000D01*
X161785603Y-116499208D01*
X161536528Y-116576843D01*
X161410629Y-116840883D01*
X161338661Y-117124411D01*
X161323389Y-117416531D01*
X138723332Y-117416531D01*
X127954898Y-106648098D01*
X132265000Y-106648098D01*
X132265000Y-107117902D01*
X132356654Y-107578679D01*
X132536440Y-108012721D01*
X132797450Y-108403349D01*
X133129651Y-108735550D01*
X133520279Y-108996560D01*
X133954321Y-109176346D01*
X134415098Y-109268000D01*
X134884902Y-109268000D01*
X135345679Y-109176346D01*
X135779721Y-108996560D01*
X136170349Y-108735550D01*
X136502550Y-108403349D01*
X136763560Y-108012721D01*
X136943346Y-107578679D01*
X137035000Y-107117902D01*
X137035000Y-106648098D01*
X136943346Y-106187321D01*
X136763560Y-105753279D01*
X136502550Y-105362651D01*
X136170349Y-105030450D01*
X135779721Y-104769440D01*
X135345679Y-104589654D01*
X134884902Y-104498000D01*
X134415098Y-104498000D01*
X133954321Y-104589654D01*
X133520279Y-104769440D01*
X133129651Y-105030450D01*
X132797450Y-105362651D01*
X132536440Y-105753279D01*
X132356654Y-106187321D01*
X132265000Y-106648098D01*
X127954898Y-106648098D01*
X127658894Y-106352095D01*
X127766920Y-106300641D01*
X128000269Y-106126588D01*
X128076034Y-106042534D01*
X128100498Y-106123180D01*
X128159463Y-106233494D01*
X128238815Y-106330185D01*
X128335506Y-106409537D01*
X128445820Y-106468502D01*
X128565518Y-106504812D01*
X128690000Y-106517072D01*
X130390000Y-106517072D01*
X130514482Y-106504812D01*
X130634180Y-106468502D01*
X130744494Y-106409537D01*
X130841185Y-106330185D01*
X130920537Y-106233494D01*
X130979502Y-106123180D01*
X131015812Y-106003482D01*
X131028072Y-105879000D01*
X131028072Y-104179000D01*
X131015812Y-104054518D01*
X130979502Y-103934820D01*
X130920537Y-103824506D01*
X130841185Y-103727815D01*
X130744494Y-103648463D01*
X130734769Y-103643265D01*
X132234406Y-102143628D01*
X132274506Y-102176537D01*
X132384820Y-102235502D01*
X132504518Y-102271812D01*
X132629000Y-102284072D01*
X133318250Y-102281000D01*
X133477000Y-102122250D01*
X133477000Y-101473000D01*
X133731000Y-101473000D01*
X133731000Y-102122250D01*
X133889750Y-102281000D01*
X134579000Y-102284072D01*
X134703482Y-102271812D01*
X134823180Y-102235502D01*
X134933494Y-102176537D01*
X135030185Y-102097185D01*
X135109537Y-102000494D01*
X135168502Y-101890180D01*
X135204812Y-101770482D01*
X135217072Y-101646000D01*
X135214000Y-101631750D01*
X135055250Y-101473000D01*
X133731000Y-101473000D01*
X133477000Y-101473000D01*
X133457000Y-101473000D01*
X133457000Y-101219000D01*
X133477000Y-101219000D01*
X133477000Y-101199000D01*
X133731000Y-101199000D01*
X133731000Y-101219000D01*
X135055250Y-101219000D01*
X135214000Y-101060250D01*
X135217072Y-101046000D01*
X135204812Y-100921518D01*
X135168502Y-100801820D01*
X135109537Y-100691506D01*
X135085270Y-100661936D01*
X135157084Y-100527582D01*
X135201929Y-100379745D01*
X135217072Y-100226000D01*
X135217072Y-99926000D01*
X135201929Y-99772255D01*
X135157084Y-99624418D01*
X135084258Y-99488171D01*
X135045546Y-99441000D01*
X135084258Y-99393829D01*
X135157084Y-99257582D01*
X135201929Y-99109745D01*
X135217072Y-98956000D01*
X135217072Y-98656000D01*
X135201929Y-98502255D01*
X135157084Y-98354418D01*
X135084258Y-98218171D01*
X135045546Y-98171000D01*
X135084258Y-98123829D01*
X135157084Y-97987582D01*
X135201929Y-97839745D01*
X135217072Y-97686000D01*
X135217072Y-97386000D01*
X135201929Y-97232255D01*
X135157084Y-97084418D01*
X135084258Y-96948171D01*
X134986251Y-96828749D01*
X134866829Y-96730742D01*
X134730582Y-96657916D01*
X134582745Y-96613071D01*
X134429000Y-96597928D01*
X133740731Y-96597928D01*
X132506486Y-95363684D01*
X133070556Y-95363684D01*
X133070556Y-95588191D01*
X133361303Y-95883282D01*
X133457994Y-95962635D01*
X133568308Y-96021599D01*
X133688006Y-96057908D01*
X133812488Y-96070169D01*
X133936969Y-96057908D01*
X134056667Y-96021599D01*
X134166982Y-95962635D01*
X134177503Y-95954000D01*
X136427928Y-95954000D01*
X136440188Y-96078482D01*
X136476498Y-96198180D01*
X136535463Y-96308494D01*
X136614815Y-96405185D01*
X136711506Y-96484537D01*
X136821820Y-96543502D01*
X136941518Y-96579812D01*
X137066000Y-96592072D01*
X137255250Y-96589000D01*
X137414000Y-96430250D01*
X137414000Y-95631000D01*
X136589750Y-95631000D01*
X136431000Y-95789750D01*
X136427928Y-95954000D01*
X134177503Y-95954000D01*
X134263673Y-95883282D01*
X134483709Y-95658901D01*
X134483709Y-95434395D01*
X133741777Y-94692463D01*
X133070556Y-95363684D01*
X132506486Y-95363684D01*
X131360804Y-94218003D01*
X131337001Y-94188999D01*
X131288072Y-94148844D01*
X131288072Y-93915730D01*
X131340911Y-93862890D01*
X131805668Y-94327647D01*
%TA.AperFunction,Conductor*%
D32*
G36*
X131805668Y-94327647D02*
G01*
X131902359Y-94406999D01*
X132012673Y-94465964D01*
X132132371Y-94502274D01*
X132190957Y-94508044D01*
X132196727Y-94566629D01*
X132233036Y-94686327D01*
X132292000Y-94796641D01*
X132371353Y-94893332D01*
X132666444Y-95184079D01*
X132890951Y-95184079D01*
X133562172Y-94512858D01*
X133548030Y-94498716D01*
X133727635Y-94319111D01*
X133741777Y-94333253D01*
X133755920Y-94319111D01*
X133935525Y-94498716D01*
X133921382Y-94512858D01*
X134663314Y-95254790D01*
X134887820Y-95254790D01*
X135112201Y-95034754D01*
X135191554Y-94938063D01*
X135250518Y-94827748D01*
X135252433Y-94821434D01*
X135258749Y-94819518D01*
X135369063Y-94760553D01*
X135465754Y-94681201D01*
X136076178Y-94070777D01*
X136427928Y-94070777D01*
X136427928Y-94179000D01*
X136444512Y-94347377D01*
X136493625Y-94509283D01*
X136571700Y-94655351D01*
X136535463Y-94699506D01*
X136476498Y-94809820D01*
X136440188Y-94929518D01*
X136427928Y-95054000D01*
X136431000Y-95218250D01*
X136589750Y-95377000D01*
X137414000Y-95377000D01*
X137414000Y-95357000D01*
X137668000Y-95357000D01*
X137668000Y-95377000D01*
X137688000Y-95377000D01*
X137688000Y-95631000D01*
X137668000Y-95631000D01*
X137668000Y-96430250D01*
X137804753Y-96567003D01*
X137801707Y-96597928D01*
X137729000Y-96597928D01*
X137575255Y-96613071D01*
X137427418Y-96657916D01*
X137291171Y-96730742D01*
X137171749Y-96828749D01*
X137073742Y-96948171D01*
X137000916Y-97084418D01*
X136956071Y-97232255D01*
X136940928Y-97386000D01*
X136940928Y-97686000D01*
X136956071Y-97839745D01*
X137000916Y-97987582D01*
X137073742Y-98123829D01*
X137112454Y-98171000D01*
X137073742Y-98218171D01*
X137000916Y-98354418D01*
X136956071Y-98502255D01*
X136940928Y-98656000D01*
X136940928Y-98956000D01*
X136956071Y-99109745D01*
X137000916Y-99257582D01*
X137073742Y-99393829D01*
X137112454Y-99441000D01*
X137073742Y-99488171D01*
X137000916Y-99624418D01*
X136956071Y-99772255D01*
X136940928Y-99926000D01*
X136940928Y-100226000D01*
X136956071Y-100379745D01*
X137000916Y-100527582D01*
X137073742Y-100663829D01*
X137112454Y-100711000D01*
X137073742Y-100758171D01*
X137000916Y-100894418D01*
X136956071Y-101042255D01*
X136940928Y-101196000D01*
X136940928Y-101496000D01*
X136956071Y-101649745D01*
X137000916Y-101797582D01*
X137073742Y-101933829D01*
X137171749Y-102053251D01*
X137291171Y-102151258D01*
X137427418Y-102224084D01*
X137575255Y-102268929D01*
X137729000Y-102284072D01*
X139379000Y-102284072D01*
X139532745Y-102268929D01*
X139575000Y-102256111D01*
X139575000Y-106566090D01*
X139571324Y-106603412D01*
X139575000Y-106640734D01*
X139575000Y-106640744D01*
X139585997Y-106752397D01*
X139611663Y-106837007D01*
X139629454Y-106895658D01*
X139700026Y-107027688D01*
X139715062Y-107046009D01*
X139794999Y-107143413D01*
X139824003Y-107167216D01*
X147975789Y-115319003D01*
X147999587Y-115348001D01*
X148028585Y-115371799D01*
X148115312Y-115442974D01*
X148247341Y-115513546D01*
X148390602Y-115557003D01*
X148539588Y-115571677D01*
X148576921Y-115568000D01*
X161535822Y-115568000D01*
X161660525Y-115754632D01*
X161867368Y-115961475D01*
X162040729Y-116077311D01*
X161965208Y-116319603D01*
X162814000Y-117168395D01*
X162828143Y-117154253D01*
X163007748Y-117333858D01*
X162993605Y-117348000D01*
X163007748Y-117362143D01*
X162828143Y-117541748D01*
X162814000Y-117527605D01*
X161965208Y-118376397D01*
X162040729Y-118618689D01*
X161867368Y-118734525D01*
X161660525Y-118941368D01*
X161498010Y-119184589D01*
X161386068Y-119454842D01*
X161329000Y-119741740D01*
X161329000Y-120034260D01*
X161386068Y-120321158D01*
X161498010Y-120591411D01*
X161660525Y-120834632D01*
X161867368Y-121041475D01*
X162041760Y-121158000D01*
X161867368Y-121274525D01*
X161660525Y-121481368D01*
X161498010Y-121724589D01*
X161386068Y-121994842D01*
X161329000Y-122281740D01*
X161329000Y-122574260D01*
X161386068Y-122861158D01*
X161498010Y-123131411D01*
X161660525Y-123374632D01*
X161867368Y-123581475D01*
X162110589Y-123743990D01*
X162380842Y-123855932D01*
X162667740Y-123913000D01*
X162960260Y-123913000D01*
X163247158Y-123855932D01*
X163517411Y-123743990D01*
X163679010Y-123636013D01*
X163679010Y-126950190D01*
X160309467Y-130319734D01*
X160243346Y-129987321D01*
X160063560Y-129553279D01*
X159802550Y-129162651D01*
X159470349Y-128830450D01*
X159079721Y-128569440D01*
X158645679Y-128389654D01*
X158184902Y-128298000D01*
X157715098Y-128298000D01*
X157254321Y-128389654D01*
X156820279Y-128569440D01*
X156429651Y-128830450D01*
X156097450Y-129162651D01*
X155836440Y-129553279D01*
X155656654Y-129987321D01*
X155565000Y-130448098D01*
X155565000Y-130917902D01*
X155656654Y-131378679D01*
X155836440Y-131812721D01*
X155959341Y-131996655D01*
X155945672Y-131998001D01*
X153304802Y-131998001D01*
X138723332Y-117416531D01*
X161323389Y-117416531D01*
X161365401Y-117706019D01*
X161463081Y-117981747D01*
X161536528Y-118119157D01*
X161785603Y-118196792D01*
X162634395Y-117348000D01*
X161785603Y-116499208D01*
X161536528Y-116576843D01*
X161410629Y-116840883D01*
X161338661Y-117124411D01*
X161323389Y-117416531D01*
X138723332Y-117416531D01*
X127954898Y-106648098D01*
X132265000Y-106648098D01*
X132265000Y-107117902D01*
X132356654Y-107578679D01*
X132536440Y-108012721D01*
X132797450Y-108403349D01*
X133129651Y-108735550D01*
X133520279Y-108996560D01*
X133954321Y-109176346D01*
X134415098Y-109268000D01*
X134884902Y-109268000D01*
X135345679Y-109176346D01*
X135779721Y-108996560D01*
X136170349Y-108735550D01*
X136502550Y-108403349D01*
X136763560Y-108012721D01*
X136943346Y-107578679D01*
X137035000Y-107117902D01*
X137035000Y-106648098D01*
X136943346Y-106187321D01*
X136763560Y-105753279D01*
X136502550Y-105362651D01*
X136170349Y-105030450D01*
X135779721Y-104769440D01*
X135345679Y-104589654D01*
X134884902Y-104498000D01*
X134415098Y-104498000D01*
X133954321Y-104589654D01*
X133520279Y-104769440D01*
X133129651Y-105030450D01*
X132797450Y-105362651D01*
X132536440Y-105753279D01*
X132356654Y-106187321D01*
X132265000Y-106648098D01*
X127954898Y-106648098D01*
X127658894Y-106352095D01*
X127766920Y-106300641D01*
X128000269Y-106126588D01*
X128076034Y-106042534D01*
X128100498Y-106123180D01*
X128159463Y-106233494D01*
X128238815Y-106330185D01*
X128335506Y-106409537D01*
X128445820Y-106468502D01*
X128565518Y-106504812D01*
X128690000Y-106517072D01*
X130390000Y-106517072D01*
X130514482Y-106504812D01*
X130634180Y-106468502D01*
X130744494Y-106409537D01*
X130841185Y-106330185D01*
X130920537Y-106233494D01*
X130979502Y-106123180D01*
X131015812Y-106003482D01*
X131028072Y-105879000D01*
X131028072Y-104179000D01*
X131015812Y-104054518D01*
X130979502Y-103934820D01*
X130920537Y-103824506D01*
X130841185Y-103727815D01*
X130744494Y-103648463D01*
X130734769Y-103643265D01*
X132234406Y-102143628D01*
X132274506Y-102176537D01*
X132384820Y-102235502D01*
X132504518Y-102271812D01*
X132629000Y-102284072D01*
X133318250Y-102281000D01*
X133477000Y-102122250D01*
X133477000Y-101473000D01*
X133731000Y-101473000D01*
X133731000Y-102122250D01*
X133889750Y-102281000D01*
X134579000Y-102284072D01*
X134703482Y-102271812D01*
X134823180Y-102235502D01*
X134933494Y-102176537D01*
X135030185Y-102097185D01*
X135109537Y-102000494D01*
X135168502Y-101890180D01*
X135204812Y-101770482D01*
X135217072Y-101646000D01*
X135214000Y-101631750D01*
X135055250Y-101473000D01*
X133731000Y-101473000D01*
X133477000Y-101473000D01*
X133457000Y-101473000D01*
X133457000Y-101219000D01*
X133477000Y-101219000D01*
X133477000Y-101199000D01*
X133731000Y-101199000D01*
X133731000Y-101219000D01*
X135055250Y-101219000D01*
X135214000Y-101060250D01*
X135217072Y-101046000D01*
X135204812Y-100921518D01*
X135168502Y-100801820D01*
X135109537Y-100691506D01*
X135085270Y-100661936D01*
X135157084Y-100527582D01*
X135201929Y-100379745D01*
X135217072Y-100226000D01*
X135217072Y-99926000D01*
X135201929Y-99772255D01*
X135157084Y-99624418D01*
X135084258Y-99488171D01*
X135045546Y-99441000D01*
X135084258Y-99393829D01*
X135157084Y-99257582D01*
X135201929Y-99109745D01*
X135217072Y-98956000D01*
X135217072Y-98656000D01*
X135201929Y-98502255D01*
X135157084Y-98354418D01*
X135084258Y-98218171D01*
X135045546Y-98171000D01*
X135084258Y-98123829D01*
X135157084Y-97987582D01*
X135201929Y-97839745D01*
X135217072Y-97686000D01*
X135217072Y-97386000D01*
X135201929Y-97232255D01*
X135157084Y-97084418D01*
X135084258Y-96948171D01*
X134986251Y-96828749D01*
X134866829Y-96730742D01*
X134730582Y-96657916D01*
X134582745Y-96613071D01*
X134429000Y-96597928D01*
X133740731Y-96597928D01*
X132506486Y-95363684D01*
X133070556Y-95363684D01*
X133070556Y-95588191D01*
X133361303Y-95883282D01*
X133457994Y-95962635D01*
X133568308Y-96021599D01*
X133688006Y-96057908D01*
X133812488Y-96070169D01*
X133936969Y-96057908D01*
X134056667Y-96021599D01*
X134166982Y-95962635D01*
X134177503Y-95954000D01*
X136427928Y-95954000D01*
X136440188Y-96078482D01*
X136476498Y-96198180D01*
X136535463Y-96308494D01*
X136614815Y-96405185D01*
X136711506Y-96484537D01*
X136821820Y-96543502D01*
X136941518Y-96579812D01*
X137066000Y-96592072D01*
X137255250Y-96589000D01*
X137414000Y-96430250D01*
X137414000Y-95631000D01*
X136589750Y-95631000D01*
X136431000Y-95789750D01*
X136427928Y-95954000D01*
X134177503Y-95954000D01*
X134263673Y-95883282D01*
X134483709Y-95658901D01*
X134483709Y-95434395D01*
X133741777Y-94692463D01*
X133070556Y-95363684D01*
X132506486Y-95363684D01*
X131360804Y-94218003D01*
X131337001Y-94188999D01*
X131288072Y-94148844D01*
X131288072Y-93915730D01*
X131340911Y-93862890D01*
X131805668Y-94327647D01*
G37*
%TD.AperFunction*%
D31*
X157704394Y-111357606D02*
X157742933Y-111389235D01*
X157742506Y-111389463D01*
X157645815Y-111468815D01*
X157566463Y-111565506D01*
X157507498Y-111675820D01*
X157471188Y-111795518D01*
X157458928Y-111920000D01*
X157462000Y-112109250D01*
X157620750Y-112268000D01*
X158370000Y-112268000D01*
X158370000Y-112248000D01*
X158624000Y-112248000D01*
X158624000Y-112268000D01*
X158644000Y-112268000D01*
X158644000Y-112522000D01*
X158624000Y-112522000D01*
X158624000Y-113346250D01*
X158782750Y-113505000D01*
X158897000Y-113508072D01*
X159021482Y-113495812D01*
X159141180Y-113459502D01*
X159251494Y-113400537D01*
X159348185Y-113321185D01*
X159379410Y-113283137D01*
X159481392Y-113366831D01*
X159626284Y-113444278D01*
X159783500Y-113491969D01*
X159947000Y-113508072D01*
X160347000Y-113508072D01*
X160510500Y-113491969D01*
X160667716Y-113444278D01*
X160812608Y-113366831D01*
X160939606Y-113262606D01*
X161027916Y-113155000D01*
X161620680Y-113155000D01*
X161660525Y-113214632D01*
X161867368Y-113421475D01*
X162041760Y-113538000D01*
X161867368Y-113654525D01*
X161660525Y-113861368D01*
X161535822Y-114048000D01*
X148854390Y-114048000D01*
X147676390Y-112870000D01*
X157458928Y-112870000D01*
X157471188Y-112994482D01*
X157507498Y-113114180D01*
X157566463Y-113224494D01*
X157645815Y-113321185D01*
X157742506Y-113400537D01*
X157852820Y-113459502D01*
X157972518Y-113495812D01*
X158097000Y-113508072D01*
X158211250Y-113505000D01*
X158370000Y-113346250D01*
X158370000Y-112522000D01*
X157620750Y-112522000D01*
X157462000Y-112680750D01*
X157458928Y-112870000D01*
X147676390Y-112870000D01*
X146056390Y-111250000D01*
X157616084Y-111250000D01*
X157704394Y-111357606D01*
%TA.AperFunction,Conductor*%
D32*
G36*
X157704394Y-111357606D02*
G01*
X157742933Y-111389235D01*
X157742506Y-111389463D01*
X157645815Y-111468815D01*
X157566463Y-111565506D01*
X157507498Y-111675820D01*
X157471188Y-111795518D01*
X157458928Y-111920000D01*
X157462000Y-112109250D01*
X157620750Y-112268000D01*
X158370000Y-112268000D01*
X158370000Y-112248000D01*
X158624000Y-112248000D01*
X158624000Y-112268000D01*
X158644000Y-112268000D01*
X158644000Y-112522000D01*
X158624000Y-112522000D01*
X158624000Y-113346250D01*
X158782750Y-113505000D01*
X158897000Y-113508072D01*
X159021482Y-113495812D01*
X159141180Y-113459502D01*
X159251494Y-113400537D01*
X159348185Y-113321185D01*
X159379410Y-113283137D01*
X159481392Y-113366831D01*
X159626284Y-113444278D01*
X159783500Y-113491969D01*
X159947000Y-113508072D01*
X160347000Y-113508072D01*
X160510500Y-113491969D01*
X160667716Y-113444278D01*
X160812608Y-113366831D01*
X160939606Y-113262606D01*
X161027916Y-113155000D01*
X161620680Y-113155000D01*
X161660525Y-113214632D01*
X161867368Y-113421475D01*
X162041760Y-113538000D01*
X161867368Y-113654525D01*
X161660525Y-113861368D01*
X161535822Y-114048000D01*
X148854390Y-114048000D01*
X147676390Y-112870000D01*
X157458928Y-112870000D01*
X157471188Y-112994482D01*
X157507498Y-113114180D01*
X157566463Y-113224494D01*
X157645815Y-113321185D01*
X157742506Y-113400537D01*
X157852820Y-113459502D01*
X157972518Y-113495812D01*
X158097000Y-113508072D01*
X158211250Y-113505000D01*
X158370000Y-113346250D01*
X158370000Y-112522000D01*
X157620750Y-112522000D01*
X157462000Y-112680750D01*
X157458928Y-112870000D01*
X147676390Y-112870000D01*
X146056390Y-111250000D01*
X157616084Y-111250000D01*
X157704394Y-111357606D01*
G37*
%TD.AperFunction*%
D31*
X142683748Y-106368858D02*
X142669605Y-106383000D01*
X143518397Y-107231792D01*
X143760689Y-107156271D01*
X143876525Y-107329632D01*
X144083368Y-107536475D01*
X144326589Y-107698990D01*
X144596842Y-107810932D01*
X144883740Y-107868000D01*
X145176260Y-107868000D01*
X145396408Y-107824209D01*
X147302198Y-109730000D01*
X145172801Y-109730000D01*
X143158267Y-107715468D01*
X143261157Y-107660472D01*
X143338792Y-107411397D01*
X142490000Y-106562605D01*
X142475858Y-106576748D01*
X142296253Y-106397143D01*
X142310395Y-106383000D01*
X142296253Y-106368858D01*
X142475858Y-106189253D01*
X142490000Y-106203395D01*
X142504143Y-106189253D01*
X142683748Y-106368858D01*
%TA.AperFunction,Conductor*%
D32*
G36*
X142683748Y-106368858D02*
G01*
X142669605Y-106383000D01*
X143518397Y-107231792D01*
X143760689Y-107156271D01*
X143876525Y-107329632D01*
X144083368Y-107536475D01*
X144326589Y-107698990D01*
X144596842Y-107810932D01*
X144883740Y-107868000D01*
X145176260Y-107868000D01*
X145396408Y-107824209D01*
X147302198Y-109730000D01*
X145172801Y-109730000D01*
X143158267Y-107715468D01*
X143261157Y-107660472D01*
X143338792Y-107411397D01*
X142490000Y-106562605D01*
X142475858Y-106576748D01*
X142296253Y-106397143D01*
X142310395Y-106383000D01*
X142296253Y-106368858D01*
X142475858Y-106189253D01*
X142490000Y-106203395D01*
X142504143Y-106189253D01*
X142683748Y-106368858D01*
G37*
%TD.AperFunction*%
D31*
X155652928Y-80135000D02*
X155668071Y-80288745D01*
X155712916Y-80436582D01*
X155785742Y-80572829D01*
X155883749Y-80692251D01*
X156003171Y-80790258D01*
X156139418Y-80863084D01*
X156287255Y-80907929D01*
X156441000Y-80923072D01*
X156741000Y-80923072D01*
X156894745Y-80907929D01*
X157042582Y-80863084D01*
X157178829Y-80790258D01*
X157226000Y-80751546D01*
X157273171Y-80790258D01*
X157409418Y-80863084D01*
X157557255Y-80907929D01*
X157711000Y-80923072D01*
X158011000Y-80923072D01*
X158164745Y-80907929D01*
X158312582Y-80863084D01*
X158371001Y-80831858D01*
X158371001Y-81841197D01*
X157886271Y-82325928D01*
X157623000Y-82325928D01*
X157454623Y-82342512D01*
X157292717Y-82391625D01*
X157143503Y-82471382D01*
X157118427Y-82491962D01*
X157121072Y-82329000D01*
X157108812Y-82204518D01*
X157072502Y-82084820D01*
X157013537Y-81974506D01*
X156934185Y-81877815D01*
X156837494Y-81798463D01*
X156727180Y-81739498D01*
X156607482Y-81703188D01*
X156483000Y-81690928D01*
X156368750Y-81694000D01*
X156210000Y-81852750D01*
X156210000Y-82677000D01*
X156230000Y-82677000D01*
X156230000Y-82931000D01*
X156210000Y-82931000D01*
X156210000Y-82951000D01*
X155956000Y-82951000D01*
X155956000Y-82931000D01*
X155936000Y-82931000D01*
X155936000Y-82677000D01*
X155956000Y-82677000D01*
X155956000Y-81852750D01*
X155797250Y-81694000D01*
X155683000Y-81690928D01*
X155558518Y-81703188D01*
X155438820Y-81739498D01*
X155328506Y-81798463D01*
X155231815Y-81877815D01*
X155200590Y-81915863D01*
X155098608Y-81832169D01*
X154953716Y-81754722D01*
X154796500Y-81707031D01*
X154633000Y-81690928D01*
X154233000Y-81690928D01*
X154069500Y-81707031D01*
X153912284Y-81754722D01*
X153767392Y-81832169D01*
X153640394Y-81936394D01*
X153536169Y-82063392D01*
X153458722Y-82208284D01*
X153411031Y-82365500D01*
X153394928Y-82529000D01*
X153394928Y-83079000D01*
X153411031Y-83242500D01*
X153458722Y-83399716D01*
X153536169Y-83544608D01*
X153640394Y-83671606D01*
X153736667Y-83750616D01*
X153662169Y-83841392D01*
X153584722Y-83986284D01*
X153537031Y-84143500D01*
X153520928Y-84307000D01*
X153520928Y-84857000D01*
X153537031Y-85020500D01*
X153584722Y-85177716D01*
X153662169Y-85322608D01*
X153766394Y-85449606D01*
X153799000Y-85476366D01*
X153799000Y-86195677D01*
X153795324Y-86233000D01*
X153799000Y-86270322D01*
X153799000Y-86270332D01*
X153809997Y-86381985D01*
X153844974Y-86497290D01*
X153853454Y-86525246D01*
X153924026Y-86657276D01*
X153944544Y-86682277D01*
X154018999Y-86773001D01*
X154045315Y-86794598D01*
X154067057Y-86835274D01*
X154163820Y-86953180D01*
X154281726Y-87049943D01*
X154323437Y-87072238D01*
X155069474Y-87818276D01*
X154940000Y-87947750D01*
X154940000Y-88747000D01*
X155764250Y-88747000D01*
X155881224Y-88630026D01*
X155900200Y-88649002D01*
X155923999Y-88678001D01*
X156039724Y-88772974D01*
X156089310Y-88799479D01*
X156123498Y-88912180D01*
X156182463Y-89022494D01*
X156261815Y-89119185D01*
X156358506Y-89198537D01*
X156432335Y-89238000D01*
X156358506Y-89277463D01*
X156261815Y-89356815D01*
X156182463Y-89453506D01*
X156123498Y-89563820D01*
X156119197Y-89578000D01*
X155872253Y-89578000D01*
X155877502Y-89568180D01*
X155913812Y-89448482D01*
X155926072Y-89324000D01*
X155923000Y-89159750D01*
X155764250Y-89001000D01*
X154940000Y-89001000D01*
X154940000Y-89021000D01*
X154686000Y-89021000D01*
X154686000Y-89001000D01*
X153861750Y-89001000D01*
X153703000Y-89159750D01*
X153699928Y-89324000D01*
X153712188Y-89448482D01*
X153748498Y-89568180D01*
X153807463Y-89678494D01*
X153843700Y-89722649D01*
X153765625Y-89868717D01*
X153716512Y-90030623D01*
X153699928Y-90199000D01*
X153699928Y-90649000D01*
X153716512Y-90817377D01*
X153765625Y-90979283D01*
X153845382Y-91128497D01*
X153952716Y-91259284D01*
X154053001Y-91341585D01*
X154053000Y-92828720D01*
X149094998Y-97786723D01*
X149066000Y-97810521D01*
X149042202Y-97839519D01*
X149042201Y-97839520D01*
X148971026Y-97926246D01*
X148900454Y-98058276D01*
X148880570Y-98123829D01*
X148856998Y-98201536D01*
X148847553Y-98297428D01*
X148842324Y-98350522D01*
X148846001Y-98387854D01*
X148846000Y-102293289D01*
X148802063Y-102337226D01*
X148688795Y-102506744D01*
X148610774Y-102695102D01*
X148571000Y-102895061D01*
X148571000Y-103098939D01*
X148610774Y-103298898D01*
X148688795Y-103487256D01*
X148802063Y-103656774D01*
X148946226Y-103800937D01*
X149115744Y-103914205D01*
X149304102Y-103992226D01*
X149504061Y-104032000D01*
X149707939Y-104032000D01*
X149907898Y-103992226D01*
X150096256Y-103914205D01*
X150265774Y-103800937D01*
X150409937Y-103656774D01*
X150523205Y-103487256D01*
X150601226Y-103298898D01*
X150641000Y-103098939D01*
X150641000Y-102895061D01*
X150601226Y-102695102D01*
X150523205Y-102506744D01*
X150409937Y-102337226D01*
X150366000Y-102293289D01*
X150366000Y-98665323D01*
X151454961Y-97576363D01*
X151469463Y-97603494D01*
X151548815Y-97700185D01*
X151645506Y-97779537D01*
X151755820Y-97838502D01*
X151875518Y-97874812D01*
X152000000Y-97887072D01*
X152114250Y-97884000D01*
X152273000Y-97725250D01*
X152273000Y-96901000D01*
X152253000Y-96901000D01*
X152253000Y-96778323D01*
X152404323Y-96627000D01*
X152527000Y-96627000D01*
X152527000Y-96647000D01*
X152547000Y-96647000D01*
X152547000Y-96901000D01*
X152527000Y-96901000D01*
X152527000Y-97725250D01*
X152685750Y-97884000D01*
X152800000Y-97887072D01*
X152924482Y-97874812D01*
X153044180Y-97838502D01*
X153154494Y-97779537D01*
X153251185Y-97700185D01*
X153282410Y-97662137D01*
X153384392Y-97745831D01*
X153529284Y-97823278D01*
X153686500Y-97870969D01*
X153850000Y-97887072D01*
X154250000Y-97887072D01*
X154413500Y-97870969D01*
X154570716Y-97823278D01*
X154705489Y-97751240D01*
X154707000Y-97758250D01*
X154865750Y-97917000D01*
X156040000Y-97917000D01*
X156040000Y-97897000D01*
X156294000Y-97897000D01*
X156294000Y-97917000D01*
X156314000Y-97917000D01*
X156314000Y-98171000D01*
X156294000Y-98171000D01*
X156294000Y-98191000D01*
X156040000Y-98191000D01*
X156040000Y-98171000D01*
X154865750Y-98171000D01*
X154707000Y-98329750D01*
X154703928Y-98344000D01*
X154716188Y-98468482D01*
X154752498Y-98588180D01*
X154811463Y-98698494D01*
X154835730Y-98728064D01*
X154763916Y-98862418D01*
X154719071Y-99010255D01*
X154703928Y-99164000D01*
X154703928Y-99464000D01*
X154719071Y-99617745D01*
X154763916Y-99765582D01*
X154836742Y-99901829D01*
X154934749Y-100021251D01*
X155054171Y-100119258D01*
X155190418Y-100192084D01*
X155338255Y-100236929D01*
X155492000Y-100252072D01*
X156030271Y-100252072D01*
X163606232Y-107828034D01*
X163526987Y-107803996D01*
X163415334Y-107792999D01*
X163415323Y-107792999D01*
X163378001Y-107789323D01*
X163340679Y-107792999D01*
X160154572Y-107792999D01*
X160243346Y-107578679D01*
X160335000Y-107117902D01*
X160335000Y-106648098D01*
X160243346Y-106187321D01*
X160063560Y-105753279D01*
X159802550Y-105362651D01*
X159470349Y-105030450D01*
X159079721Y-104769440D01*
X158645679Y-104589654D01*
X158184902Y-104498000D01*
X157715098Y-104498000D01*
X157254321Y-104589654D01*
X156820279Y-104769440D01*
X156429651Y-105030450D01*
X156097450Y-105362651D01*
X155836440Y-105753279D01*
X155656654Y-106187321D01*
X155565000Y-106648098D01*
X155565000Y-107117902D01*
X155656654Y-107578679D01*
X155836440Y-108012721D01*
X156097450Y-108403349D01*
X156429651Y-108735550D01*
X156587468Y-108841000D01*
X149928882Y-108841000D01*
X150621003Y-108148880D01*
X150650001Y-108125082D01*
X150676332Y-108092998D01*
X150744974Y-108009358D01*
X150815546Y-107877328D01*
X150824608Y-107847453D01*
X150859003Y-107734067D01*
X150865913Y-107663909D01*
X151056632Y-107536475D01*
X151263475Y-107329632D01*
X151425990Y-107086411D01*
X151537932Y-106816158D01*
X151595000Y-106529260D01*
X151595000Y-106236740D01*
X151537932Y-105949842D01*
X151425990Y-105679589D01*
X151263475Y-105436368D01*
X151056632Y-105229525D01*
X150813411Y-105067010D01*
X150543158Y-104955068D01*
X150256260Y-104898000D01*
X149963740Y-104898000D01*
X149676842Y-104955068D01*
X149406589Y-105067010D01*
X149163368Y-105229525D01*
X148956525Y-105436368D01*
X148840000Y-105610760D01*
X148723475Y-105436368D01*
X148516632Y-105229525D01*
X148330000Y-105104822D01*
X148330000Y-98040320D01*
X148333676Y-98002997D01*
X148330000Y-97965674D01*
X148330000Y-97965665D01*
X148319003Y-97854012D01*
X148275546Y-97710751D01*
X148204974Y-97578722D01*
X148191811Y-97562683D01*
X148133799Y-97491994D01*
X148133795Y-97491990D01*
X148110001Y-97462997D01*
X148081008Y-97439203D01*
X142873000Y-92231197D01*
X142873000Y-91072617D01*
X142900061Y-91078000D01*
X143103939Y-91078000D01*
X143303898Y-91038226D01*
X143492256Y-90960205D01*
X143661774Y-90846937D01*
X143716724Y-90791987D01*
X143859932Y-90748546D01*
X143991961Y-90677974D01*
X144107686Y-90583001D01*
X144131489Y-90553997D01*
X146261486Y-88424000D01*
X153699928Y-88424000D01*
X153703000Y-88588250D01*
X153861750Y-88747000D01*
X154686000Y-88747000D01*
X154686000Y-87947750D01*
X154527250Y-87789000D01*
X154338000Y-87785928D01*
X154213518Y-87798188D01*
X154093820Y-87834498D01*
X153983506Y-87893463D01*
X153886815Y-87972815D01*
X153807463Y-88069506D01*
X153748498Y-88179820D01*
X153712188Y-88299518D01*
X153699928Y-88424000D01*
X146261486Y-88424000D01*
X155652928Y-79032559D01*
X155652928Y-80135000D01*
%TA.AperFunction,Conductor*%
D32*
G36*
X155652928Y-80135000D02*
G01*
X155668071Y-80288745D01*
X155712916Y-80436582D01*
X155785742Y-80572829D01*
X155883749Y-80692251D01*
X156003171Y-80790258D01*
X156139418Y-80863084D01*
X156287255Y-80907929D01*
X156441000Y-80923072D01*
X156741000Y-80923072D01*
X156894745Y-80907929D01*
X157042582Y-80863084D01*
X157178829Y-80790258D01*
X157226000Y-80751546D01*
X157273171Y-80790258D01*
X157409418Y-80863084D01*
X157557255Y-80907929D01*
X157711000Y-80923072D01*
X158011000Y-80923072D01*
X158164745Y-80907929D01*
X158312582Y-80863084D01*
X158371001Y-80831858D01*
X158371001Y-81841197D01*
X157886271Y-82325928D01*
X157623000Y-82325928D01*
X157454623Y-82342512D01*
X157292717Y-82391625D01*
X157143503Y-82471382D01*
X157118427Y-82491962D01*
X157121072Y-82329000D01*
X157108812Y-82204518D01*
X157072502Y-82084820D01*
X157013537Y-81974506D01*
X156934185Y-81877815D01*
X156837494Y-81798463D01*
X156727180Y-81739498D01*
X156607482Y-81703188D01*
X156483000Y-81690928D01*
X156368750Y-81694000D01*
X156210000Y-81852750D01*
X156210000Y-82677000D01*
X156230000Y-82677000D01*
X156230000Y-82931000D01*
X156210000Y-82931000D01*
X156210000Y-82951000D01*
X155956000Y-82951000D01*
X155956000Y-82931000D01*
X155936000Y-82931000D01*
X155936000Y-82677000D01*
X155956000Y-82677000D01*
X155956000Y-81852750D01*
X155797250Y-81694000D01*
X155683000Y-81690928D01*
X155558518Y-81703188D01*
X155438820Y-81739498D01*
X155328506Y-81798463D01*
X155231815Y-81877815D01*
X155200590Y-81915863D01*
X155098608Y-81832169D01*
X154953716Y-81754722D01*
X154796500Y-81707031D01*
X154633000Y-81690928D01*
X154233000Y-81690928D01*
X154069500Y-81707031D01*
X153912284Y-81754722D01*
X153767392Y-81832169D01*
X153640394Y-81936394D01*
X153536169Y-82063392D01*
X153458722Y-82208284D01*
X153411031Y-82365500D01*
X153394928Y-82529000D01*
X153394928Y-83079000D01*
X153411031Y-83242500D01*
X153458722Y-83399716D01*
X153536169Y-83544608D01*
X153640394Y-83671606D01*
X153736667Y-83750616D01*
X153662169Y-83841392D01*
X153584722Y-83986284D01*
X153537031Y-84143500D01*
X153520928Y-84307000D01*
X153520928Y-84857000D01*
X153537031Y-85020500D01*
X153584722Y-85177716D01*
X153662169Y-85322608D01*
X153766394Y-85449606D01*
X153799000Y-85476366D01*
X153799000Y-86195677D01*
X153795324Y-86233000D01*
X153799000Y-86270322D01*
X153799000Y-86270332D01*
X153809997Y-86381985D01*
X153844974Y-86497290D01*
X153853454Y-86525246D01*
X153924026Y-86657276D01*
X153944544Y-86682277D01*
X154018999Y-86773001D01*
X154045315Y-86794598D01*
X154067057Y-86835274D01*
X154163820Y-86953180D01*
X154281726Y-87049943D01*
X154323437Y-87072238D01*
X155069474Y-87818276D01*
X154940000Y-87947750D01*
X154940000Y-88747000D01*
X155764250Y-88747000D01*
X155881224Y-88630026D01*
X155900200Y-88649002D01*
X155923999Y-88678001D01*
X156039724Y-88772974D01*
X156089310Y-88799479D01*
X156123498Y-88912180D01*
X156182463Y-89022494D01*
X156261815Y-89119185D01*
X156358506Y-89198537D01*
X156432335Y-89238000D01*
X156358506Y-89277463D01*
X156261815Y-89356815D01*
X156182463Y-89453506D01*
X156123498Y-89563820D01*
X156119197Y-89578000D01*
X155872253Y-89578000D01*
X155877502Y-89568180D01*
X155913812Y-89448482D01*
X155926072Y-89324000D01*
X155923000Y-89159750D01*
X155764250Y-89001000D01*
X154940000Y-89001000D01*
X154940000Y-89021000D01*
X154686000Y-89021000D01*
X154686000Y-89001000D01*
X153861750Y-89001000D01*
X153703000Y-89159750D01*
X153699928Y-89324000D01*
X153712188Y-89448482D01*
X153748498Y-89568180D01*
X153807463Y-89678494D01*
X153843700Y-89722649D01*
X153765625Y-89868717D01*
X153716512Y-90030623D01*
X153699928Y-90199000D01*
X153699928Y-90649000D01*
X153716512Y-90817377D01*
X153765625Y-90979283D01*
X153845382Y-91128497D01*
X153952716Y-91259284D01*
X154053001Y-91341585D01*
X154053000Y-92828720D01*
X149094998Y-97786723D01*
X149066000Y-97810521D01*
X149042202Y-97839519D01*
X149042201Y-97839520D01*
X148971026Y-97926246D01*
X148900454Y-98058276D01*
X148880570Y-98123829D01*
X148856998Y-98201536D01*
X148847553Y-98297428D01*
X148842324Y-98350522D01*
X148846001Y-98387854D01*
X148846000Y-102293289D01*
X148802063Y-102337226D01*
X148688795Y-102506744D01*
X148610774Y-102695102D01*
X148571000Y-102895061D01*
X148571000Y-103098939D01*
X148610774Y-103298898D01*
X148688795Y-103487256D01*
X148802063Y-103656774D01*
X148946226Y-103800937D01*
X149115744Y-103914205D01*
X149304102Y-103992226D01*
X149504061Y-104032000D01*
X149707939Y-104032000D01*
X149907898Y-103992226D01*
X150096256Y-103914205D01*
X150265774Y-103800937D01*
X150409937Y-103656774D01*
X150523205Y-103487256D01*
X150601226Y-103298898D01*
X150641000Y-103098939D01*
X150641000Y-102895061D01*
X150601226Y-102695102D01*
X150523205Y-102506744D01*
X150409937Y-102337226D01*
X150366000Y-102293289D01*
X150366000Y-98665323D01*
X151454961Y-97576363D01*
X151469463Y-97603494D01*
X151548815Y-97700185D01*
X151645506Y-97779537D01*
X151755820Y-97838502D01*
X151875518Y-97874812D01*
X152000000Y-97887072D01*
X152114250Y-97884000D01*
X152273000Y-97725250D01*
X152273000Y-96901000D01*
X152253000Y-96901000D01*
X152253000Y-96778323D01*
X152404323Y-96627000D01*
X152527000Y-96627000D01*
X152527000Y-96647000D01*
X152547000Y-96647000D01*
X152547000Y-96901000D01*
X152527000Y-96901000D01*
X152527000Y-97725250D01*
X152685750Y-97884000D01*
X152800000Y-97887072D01*
X152924482Y-97874812D01*
X153044180Y-97838502D01*
X153154494Y-97779537D01*
X153251185Y-97700185D01*
X153282410Y-97662137D01*
X153384392Y-97745831D01*
X153529284Y-97823278D01*
X153686500Y-97870969D01*
X153850000Y-97887072D01*
X154250000Y-97887072D01*
X154413500Y-97870969D01*
X154570716Y-97823278D01*
X154705489Y-97751240D01*
X154707000Y-97758250D01*
X154865750Y-97917000D01*
X156040000Y-97917000D01*
X156040000Y-97897000D01*
X156294000Y-97897000D01*
X156294000Y-97917000D01*
X156314000Y-97917000D01*
X156314000Y-98171000D01*
X156294000Y-98171000D01*
X156294000Y-98191000D01*
X156040000Y-98191000D01*
X156040000Y-98171000D01*
X154865750Y-98171000D01*
X154707000Y-98329750D01*
X154703928Y-98344000D01*
X154716188Y-98468482D01*
X154752498Y-98588180D01*
X154811463Y-98698494D01*
X154835730Y-98728064D01*
X154763916Y-98862418D01*
X154719071Y-99010255D01*
X154703928Y-99164000D01*
X154703928Y-99464000D01*
X154719071Y-99617745D01*
X154763916Y-99765582D01*
X154836742Y-99901829D01*
X154934749Y-100021251D01*
X155054171Y-100119258D01*
X155190418Y-100192084D01*
X155338255Y-100236929D01*
X155492000Y-100252072D01*
X156030271Y-100252072D01*
X163606232Y-107828034D01*
X163526987Y-107803996D01*
X163415334Y-107792999D01*
X163415323Y-107792999D01*
X163378001Y-107789323D01*
X163340679Y-107792999D01*
X160154572Y-107792999D01*
X160243346Y-107578679D01*
X160335000Y-107117902D01*
X160335000Y-106648098D01*
X160243346Y-106187321D01*
X160063560Y-105753279D01*
X159802550Y-105362651D01*
X159470349Y-105030450D01*
X159079721Y-104769440D01*
X158645679Y-104589654D01*
X158184902Y-104498000D01*
X157715098Y-104498000D01*
X157254321Y-104589654D01*
X156820279Y-104769440D01*
X156429651Y-105030450D01*
X156097450Y-105362651D01*
X155836440Y-105753279D01*
X155656654Y-106187321D01*
X155565000Y-106648098D01*
X155565000Y-107117902D01*
X155656654Y-107578679D01*
X155836440Y-108012721D01*
X156097450Y-108403349D01*
X156429651Y-108735550D01*
X156587468Y-108841000D01*
X149928882Y-108841000D01*
X150621003Y-108148880D01*
X150650001Y-108125082D01*
X150676332Y-108092998D01*
X150744974Y-108009358D01*
X150815546Y-107877328D01*
X150824608Y-107847453D01*
X150859003Y-107734067D01*
X150865913Y-107663909D01*
X151056632Y-107536475D01*
X151263475Y-107329632D01*
X151425990Y-107086411D01*
X151537932Y-106816158D01*
X151595000Y-106529260D01*
X151595000Y-106236740D01*
X151537932Y-105949842D01*
X151425990Y-105679589D01*
X151263475Y-105436368D01*
X151056632Y-105229525D01*
X150813411Y-105067010D01*
X150543158Y-104955068D01*
X150256260Y-104898000D01*
X149963740Y-104898000D01*
X149676842Y-104955068D01*
X149406589Y-105067010D01*
X149163368Y-105229525D01*
X148956525Y-105436368D01*
X148840000Y-105610760D01*
X148723475Y-105436368D01*
X148516632Y-105229525D01*
X148330000Y-105104822D01*
X148330000Y-98040320D01*
X148333676Y-98002997D01*
X148330000Y-97965674D01*
X148330000Y-97965665D01*
X148319003Y-97854012D01*
X148275546Y-97710751D01*
X148204974Y-97578722D01*
X148191811Y-97562683D01*
X148133799Y-97491994D01*
X148133795Y-97491990D01*
X148110001Y-97462997D01*
X148081008Y-97439203D01*
X142873000Y-92231197D01*
X142873000Y-91072617D01*
X142900061Y-91078000D01*
X143103939Y-91078000D01*
X143303898Y-91038226D01*
X143492256Y-90960205D01*
X143661774Y-90846937D01*
X143716724Y-90791987D01*
X143859932Y-90748546D01*
X143991961Y-90677974D01*
X144107686Y-90583001D01*
X144131489Y-90553997D01*
X146261486Y-88424000D01*
X153699928Y-88424000D01*
X153703000Y-88588250D01*
X153861750Y-88747000D01*
X154686000Y-88747000D01*
X154686000Y-87947750D01*
X154527250Y-87789000D01*
X154338000Y-87785928D01*
X154213518Y-87798188D01*
X154093820Y-87834498D01*
X153983506Y-87893463D01*
X153886815Y-87972815D01*
X153807463Y-88069506D01*
X153748498Y-88179820D01*
X153712188Y-88299518D01*
X153699928Y-88424000D01*
X146261486Y-88424000D01*
X155652928Y-79032559D01*
X155652928Y-80135000D01*
G37*
%TD.AperFunction*%
D31*
X127165990Y-92920501D02*
X127162314Y-92957824D01*
X127165990Y-92995146D01*
X127165990Y-92995156D01*
X127176987Y-93106809D01*
X127199484Y-93180972D01*
X127220444Y-93250070D01*
X127291016Y-93382100D01*
X127308057Y-93402864D01*
X127385989Y-93497825D01*
X127414993Y-93521628D01*
X129064112Y-95170747D01*
X129065000Y-95218250D01*
X129223750Y-95377000D01*
X129297259Y-95377000D01*
X129363291Y-95412295D01*
X129404919Y-95434546D01*
X129548180Y-95478003D01*
X129659833Y-95489000D01*
X129659842Y-95489000D01*
X129697165Y-95492676D01*
X129734488Y-95489000D01*
X130322000Y-95489000D01*
X130322000Y-95631000D01*
X130302000Y-95631000D01*
X130302000Y-96430250D01*
X130460750Y-96589000D01*
X130650000Y-96592072D01*
X130774482Y-96579812D01*
X130894180Y-96543502D01*
X131004494Y-96484537D01*
X131101185Y-96405185D01*
X131180537Y-96308494D01*
X131222739Y-96229541D01*
X132060216Y-97067019D01*
X132050916Y-97084418D01*
X132006071Y-97232255D01*
X131990928Y-97386000D01*
X131990928Y-97686000D01*
X132006071Y-97839745D01*
X132050916Y-97987582D01*
X132123742Y-98123829D01*
X132162454Y-98171000D01*
X132123742Y-98218171D01*
X132050916Y-98354418D01*
X132006071Y-98502255D01*
X131990928Y-98656000D01*
X131990928Y-98956000D01*
X132006071Y-99109745D01*
X132050916Y-99257582D01*
X132123742Y-99393829D01*
X132162454Y-99441000D01*
X132123742Y-99488171D01*
X132050916Y-99624418D01*
X132006071Y-99772255D01*
X131990928Y-99926000D01*
X131990928Y-100226000D01*
X131991959Y-100236471D01*
X129028998Y-103199433D01*
X129000000Y-103223231D01*
X128976202Y-103252229D01*
X128976201Y-103252230D01*
X128905026Y-103338956D01*
X128834454Y-103470986D01*
X128813238Y-103540928D01*
X128690000Y-103540928D01*
X128565518Y-103553188D01*
X128445820Y-103589498D01*
X128335506Y-103648463D01*
X128238815Y-103727815D01*
X128159463Y-103824506D01*
X128100498Y-103934820D01*
X128076034Y-104015466D01*
X128000269Y-103931412D01*
X127766920Y-103757359D01*
X127504099Y-103632175D01*
X127356890Y-103587524D01*
X127127000Y-103708845D01*
X127127000Y-104902000D01*
X127147000Y-104902000D01*
X127147000Y-105156000D01*
X127127000Y-105156000D01*
X127127000Y-105176000D01*
X126873000Y-105176000D01*
X126873000Y-105156000D01*
X126853000Y-105156000D01*
X126853000Y-104902000D01*
X126873000Y-104902000D01*
X126873000Y-103708845D01*
X126643110Y-103587524D01*
X126584999Y-103605150D01*
X126584999Y-95954000D01*
X129061928Y-95954000D01*
X129074188Y-96078482D01*
X129110498Y-96198180D01*
X129169463Y-96308494D01*
X129248815Y-96405185D01*
X129345506Y-96484537D01*
X129455820Y-96543502D01*
X129575518Y-96579812D01*
X129700000Y-96592072D01*
X129889250Y-96589000D01*
X130048000Y-96430250D01*
X130048000Y-95631000D01*
X129223750Y-95631000D01*
X129065000Y-95789750D01*
X129061928Y-95954000D01*
X126584999Y-95954000D01*
X126584999Y-90214366D01*
X126612975Y-90180277D01*
X126683547Y-90048248D01*
X126727004Y-89904987D01*
X126738001Y-89793334D01*
X126738001Y-89793333D01*
X126741678Y-89756001D01*
X126738001Y-89718668D01*
X126738001Y-87971072D01*
X127165991Y-87971072D01*
X127165990Y-92920501D01*
%TA.AperFunction,Conductor*%
D32*
G36*
X127165990Y-92920501D02*
G01*
X127162314Y-92957824D01*
X127165990Y-92995146D01*
X127165990Y-92995156D01*
X127176987Y-93106809D01*
X127199484Y-93180972D01*
X127220444Y-93250070D01*
X127291016Y-93382100D01*
X127308057Y-93402864D01*
X127385989Y-93497825D01*
X127414993Y-93521628D01*
X129064112Y-95170747D01*
X129065000Y-95218250D01*
X129223750Y-95377000D01*
X129297259Y-95377000D01*
X129363291Y-95412295D01*
X129404919Y-95434546D01*
X129548180Y-95478003D01*
X129659833Y-95489000D01*
X129659842Y-95489000D01*
X129697165Y-95492676D01*
X129734488Y-95489000D01*
X130322000Y-95489000D01*
X130322000Y-95631000D01*
X130302000Y-95631000D01*
X130302000Y-96430250D01*
X130460750Y-96589000D01*
X130650000Y-96592072D01*
X130774482Y-96579812D01*
X130894180Y-96543502D01*
X131004494Y-96484537D01*
X131101185Y-96405185D01*
X131180537Y-96308494D01*
X131222739Y-96229541D01*
X132060216Y-97067019D01*
X132050916Y-97084418D01*
X132006071Y-97232255D01*
X131990928Y-97386000D01*
X131990928Y-97686000D01*
X132006071Y-97839745D01*
X132050916Y-97987582D01*
X132123742Y-98123829D01*
X132162454Y-98171000D01*
X132123742Y-98218171D01*
X132050916Y-98354418D01*
X132006071Y-98502255D01*
X131990928Y-98656000D01*
X131990928Y-98956000D01*
X132006071Y-99109745D01*
X132050916Y-99257582D01*
X132123742Y-99393829D01*
X132162454Y-99441000D01*
X132123742Y-99488171D01*
X132050916Y-99624418D01*
X132006071Y-99772255D01*
X131990928Y-99926000D01*
X131990928Y-100226000D01*
X131991959Y-100236471D01*
X129028998Y-103199433D01*
X129000000Y-103223231D01*
X128976202Y-103252229D01*
X128976201Y-103252230D01*
X128905026Y-103338956D01*
X128834454Y-103470986D01*
X128813238Y-103540928D01*
X128690000Y-103540928D01*
X128565518Y-103553188D01*
X128445820Y-103589498D01*
X128335506Y-103648463D01*
X128238815Y-103727815D01*
X128159463Y-103824506D01*
X128100498Y-103934820D01*
X128076034Y-104015466D01*
X128000269Y-103931412D01*
X127766920Y-103757359D01*
X127504099Y-103632175D01*
X127356890Y-103587524D01*
X127127000Y-103708845D01*
X127127000Y-104902000D01*
X127147000Y-104902000D01*
X127147000Y-105156000D01*
X127127000Y-105156000D01*
X127127000Y-105176000D01*
X126873000Y-105176000D01*
X126873000Y-105156000D01*
X126853000Y-105156000D01*
X126853000Y-104902000D01*
X126873000Y-104902000D01*
X126873000Y-103708845D01*
X126643110Y-103587524D01*
X126584999Y-103605150D01*
X126584999Y-95954000D01*
X129061928Y-95954000D01*
X129074188Y-96078482D01*
X129110498Y-96198180D01*
X129169463Y-96308494D01*
X129248815Y-96405185D01*
X129345506Y-96484537D01*
X129455820Y-96543502D01*
X129575518Y-96579812D01*
X129700000Y-96592072D01*
X129889250Y-96589000D01*
X130048000Y-96430250D01*
X130048000Y-95631000D01*
X129223750Y-95631000D01*
X129065000Y-95789750D01*
X129061928Y-95954000D01*
X126584999Y-95954000D01*
X126584999Y-90214366D01*
X126612975Y-90180277D01*
X126683547Y-90048248D01*
X126727004Y-89904987D01*
X126738001Y-89793334D01*
X126738001Y-89793333D01*
X126741678Y-89756001D01*
X126738001Y-89718668D01*
X126738001Y-87971072D01*
X127165991Y-87971072D01*
X127165990Y-92920501D01*
G37*
%TD.AperFunction*%
D31*
X145445002Y-98005804D02*
X145445002Y-98997444D01*
X145371475Y-98923917D01*
X145255807Y-99039585D01*
X145160044Y-98775186D01*
X144870429Y-98634296D01*
X144558892Y-98552616D01*
X144237405Y-98533282D01*
X143918325Y-98577039D01*
X143613912Y-98682205D01*
X143439956Y-98775186D01*
X143344192Y-99039587D01*
X144300000Y-99995395D01*
X144314143Y-99981253D01*
X144493748Y-100160858D01*
X144479605Y-100175000D01*
X144493748Y-100189143D01*
X144314143Y-100368748D01*
X144300000Y-100354605D01*
X143344192Y-101310413D01*
X143439956Y-101574814D01*
X143729571Y-101715704D01*
X144041108Y-101797384D01*
X144362595Y-101816718D01*
X144681675Y-101772961D01*
X144986088Y-101667795D01*
X145160044Y-101574814D01*
X145255807Y-101310415D01*
X145371475Y-101426083D01*
X145445002Y-101352556D01*
X145445001Y-104951456D01*
X145176260Y-104898000D01*
X144883740Y-104898000D01*
X144663592Y-104941790D01*
X142746000Y-103024199D01*
X142746000Y-100683924D01*
X142807205Y-100861088D01*
X142900186Y-101035044D01*
X143164587Y-101130808D01*
X144120395Y-100175000D01*
X143164587Y-99219192D01*
X142900186Y-99314956D01*
X142759296Y-99604571D01*
X142746000Y-99655283D01*
X142746000Y-97346486D01*
X142836561Y-97364500D01*
X143040439Y-97364500D01*
X143240398Y-97324726D01*
X143428756Y-97246705D01*
X143598274Y-97133437D01*
X143742437Y-96989274D01*
X143855705Y-96819756D01*
X143933726Y-96631398D01*
X143956434Y-96517236D01*
X145445002Y-98005804D01*
%TA.AperFunction,Conductor*%
D32*
G36*
X145445002Y-98005804D02*
G01*
X145445002Y-98997444D01*
X145371475Y-98923917D01*
X145255807Y-99039585D01*
X145160044Y-98775186D01*
X144870429Y-98634296D01*
X144558892Y-98552616D01*
X144237405Y-98533282D01*
X143918325Y-98577039D01*
X143613912Y-98682205D01*
X143439956Y-98775186D01*
X143344192Y-99039587D01*
X144300000Y-99995395D01*
X144314143Y-99981253D01*
X144493748Y-100160858D01*
X144479605Y-100175000D01*
X144493748Y-100189143D01*
X144314143Y-100368748D01*
X144300000Y-100354605D01*
X143344192Y-101310413D01*
X143439956Y-101574814D01*
X143729571Y-101715704D01*
X144041108Y-101797384D01*
X144362595Y-101816718D01*
X144681675Y-101772961D01*
X144986088Y-101667795D01*
X145160044Y-101574814D01*
X145255807Y-101310415D01*
X145371475Y-101426083D01*
X145445002Y-101352556D01*
X145445001Y-104951456D01*
X145176260Y-104898000D01*
X144883740Y-104898000D01*
X144663592Y-104941790D01*
X142746000Y-103024199D01*
X142746000Y-100683924D01*
X142807205Y-100861088D01*
X142900186Y-101035044D01*
X143164587Y-101130808D01*
X144120395Y-100175000D01*
X143164587Y-99219192D01*
X142900186Y-99314956D01*
X142759296Y-99604571D01*
X142746000Y-99655283D01*
X142746000Y-97346486D01*
X142836561Y-97364500D01*
X143040439Y-97364500D01*
X143240398Y-97324726D01*
X143428756Y-97246705D01*
X143598274Y-97133437D01*
X143742437Y-96989274D01*
X143855705Y-96819756D01*
X143933726Y-96631398D01*
X143956434Y-96517236D01*
X145445002Y-98005804D01*
G37*
%TD.AperFunction*%
D31*
X156123498Y-91112180D02*
X156182463Y-91222494D01*
X156261815Y-91319185D01*
X156358506Y-91398537D01*
X156468820Y-91457502D01*
X156588518Y-91493812D01*
X156713000Y-91506072D01*
X157363000Y-91506072D01*
X157487482Y-91493812D01*
X157607180Y-91457502D01*
X157717494Y-91398537D01*
X157814185Y-91319185D01*
X157893537Y-91222494D01*
X157952502Y-91112180D01*
X157956803Y-91098000D01*
X158019197Y-91098000D01*
X158023498Y-91112180D01*
X158082463Y-91222494D01*
X158161815Y-91319185D01*
X158258506Y-91398537D01*
X158368820Y-91457502D01*
X158488518Y-91493812D01*
X158613000Y-91506072D01*
X159263000Y-91506072D01*
X159387482Y-91493812D01*
X159507180Y-91457502D01*
X159617494Y-91398537D01*
X159714185Y-91319185D01*
X159793537Y-91222494D01*
X159832286Y-91150000D01*
X159995857Y-91150000D01*
X160048885Y-91214615D01*
X160178725Y-91321171D01*
X160326858Y-91400350D01*
X160487592Y-91449108D01*
X160654750Y-91465572D01*
X161417250Y-91465572D01*
X161584408Y-91449108D01*
X161745142Y-91400350D01*
X161893275Y-91321171D01*
X162023115Y-91214615D01*
X162076143Y-91150000D01*
X162665677Y-91150000D01*
X164343565Y-92827888D01*
X164306394Y-92858394D01*
X164274000Y-92897866D01*
X164241606Y-92858394D01*
X164114608Y-92754169D01*
X163969716Y-92676722D01*
X163812500Y-92629031D01*
X163649000Y-92612928D01*
X163249000Y-92612928D01*
X163085500Y-92629031D01*
X162928284Y-92676722D01*
X162783392Y-92754169D01*
X162656394Y-92858394D01*
X162568084Y-92966000D01*
X162504875Y-92966000D01*
X162488488Y-92799623D01*
X162439375Y-92637717D01*
X162359618Y-92488503D01*
X162252284Y-92357716D01*
X162121497Y-92250382D01*
X161972283Y-92170625D01*
X161810377Y-92121512D01*
X161642000Y-92104928D01*
X161192000Y-92104928D01*
X161023623Y-92121512D01*
X160861717Y-92170625D01*
X160715649Y-92248700D01*
X160671494Y-92212463D01*
X160561180Y-92153498D01*
X160441482Y-92117188D01*
X160317000Y-92104928D01*
X160152750Y-92108000D01*
X159994000Y-92266750D01*
X159994000Y-93091000D01*
X160014000Y-93091000D01*
X160014000Y-93345000D01*
X159994000Y-93345000D01*
X159994000Y-94169250D01*
X160152750Y-94328000D01*
X160317000Y-94331072D01*
X160441482Y-94318812D01*
X160561180Y-94282502D01*
X160671494Y-94223537D01*
X160715649Y-94187300D01*
X160861717Y-94265375D01*
X161023623Y-94314488D01*
X161192000Y-94331072D01*
X161464288Y-94331072D01*
X161500724Y-94360974D01*
X161632753Y-94431546D01*
X161776014Y-94475003D01*
X161887667Y-94486000D01*
X161887676Y-94486000D01*
X161924999Y-94489676D01*
X161962322Y-94486000D01*
X162568084Y-94486000D01*
X162656394Y-94593606D01*
X162682463Y-94615000D01*
X162656394Y-94636394D01*
X162574882Y-94735716D01*
X162529829Y-94698742D01*
X162393582Y-94625916D01*
X162245745Y-94581071D01*
X162092000Y-94565928D01*
X160742000Y-94565928D01*
X160588255Y-94581071D01*
X160440418Y-94625916D01*
X160304171Y-94698742D01*
X160184749Y-94796749D01*
X160086742Y-94916171D01*
X160013916Y-95052418D01*
X159969071Y-95200255D01*
X159953928Y-95354000D01*
X159953928Y-95654000D01*
X159954959Y-95664471D01*
X157627000Y-97992431D01*
X157627000Y-97916998D01*
X157468252Y-97916998D01*
X157627000Y-97758250D01*
X157630072Y-97744000D01*
X157617812Y-97619518D01*
X157581502Y-97499820D01*
X157522537Y-97389506D01*
X157498270Y-97359936D01*
X157570084Y-97225582D01*
X157614929Y-97077745D01*
X157630072Y-96924000D01*
X157630072Y-96624000D01*
X157614929Y-96470255D01*
X157570084Y-96322418D01*
X157498270Y-96188064D01*
X157522537Y-96158494D01*
X157581502Y-96048180D01*
X157617812Y-95928482D01*
X157630072Y-95804000D01*
X157627000Y-95789750D01*
X157468250Y-95631000D01*
X156294000Y-95631000D01*
X156294000Y-95651000D01*
X156040000Y-95651000D01*
X156040000Y-95631000D01*
X154865750Y-95631000D01*
X154707000Y-95789750D01*
X154705489Y-95796760D01*
X154570716Y-95724722D01*
X154413500Y-95677031D01*
X154250000Y-95660928D01*
X153850000Y-95660928D01*
X153686500Y-95677031D01*
X153529284Y-95724722D01*
X153384392Y-95802169D01*
X153282410Y-95885863D01*
X153251185Y-95847815D01*
X153214014Y-95817310D01*
X153827324Y-95204000D01*
X154703928Y-95204000D01*
X154707000Y-95218250D01*
X154865750Y-95377000D01*
X156040000Y-95377000D01*
X156040000Y-94727750D01*
X156294000Y-94727750D01*
X156294000Y-95377000D01*
X157468250Y-95377000D01*
X157627000Y-95218250D01*
X157630072Y-95204000D01*
X157617812Y-95079518D01*
X157581502Y-94959820D01*
X157522537Y-94849506D01*
X157443185Y-94752815D01*
X157346494Y-94673463D01*
X157236180Y-94614498D01*
X157116482Y-94578188D01*
X156992000Y-94565928D01*
X156452750Y-94569000D01*
X156294000Y-94727750D01*
X156040000Y-94727750D01*
X155881250Y-94569000D01*
X155342000Y-94565928D01*
X155217518Y-94578188D01*
X155097820Y-94614498D01*
X154987506Y-94673463D01*
X154890815Y-94752815D01*
X154811463Y-94849506D01*
X154752498Y-94959820D01*
X154716188Y-95079518D01*
X154703928Y-95204000D01*
X153827324Y-95204000D01*
X155324004Y-93707320D01*
X155341453Y-93693000D01*
X158778928Y-93693000D01*
X158791188Y-93817482D01*
X158827498Y-93937180D01*
X158886463Y-94047494D01*
X158965815Y-94144185D01*
X159062506Y-94223537D01*
X159172820Y-94282502D01*
X159292518Y-94318812D01*
X159417000Y-94331072D01*
X159581250Y-94328000D01*
X159740000Y-94169250D01*
X159740000Y-93345000D01*
X158940750Y-93345000D01*
X158782000Y-93503750D01*
X158778928Y-93693000D01*
X155341453Y-93693000D01*
X155353001Y-93683523D01*
X155396105Y-93631001D01*
X155447974Y-93567799D01*
X155518546Y-93435769D01*
X155529785Y-93398717D01*
X155562003Y-93292508D01*
X155573000Y-93180855D01*
X155573000Y-93180845D01*
X155576676Y-93143523D01*
X155573000Y-93106200D01*
X155573000Y-92743000D01*
X158778928Y-92743000D01*
X158782000Y-92932250D01*
X158940750Y-93091000D01*
X159740000Y-93091000D01*
X159740000Y-92266750D01*
X159581250Y-92108000D01*
X159417000Y-92104928D01*
X159292518Y-92117188D01*
X159172820Y-92153498D01*
X159062506Y-92212463D01*
X158965815Y-92291815D01*
X158886463Y-92388506D01*
X158827498Y-92498820D01*
X158791188Y-92618518D01*
X158778928Y-92743000D01*
X155573000Y-92743000D01*
X155573000Y-91341585D01*
X155673284Y-91259284D01*
X155780618Y-91128497D01*
X155796919Y-91098000D01*
X156119197Y-91098000D01*
X156123498Y-91112180D01*
%TA.AperFunction,Conductor*%
D32*
G36*
X156123498Y-91112180D02*
G01*
X156182463Y-91222494D01*
X156261815Y-91319185D01*
X156358506Y-91398537D01*
X156468820Y-91457502D01*
X156588518Y-91493812D01*
X156713000Y-91506072D01*
X157363000Y-91506072D01*
X157487482Y-91493812D01*
X157607180Y-91457502D01*
X157717494Y-91398537D01*
X157814185Y-91319185D01*
X157893537Y-91222494D01*
X157952502Y-91112180D01*
X157956803Y-91098000D01*
X158019197Y-91098000D01*
X158023498Y-91112180D01*
X158082463Y-91222494D01*
X158161815Y-91319185D01*
X158258506Y-91398537D01*
X158368820Y-91457502D01*
X158488518Y-91493812D01*
X158613000Y-91506072D01*
X159263000Y-91506072D01*
X159387482Y-91493812D01*
X159507180Y-91457502D01*
X159617494Y-91398537D01*
X159714185Y-91319185D01*
X159793537Y-91222494D01*
X159832286Y-91150000D01*
X159995857Y-91150000D01*
X160048885Y-91214615D01*
X160178725Y-91321171D01*
X160326858Y-91400350D01*
X160487592Y-91449108D01*
X160654750Y-91465572D01*
X161417250Y-91465572D01*
X161584408Y-91449108D01*
X161745142Y-91400350D01*
X161893275Y-91321171D01*
X162023115Y-91214615D01*
X162076143Y-91150000D01*
X162665677Y-91150000D01*
X164343565Y-92827888D01*
X164306394Y-92858394D01*
X164274000Y-92897866D01*
X164241606Y-92858394D01*
X164114608Y-92754169D01*
X163969716Y-92676722D01*
X163812500Y-92629031D01*
X163649000Y-92612928D01*
X163249000Y-92612928D01*
X163085500Y-92629031D01*
X162928284Y-92676722D01*
X162783392Y-92754169D01*
X162656394Y-92858394D01*
X162568084Y-92966000D01*
X162504875Y-92966000D01*
X162488488Y-92799623D01*
X162439375Y-92637717D01*
X162359618Y-92488503D01*
X162252284Y-92357716D01*
X162121497Y-92250382D01*
X161972283Y-92170625D01*
X161810377Y-92121512D01*
X161642000Y-92104928D01*
X161192000Y-92104928D01*
X161023623Y-92121512D01*
X160861717Y-92170625D01*
X160715649Y-92248700D01*
X160671494Y-92212463D01*
X160561180Y-92153498D01*
X160441482Y-92117188D01*
X160317000Y-92104928D01*
X160152750Y-92108000D01*
X159994000Y-92266750D01*
X159994000Y-93091000D01*
X160014000Y-93091000D01*
X160014000Y-93345000D01*
X159994000Y-93345000D01*
X159994000Y-94169250D01*
X160152750Y-94328000D01*
X160317000Y-94331072D01*
X160441482Y-94318812D01*
X160561180Y-94282502D01*
X160671494Y-94223537D01*
X160715649Y-94187300D01*
X160861717Y-94265375D01*
X161023623Y-94314488D01*
X161192000Y-94331072D01*
X161464288Y-94331072D01*
X161500724Y-94360974D01*
X161632753Y-94431546D01*
X161776014Y-94475003D01*
X161887667Y-94486000D01*
X161887676Y-94486000D01*
X161924999Y-94489676D01*
X161962322Y-94486000D01*
X162568084Y-94486000D01*
X162656394Y-94593606D01*
X162682463Y-94615000D01*
X162656394Y-94636394D01*
X162574882Y-94735716D01*
X162529829Y-94698742D01*
X162393582Y-94625916D01*
X162245745Y-94581071D01*
X162092000Y-94565928D01*
X160742000Y-94565928D01*
X160588255Y-94581071D01*
X160440418Y-94625916D01*
X160304171Y-94698742D01*
X160184749Y-94796749D01*
X160086742Y-94916171D01*
X160013916Y-95052418D01*
X159969071Y-95200255D01*
X159953928Y-95354000D01*
X159953928Y-95654000D01*
X159954959Y-95664471D01*
X157627000Y-97992431D01*
X157627000Y-97916998D01*
X157468252Y-97916998D01*
X157627000Y-97758250D01*
X157630072Y-97744000D01*
X157617812Y-97619518D01*
X157581502Y-97499820D01*
X157522537Y-97389506D01*
X157498270Y-97359936D01*
X157570084Y-97225582D01*
X157614929Y-97077745D01*
X157630072Y-96924000D01*
X157630072Y-96624000D01*
X157614929Y-96470255D01*
X157570084Y-96322418D01*
X157498270Y-96188064D01*
X157522537Y-96158494D01*
X157581502Y-96048180D01*
X157617812Y-95928482D01*
X157630072Y-95804000D01*
X157627000Y-95789750D01*
X157468250Y-95631000D01*
X156294000Y-95631000D01*
X156294000Y-95651000D01*
X156040000Y-95651000D01*
X156040000Y-95631000D01*
X154865750Y-95631000D01*
X154707000Y-95789750D01*
X154705489Y-95796760D01*
X154570716Y-95724722D01*
X154413500Y-95677031D01*
X154250000Y-95660928D01*
X153850000Y-95660928D01*
X153686500Y-95677031D01*
X153529284Y-95724722D01*
X153384392Y-95802169D01*
X153282410Y-95885863D01*
X153251185Y-95847815D01*
X153214014Y-95817310D01*
X153827324Y-95204000D01*
X154703928Y-95204000D01*
X154707000Y-95218250D01*
X154865750Y-95377000D01*
X156040000Y-95377000D01*
X156040000Y-94727750D01*
X156294000Y-94727750D01*
X156294000Y-95377000D01*
X157468250Y-95377000D01*
X157627000Y-95218250D01*
X157630072Y-95204000D01*
X157617812Y-95079518D01*
X157581502Y-94959820D01*
X157522537Y-94849506D01*
X157443185Y-94752815D01*
X157346494Y-94673463D01*
X157236180Y-94614498D01*
X157116482Y-94578188D01*
X156992000Y-94565928D01*
X156452750Y-94569000D01*
X156294000Y-94727750D01*
X156040000Y-94727750D01*
X155881250Y-94569000D01*
X155342000Y-94565928D01*
X155217518Y-94578188D01*
X155097820Y-94614498D01*
X154987506Y-94673463D01*
X154890815Y-94752815D01*
X154811463Y-94849506D01*
X154752498Y-94959820D01*
X154716188Y-95079518D01*
X154703928Y-95204000D01*
X153827324Y-95204000D01*
X155324004Y-93707320D01*
X155341453Y-93693000D01*
X158778928Y-93693000D01*
X158791188Y-93817482D01*
X158827498Y-93937180D01*
X158886463Y-94047494D01*
X158965815Y-94144185D01*
X159062506Y-94223537D01*
X159172820Y-94282502D01*
X159292518Y-94318812D01*
X159417000Y-94331072D01*
X159581250Y-94328000D01*
X159740000Y-94169250D01*
X159740000Y-93345000D01*
X158940750Y-93345000D01*
X158782000Y-93503750D01*
X158778928Y-93693000D01*
X155341453Y-93693000D01*
X155353001Y-93683523D01*
X155396105Y-93631001D01*
X155447974Y-93567799D01*
X155518546Y-93435769D01*
X155529785Y-93398717D01*
X155562003Y-93292508D01*
X155573000Y-93180855D01*
X155573000Y-93180845D01*
X155576676Y-93143523D01*
X155573000Y-93106200D01*
X155573000Y-92743000D01*
X158778928Y-92743000D01*
X158782000Y-92932250D01*
X158940750Y-93091000D01*
X159740000Y-93091000D01*
X159740000Y-92266750D01*
X159581250Y-92108000D01*
X159417000Y-92104928D01*
X159292518Y-92117188D01*
X159172820Y-92153498D01*
X159062506Y-92212463D01*
X158965815Y-92291815D01*
X158886463Y-92388506D01*
X158827498Y-92498820D01*
X158791188Y-92618518D01*
X158778928Y-92743000D01*
X155573000Y-92743000D01*
X155573000Y-91341585D01*
X155673284Y-91259284D01*
X155780618Y-91128497D01*
X155796919Y-91098000D01*
X156119197Y-91098000D01*
X156123498Y-91112180D01*
G37*
%TD.AperFunction*%
D31*
X133581971Y-91741000D02*
X133567828Y-91755142D01*
X133581971Y-91769285D01*
X133402366Y-91948890D01*
X133388223Y-91934747D01*
X133374081Y-91948890D01*
X133194476Y-91769285D01*
X133208618Y-91755142D01*
X133194476Y-91741000D01*
X133374081Y-91561395D01*
X133388223Y-91575537D01*
X133402366Y-91561395D01*
X133581971Y-91741000D01*
%TA.AperFunction,Conductor*%
D32*
G36*
X133581971Y-91741000D02*
G01*
X133567828Y-91755142D01*
X133581971Y-91769285D01*
X133402366Y-91948890D01*
X133388223Y-91934747D01*
X133374081Y-91948890D01*
X133194476Y-91769285D01*
X133208618Y-91755142D01*
X133194476Y-91741000D01*
X133374081Y-91561395D01*
X133388223Y-91575537D01*
X133402366Y-91561395D01*
X133581971Y-91741000D01*
G37*
%TD.AperFunction*%
D31*
X140589000Y-87910000D02*
X140609000Y-87910000D01*
X140609000Y-88164000D01*
X140589000Y-88164000D01*
X140589000Y-88963250D01*
X140747750Y-89122000D01*
X140845000Y-89123579D01*
X140845000Y-91892609D01*
X140421990Y-91469599D01*
X140421990Y-87890000D01*
X140589000Y-87890000D01*
X140589000Y-87910000D01*
%TA.AperFunction,Conductor*%
D32*
G36*
X140589000Y-87910000D02*
G01*
X140609000Y-87910000D01*
X140609000Y-88164000D01*
X140589000Y-88164000D01*
X140589000Y-88963250D01*
X140747750Y-89122000D01*
X140845000Y-89123579D01*
X140845000Y-91892609D01*
X140421990Y-91469599D01*
X140421990Y-87890000D01*
X140589000Y-87890000D01*
X140589000Y-87910000D01*
G37*
%TD.AperFunction*%
D31*
X132646291Y-90764092D02*
X132646291Y-90833602D01*
X132534039Y-90721350D01*
X132451167Y-90804222D01*
X132451167Y-90568968D01*
X132646291Y-90764092D01*
%TA.AperFunction,Conductor*%
D32*
G36*
X132646291Y-90764092D02*
G01*
X132646291Y-90833602D01*
X132534039Y-90721350D01*
X132451167Y-90804222D01*
X132451167Y-90568968D01*
X132646291Y-90764092D01*
G37*
%TD.AperFunction*%
D31*
X158023498Y-88912180D02*
X158082463Y-89022494D01*
X158115000Y-89062141D01*
X158115000Y-89144250D01*
X158252853Y-89282103D01*
X158161815Y-89356815D01*
X158082463Y-89453506D01*
X158023498Y-89563820D01*
X158019197Y-89578000D01*
X157956803Y-89578000D01*
X157952502Y-89563820D01*
X157893537Y-89453506D01*
X157814185Y-89356815D01*
X157723147Y-89282103D01*
X157861000Y-89144250D01*
X157861000Y-89062141D01*
X157893537Y-89022494D01*
X157952502Y-88912180D01*
X157988000Y-88795159D01*
X158023498Y-88912180D01*
%TA.AperFunction,Conductor*%
D32*
G36*
X158023498Y-88912180D02*
G01*
X158082463Y-89022494D01*
X158115000Y-89062141D01*
X158115000Y-89144250D01*
X158252853Y-89282103D01*
X158161815Y-89356815D01*
X158082463Y-89453506D01*
X158023498Y-89563820D01*
X158019197Y-89578000D01*
X157956803Y-89578000D01*
X157952502Y-89563820D01*
X157893537Y-89453506D01*
X157814185Y-89356815D01*
X157723147Y-89282103D01*
X157861000Y-89144250D01*
X157861000Y-89062141D01*
X157893537Y-89022494D01*
X157952502Y-88912180D01*
X157988000Y-88795159D01*
X158023498Y-88912180D01*
G37*
%TD.AperFunction*%
D31*
X138562000Y-87185000D02*
X138542000Y-87185000D01*
X138542000Y-87809250D01*
X138700750Y-87968000D01*
X138901991Y-87969337D01*
X138901991Y-89368780D01*
X138899274Y-89366063D01*
X138729756Y-89252795D01*
X138541398Y-89174774D01*
X138341439Y-89135000D01*
X138279302Y-89135000D01*
X137628072Y-88483771D01*
X137628072Y-88008000D01*
X137624028Y-87966936D01*
X137668213Y-87971064D01*
X138129250Y-87968000D01*
X138288000Y-87809250D01*
X138288000Y-87185000D01*
X138268000Y-87185000D01*
X138268000Y-87171072D01*
X138562000Y-87171072D01*
X138562000Y-87185000D01*
%TA.AperFunction,Conductor*%
D32*
G36*
X138562000Y-87185000D02*
G01*
X138542000Y-87185000D01*
X138542000Y-87809250D01*
X138700750Y-87968000D01*
X138901991Y-87969337D01*
X138901991Y-89368780D01*
X138899274Y-89366063D01*
X138729756Y-89252795D01*
X138541398Y-89174774D01*
X138341439Y-89135000D01*
X138279302Y-89135000D01*
X137628072Y-88483771D01*
X137628072Y-88008000D01*
X137624028Y-87966936D01*
X137668213Y-87971064D01*
X138129250Y-87968000D01*
X138288000Y-87809250D01*
X138288000Y-87185000D01*
X138268000Y-87185000D01*
X138268000Y-87171072D01*
X138562000Y-87171072D01*
X138562000Y-87185000D01*
G37*
%TD.AperFunction*%
D31*
X132690226Y-79797937D02*
X132859744Y-79911205D01*
X133048102Y-79989226D01*
X133248061Y-80029000D01*
X133451939Y-80029000D01*
X133651898Y-79989226D01*
X133840256Y-79911205D01*
X133874512Y-79888316D01*
X134157388Y-80171191D01*
X133000750Y-80173000D01*
X132842000Y-80331750D01*
X132842000Y-82931000D01*
X135441250Y-82931000D01*
X135600000Y-82772250D01*
X135602592Y-81114894D01*
X135728002Y-81240304D01*
X135728001Y-84742199D01*
X135602384Y-84867817D01*
X135600000Y-83343750D01*
X135441250Y-83185000D01*
X132842000Y-83185000D01*
X132842000Y-85784250D01*
X133000750Y-85943000D01*
X134524817Y-85945384D01*
X134097937Y-86372264D01*
X128678058Y-86372264D01*
X128640735Y-86368588D01*
X128603412Y-86372264D01*
X128603403Y-86372264D01*
X128491750Y-86383261D01*
X128403072Y-86410161D01*
X128403072Y-85983000D01*
X128390812Y-85858518D01*
X128390655Y-85858000D01*
X128390812Y-85857482D01*
X128403072Y-85733000D01*
X128403072Y-85183000D01*
X128390812Y-85058518D01*
X128390655Y-85058000D01*
X128390812Y-85057482D01*
X128403072Y-84933000D01*
X128403072Y-84512326D01*
X128439276Y-84492974D01*
X128555001Y-84398001D01*
X128578804Y-84368997D01*
X129830000Y-83117802D01*
X129830000Y-83185002D01*
X129988748Y-83185002D01*
X129830000Y-83343750D01*
X129826928Y-85308000D01*
X129839188Y-85432482D01*
X129875498Y-85552180D01*
X129934463Y-85662494D01*
X130013815Y-85759185D01*
X130110506Y-85838537D01*
X130220820Y-85897502D01*
X130340518Y-85933812D01*
X130465000Y-85946072D01*
X132429250Y-85943000D01*
X132588000Y-85784250D01*
X132588000Y-83185000D01*
X132568000Y-83185000D01*
X132568000Y-82931000D01*
X132588000Y-82931000D01*
X132588000Y-80331750D01*
X132429250Y-80173000D01*
X130775316Y-80170413D01*
X130735174Y-80038080D01*
X130664602Y-79906051D01*
X130569629Y-79790326D01*
X130540631Y-79766528D01*
X130528103Y-79754000D01*
X132646289Y-79754000D01*
X132690226Y-79797937D01*
%TA.AperFunction,Conductor*%
D32*
G36*
X132690226Y-79797937D02*
G01*
X132859744Y-79911205D01*
X133048102Y-79989226D01*
X133248061Y-80029000D01*
X133451939Y-80029000D01*
X133651898Y-79989226D01*
X133840256Y-79911205D01*
X133874512Y-79888316D01*
X134157388Y-80171191D01*
X133000750Y-80173000D01*
X132842000Y-80331750D01*
X132842000Y-82931000D01*
X135441250Y-82931000D01*
X135600000Y-82772250D01*
X135602592Y-81114894D01*
X135728002Y-81240304D01*
X135728001Y-84742199D01*
X135602384Y-84867817D01*
X135600000Y-83343750D01*
X135441250Y-83185000D01*
X132842000Y-83185000D01*
X132842000Y-85784250D01*
X133000750Y-85943000D01*
X134524817Y-85945384D01*
X134097937Y-86372264D01*
X128678058Y-86372264D01*
X128640735Y-86368588D01*
X128603412Y-86372264D01*
X128603403Y-86372264D01*
X128491750Y-86383261D01*
X128403072Y-86410161D01*
X128403072Y-85983000D01*
X128390812Y-85858518D01*
X128390655Y-85858000D01*
X128390812Y-85857482D01*
X128403072Y-85733000D01*
X128403072Y-85183000D01*
X128390812Y-85058518D01*
X128390655Y-85058000D01*
X128390812Y-85057482D01*
X128403072Y-84933000D01*
X128403072Y-84512326D01*
X128439276Y-84492974D01*
X128555001Y-84398001D01*
X128578804Y-84368997D01*
X129830000Y-83117802D01*
X129830000Y-83185002D01*
X129988748Y-83185002D01*
X129830000Y-83343750D01*
X129826928Y-85308000D01*
X129839188Y-85432482D01*
X129875498Y-85552180D01*
X129934463Y-85662494D01*
X130013815Y-85759185D01*
X130110506Y-85838537D01*
X130220820Y-85897502D01*
X130340518Y-85933812D01*
X130465000Y-85946072D01*
X132429250Y-85943000D01*
X132588000Y-85784250D01*
X132588000Y-83185000D01*
X132568000Y-83185000D01*
X132568000Y-82931000D01*
X132588000Y-82931000D01*
X132588000Y-80331750D01*
X132429250Y-80173000D01*
X130775316Y-80170413D01*
X130735174Y-80038080D01*
X130664602Y-79906051D01*
X130569629Y-79790326D01*
X130540631Y-79766528D01*
X130528103Y-79754000D01*
X132646289Y-79754000D01*
X132690226Y-79797937D01*
G37*
%TD.AperFunction*%
D31*
X125626928Y-80933000D02*
X125639188Y-81057482D01*
X125639345Y-81058000D01*
X125639188Y-81058518D01*
X125626928Y-81183000D01*
X125626928Y-81419176D01*
X125560180Y-81383498D01*
X125440482Y-81347188D01*
X125316000Y-81334928D01*
X125126750Y-81338000D01*
X124968000Y-81496750D01*
X124968000Y-82296000D01*
X124988000Y-82296000D01*
X124988000Y-82438000D01*
X124694000Y-82438000D01*
X124694000Y-82296000D01*
X124714000Y-82296000D01*
X124714000Y-81496750D01*
X124555250Y-81338000D01*
X124366000Y-81334928D01*
X124241518Y-81347188D01*
X124238000Y-81348255D01*
X124238000Y-80766232D01*
X124260717Y-80778375D01*
X124422623Y-80827488D01*
X124591000Y-80844072D01*
X125091000Y-80844072D01*
X125259377Y-80827488D01*
X125421283Y-80778375D01*
X125570497Y-80698618D01*
X125626928Y-80652306D01*
X125626928Y-80933000D01*
%TA.AperFunction,Conductor*%
D32*
G36*
X125626928Y-80933000D02*
G01*
X125639188Y-81057482D01*
X125639345Y-81058000D01*
X125639188Y-81058518D01*
X125626928Y-81183000D01*
X125626928Y-81419176D01*
X125560180Y-81383498D01*
X125440482Y-81347188D01*
X125316000Y-81334928D01*
X125126750Y-81338000D01*
X124968000Y-81496750D01*
X124968000Y-82296000D01*
X124988000Y-82296000D01*
X124988000Y-82438000D01*
X124694000Y-82438000D01*
X124694000Y-82296000D01*
X124714000Y-82296000D01*
X124714000Y-81496750D01*
X124555250Y-81338000D01*
X124366000Y-81334928D01*
X124241518Y-81347188D01*
X124238000Y-81348255D01*
X124238000Y-80766232D01*
X124260717Y-80778375D01*
X124422623Y-80827488D01*
X124591000Y-80844072D01*
X125091000Y-80844072D01*
X125259377Y-80827488D01*
X125421283Y-80778375D01*
X125570497Y-80698618D01*
X125626928Y-80652306D01*
X125626928Y-80933000D01*
G37*
%TD.AperFunction*%
D31*
X133916000Y-75469750D02*
X133912928Y-75659000D01*
X133925188Y-75783482D01*
X133961498Y-75903180D01*
X133999318Y-75973935D01*
X133915518Y-75982188D01*
X133915000Y-75982345D01*
X133914482Y-75982188D01*
X133790000Y-75969928D01*
X133377873Y-75969928D01*
X134036800Y-75311002D01*
X134074748Y-75311002D01*
X133916000Y-75469750D01*
%TA.AperFunction,Conductor*%
D32*
G36*
X133916000Y-75469750D02*
G01*
X133912928Y-75659000D01*
X133925188Y-75783482D01*
X133961498Y-75903180D01*
X133999318Y-75973935D01*
X133915518Y-75982188D01*
X133915000Y-75982345D01*
X133914482Y-75982188D01*
X133790000Y-75969928D01*
X133377873Y-75969928D01*
X134036800Y-75311002D01*
X134074748Y-75311002D01*
X133916000Y-75469750D01*
G37*
%TD.AperFunction*%
D31*
X127689070Y-75940848D02*
X127669999Y-75940848D01*
X127669999Y-75917610D01*
X127689070Y-75940848D01*
%TA.AperFunction,Conductor*%
D32*
G36*
X127689070Y-75940848D02*
G01*
X127669999Y-75940848D01*
X127669999Y-75917610D01*
X127689070Y-75940848D01*
G37*
%TD.AperFunction*%
D31*
X135128000Y-75057000D02*
X135148000Y-75057000D01*
X135148000Y-75311000D01*
X135128000Y-75311000D01*
X135128000Y-75331000D01*
X134874000Y-75331000D01*
X134874000Y-75311000D01*
X134854000Y-75311000D01*
X134854000Y-75057000D01*
X134874000Y-75057000D01*
X134874000Y-75037000D01*
X135128000Y-75037000D01*
X135128000Y-75057000D01*
%TA.AperFunction,Conductor*%
D32*
G36*
X135128000Y-75057000D02*
G01*
X135148000Y-75057000D01*
X135148000Y-75311000D01*
X135128000Y-75311000D01*
X135128000Y-75331000D01*
X134874000Y-75331000D01*
X134874000Y-75311000D01*
X134854000Y-75311000D01*
X134854000Y-75057000D01*
X134874000Y-75057000D01*
X134874000Y-75037000D01*
X135128000Y-75037000D01*
X135128000Y-75057000D01*
G37*
%TD.AperFunction*%
%TD*%
M02*
