M48
; DRILL file {KiCad (5.1.9)-1} date 03/28/21 20:47:15
; FORMAT={-:-/ absolute / metric / decimal}
; #@! TF.CreationDate,2021-03-28T20:47:15-04:00
; #@! TF.GenerationSoftware,Kicad,Pcbnew,(5.1.9)-1
; #@! TF.FileFunction,Plated,1,2,PTH
FMAT,2
METRIC
T1C0.400
T2C0.600
T3C1.000
T4C1.200
T5C2.000
%
G90
G05
T1
X124.46Y-88.392
X125.222Y-81.153
X125.476Y-77.216
X126.244Y-77.856
X126.629Y-109.655
X127.371Y-108.912
X127.635Y-75.946
X127.748Y-76.976
X128.562Y-80.503
X129.305Y-81.246
X129.459Y-72.771
X130.51Y-72.771
X130.556Y-96.647
X131.064Y-90.297
X131.318Y-86.106
X132.27Y-102.108
X132.461Y-90.678
X132.969Y-95.504
X133.35Y-78.994
X133.858Y-75.565
X134.493Y-85.979
X134.747Y-95.504
X135.572Y-79.438
X135.636Y-84.328
X135.763Y-81.788
X136.525Y-96.012
X136.969Y-78.65
X138.049Y-75.057
X138.239Y-90.17
X138.684Y-88.138
X138.938Y-96.329
X140.462Y-89.154
X140.589Y-85.407
X140.653Y-84.328
X142.748Y-135.001
X142.748Y-139.446
X142.939Y-96.329
X143.002Y-90.043
X143.446Y-85.661
X143.827Y-79.375
X144.082Y-84.138
X149.606Y-102.997
X149.86Y-134.874
X150.241Y-139.573
X152.019Y-97.917
X152.527Y-70.294
X153.67Y-89.027
X154.559Y-98.425
X154.608Y-69.928
X155.575Y-94.361
X156.464Y-81.788
X157.734Y-113.411
X157.988Y-89.408
X158.75Y-93.599
X160.528Y-83.439
X161.671Y-70.866
T3
X127.0Y-105.029
X128.905Y-69.469
X129.54Y-105.029
X131.445Y-69.469
X133.985Y-69.469
X136.525Y-69.469
X142.49Y-106.383
X145.03Y-106.383
X147.57Y-106.383
X150.11Y-106.383
X162.814Y-109.728
X162.814Y-112.268
X162.814Y-114.808
X162.814Y-117.348
X162.814Y-119.888
X162.814Y-122.428
T4
X141.022Y-62.447
X144.3Y-66.675
X144.3Y-100.175
X146.102Y-62.447
X148.3Y-66.675
X151.182Y-62.447
T5
X134.65Y-106.883
X134.65Y-130.683
X157.95Y-106.883
X157.95Y-130.683
T2
G00X141.982Y-141.795
M15
G01X141.982Y-140.695
M16
G05
G00X141.982Y-145.815
M15
G01X141.982Y-145.015
M16
G05
G00X150.622Y-141.795
M15
G01X150.622Y-140.695
M16
G05
G00X150.622Y-145.815
M15
G01X150.622Y-145.015
M16
G05
T0
M30
